<svg xmlns="http://www.w3.org/2000/svg" width="25" height="25" viewBox="0 0 25 25"><defs><style>.a{fill:#fff;}</style></defs><g transform="translate(0 0)"><g transform="translate(0)"><path class="a" d="M21.531,3.857A12.495,12.495,0,1,0,3.846,21.5c.007.007.01.018.017.024.072.07.151.129.224.2.2.179.4.363.613.536.113.089.231.179.347.261.2.149.4.3.609.436.142.089.288.179.434.268.193.116.385.233.584.339.169.089.341.166.512.247.187.089.372.179.564.259s.385.143.579.212.362.134.549.191c.211.063.427.112.641.165.178.044.352.094.536.129.246.049.5.08.746.114.154.021.305.052.461.067.409.04.821.063,1.237.063s.828-.022,1.237-.062c.156-.015.307-.046.461-.067.25-.034.5-.065.746-.114.178-.036.357-.089.536-.129.214-.053.43-.1.641-.165.187-.057.367-.127.549-.191s.389-.134.579-.212.377-.171.564-.259c.171-.081.344-.158.512-.247.2-.106.391-.223.584-.339.145-.089.292-.171.434-.268.209-.137.409-.287.609-.436.116-.089.234-.17.347-.261.212-.17.412-.35.613-.536.073-.067.152-.126.224-.2.007-.006.01-.017.017-.024A12.481,12.481,0,0,0,21.531,3.857ZM19.525,20.57c-.162.143-.33.279-.5.41-.1.077-.2.153-.3.226-.162.117-.326.228-.493.334-.121.078-.245.153-.37.226q-.236.134-.478.268c-.143.073-.288.142-.435.21s-.308.14-.466.2-.326.123-.491.179-.3.105-.454.151c-.178.054-.365.1-.55.142-.145.034-.287.072-.434.1-.212.041-.428.07-.644.1-.123.016-.245.038-.37.051-.343.033-.69.053-1.041.053s-.7-.02-1.041-.053c-.124-.013-.246-.035-.37-.051-.217-.029-.433-.058-.644-.1-.146-.029-.289-.067-.434-.1-.185-.045-.369-.089-.55-.142-.153-.046-.3-.1-.454-.151s-.33-.115-.491-.179-.312-.133-.466-.2-.292-.137-.435-.21c-.162-.084-.321-.172-.478-.268-.125-.073-.249-.148-.37-.226-.167-.106-.331-.217-.493-.334-.1-.073-.2-.149-.3-.226-.17-.131-.337-.268-.5-.41-.039-.029-.075-.067-.113-.1a7.161,7.161,0,0,1,4.867-6.69,5.292,5.292,0,0,0,4.547,0,7.161,7.161,0,0,1,4.867,6.69C19.6,20.5,19.564,20.537,19.525,20.57ZM9.384,7.167a3.57,3.57,0,1,1,4.862,4.862.019.019,0,0,0-.015.005,3.781,3.781,0,0,1-.746.316c-.046.013-.089.031-.138.043-.089.023-.183.039-.275.055a3.615,3.615,0,0,1-.524.053h-.1a3.615,3.615,0,0,1-.524-.053c-.089-.016-.184-.032-.275-.055-.047-.012-.089-.029-.138-.043a3.778,3.778,0,0,1-.746-.316l-.016-.005A3.57,3.57,0,0,1,9.384,7.167ZM21.22,18.7h0a8.97,8.97,0,0,0-4.779-6.153,5.355,5.355,0,1,0-7.89,0A8.971,8.971,0,0,0,3.772,18.7a10.711,10.711,0,1,1,17.448,0Z" transform="translate(0 -0.011)"/></g></g></svg>