<svg width="271" height="294" viewBox="0 0 271 294" fill="none" xmlns="http://www.w3.org/2000/svg">
<path fill-rule="evenodd" clip-rule="evenodd" d="M157.402 32.3135C161.483 27.5238 164.244 21.654 163.783 15.0767C162.453 -3.87435 136.073 0.29463 130.941 9.85948C125.81 19.4243 126.419 43.6864 133.051 45.3959C135.696 46.0776 141.331 44.4076 147.065 40.9512L143.466 66.4156H164.719L157.402 32.3135Z" fill="#B28B67"/>
<path fill-rule="evenodd" clip-rule="evenodd" d="M150.788 22.0208C151.483 21.5431 152.313 21.253 153.205 21.253C155.651 21.253 157.633 23.4336 157.633 25.6807C157.633 28.0184 156.529 29.826 154.952 30.5928C155.794 32.239 156.641 33.4336 157.633 33.6506C161.46 33.2634 166.488 23.7507 166.488 15.9398C166.488 7.3903 159.686 0 147.006 0C135.61 0 131.289 4.69888 131.067 8.85542C135.95 10.1976 144.483 10.7144 156.747 10.6265V11.512L146.121 12.3976L144.35 17.7108C147.167 17.5005 149.181 19.4332 150.788 22.0208Z" fill="#191847"/>
<path d="M173.571 294C135.913 294 105.384 264.859 105.384 228.913C105.384 192.966 135.913 163.825 173.571 163.825C211.23 163.825 241.758 192.966 241.758 228.913C241.758 264.859 211.23 294 173.571 294Z" fill="#C5CFD6"/>
<path fill-rule="evenodd" clip-rule="evenodd" d="M44.7176 283.958C56.0639 258.845 64.2694 236.978 67.563 225.441C73.2026 205.687 77.4928 188.305 78.5771 181.813C81.1629 166.333 58.6861 165.432 55.7152 173.125C51.2185 184.769 43.3684 223.026 33.9358 280.812L44.7176 283.958ZM176.328 205.148C165.917 201.033 129.462 188.156 111.879 184.513C106.826 183.466 101.929 182.493 97.3251 181.614C83.6401 179.002 76.5499 203.69 89.7303 205.587C122.555 210.311 169.089 215.19 173.071 215.737C178.653 216.504 182.87 207.734 176.328 205.148Z" fill="#B28B67"/>
<path fill-rule="evenodd" clip-rule="evenodd" d="M88.9253 174.82L145.234 146.156V139.916H138.538C84.0612 153.797 56.2238 162.693 55.0254 166.604C55.0125 166.646 55.0007 166.688 54.9899 166.73C54.9625 166.766 54.9356 166.802 54.9091 166.839C44.113 181.687 37.6473 254.174 35.5251 259.602L56.2128 262.688C64.1264 233.343 89.4452 212.9 88.7727 177.754C88.9543 176.723 89.0002 175.745 88.9253 174.82Z" fill="#1F28CF"/>
<path fill-rule="evenodd" clip-rule="evenodd" d="M140.554 191.844C145.706 190.813 150.451 189.892 154.511 189.18C180.735 184.581 188.382 170.543 183.86 139.916H135.543C127.651 142.183 86.6327 159.384 65.3509 168.533C51.2654 174.588 55.7056 196.417 63.6822 202.098C63.7255 202.446 63.8691 202.683 64.1247 202.789C107.033 220.573 140.978 211.242 152.317 214.223L157.562 197.678L140.554 191.844Z" fill="#2B44FF"/>
<path fill-rule="evenodd" clip-rule="evenodd" d="M172.77 202.518C175.581 202.787 177.577 203.209 178.757 203.784C180.192 204.484 182.17 205.745 184.69 207.566C183.878 209.231 176.58 224.195 162.795 252.458C158.37 251.743 156.616 250.054 157.534 247.391C158.453 244.727 159.193 242.504 159.756 240.721L160.631 215.319C160.648 214.83 161.058 214.448 161.547 214.464C161.555 214.465 161.563 214.465 161.572 214.466L165.479 214.711C167.7 212.914 169.165 211.288 169.874 209.833C170.451 208.651 170.769 206.786 170.83 204.238L170.83 204.238C170.854 203.26 171.666 202.487 172.643 202.51C172.686 202.511 172.728 202.514 172.77 202.518Z" fill="#E4E4E4"/>
<path fill-rule="evenodd" clip-rule="evenodd" d="M49.8811 279.301C50.8718 281.946 51.3672 283.925 51.3672 285.238C51.3672 286.835 51.1012 289.165 50.5691 292.229C48.7166 292.229 32.0679 292.229 0.622917 292.229C-0.675007 287.938 0.0742302 285.621 2.87063 285.279C5.66703 284.937 7.99004 284.628 9.83968 284.352L33.0542 274.003C33.5009 273.804 34.0244 274.005 34.2236 274.451C34.227 274.459 34.2303 274.467 34.2335 274.475L35.7257 278.094C38.3144 279.302 40.418 279.906 42.0365 279.906C43.3515 279.906 45.1675 279.375 47.4845 278.313L47.4845 278.313C48.3737 277.905 49.425 278.296 49.8326 279.185C49.8501 279.223 49.8663 279.262 49.8811 279.301Z" fill="#E4E4E4"/>
<path fill-rule="evenodd" clip-rule="evenodd" d="M92.1981 122.321L63.9509 143.064C56.2896 145.131 49.8889 147.703 44.7487 150.78C43.5345 151.886 42.067 154.127 47.1026 153.74C52.1382 153.352 57.4523 153.172 58.1472 154.889C58.842 156.607 55.7947 158.661 57.1992 160.978C58.1356 162.523 62.5593 158.649 70.4703 149.356L98.4425 137.757L92.1981 122.321ZM220.026 113.681L204.431 116.505C222.532 152.424 232.226 171.415 233.515 173.48C236.415 178.125 233.487 186.494 232.383 190.909C238.8 192.522 236.428 182.777 244.547 184.945C251.957 186.924 258.184 191.778 265.235 185.501C266.102 184.729 266.77 182.281 263.883 180.969C256.69 177.701 246.086 171.631 244.39 169.317C242.076 166.16 233.955 147.615 220.026 113.681Z" fill="#B28B67"/>
<path fill-rule="evenodd" clip-rule="evenodd" d="M85.6182 124.576C81.9839 124.315 78.0306 124.917 73.7922 126.345C71.7065 127.048 70.5855 129.308 71.2882 131.394C71.6963 132.605 72.6299 133.491 73.7495 133.883C72.9385 134.475 72.1203 135.063 71.2948 135.649L78.421 150.196C108.408 135.245 136.593 123.972 149.436 99.2881C153.747 91.0035 152.288 62.8628 152.699 52.6253L143.228 48.7412C130.026 76.0308 112.159 102.212 85.6182 124.576Z" fill="#69A1AC"/>
<path fill-rule="evenodd" clip-rule="evenodd" d="M185.969 147.806C158.129 150.864 136.216 150.864 120.229 147.806C118.249 147.427 118.336 138.889 119.254 136.557C133.558 100.245 142.967 73.6629 142.967 48.4414C145.591 49.8123 150.184 50.0178 156.746 49.0577C174.38 75.0493 182.486 104.872 185.969 147.806Z" fill="#191847"/>
<path fill-rule="evenodd" clip-rule="evenodd" d="M191.137 152.099C192.083 151.209 192.576 149.876 192.333 148.502L191.872 145.885C191.559 144.112 190.119 142.821 188.419 142.619C188.122 141.291 187.866 139.971 187.654 138.661C185.866 127.595 188.921 116.745 188.777 106.09C203.017 118.239 215.791 139.217 227.1 169.024L243.825 164.103C243.186 161.732 242.525 159.39 241.842 157.078C243.772 155.981 246.028 150.955 244.404 150.114C242.728 149.245 240.951 148.633 239.081 148.274C223.746 102.084 198.668 68.3044 163.847 46.9336H160.767L153.776 46.9336C156.741 86.1461 115.785 171.755 130.006 244.868C156.292 250.738 193.817 232.475 230.345 247.066C228.986 217.623 201.76 183.033 191.137 152.099V152.099Z" fill="#89C5CC"/>
<path fill-rule="evenodd" clip-rule="evenodd" d="M160.193 47.8193L164.761 61.8689L155.561 72.4011L163.876 80.6778L143.76 115.121L168.359 80.7466L160.193 72.4011L168.359 63.0936L160.193 47.8193Z" fill="black" fill-opacity="0.1"/>
<path fill-rule="evenodd" clip-rule="evenodd" d="M149.661 128.404C151.617 128.404 153.203 126.818 153.203 124.862C153.203 122.905 151.617 121.319 149.661 121.319C147.705 121.319 146.119 122.905 146.119 124.862C146.119 126.818 147.705 128.404 149.661 128.404ZM145.233 148.771C147.19 148.771 148.775 147.185 148.775 145.229C148.775 143.273 147.19 141.687 145.233 141.687C143.277 141.687 141.691 143.273 141.691 145.229C141.691 147.185 143.277 148.771 145.233 148.771ZM144.348 169.139C146.304 169.139 147.89 167.553 147.89 165.596C147.89 163.64 146.304 162.054 144.348 162.054C142.391 162.054 140.806 163.64 140.806 165.596C140.806 167.553 142.391 169.139 144.348 169.139Z" fill="black" fill-opacity="0.4"/>
</svg>
