<svg width="119" height="119" viewBox="0 0 119 119" fill="none" xmlns="http://www.w3.org/2000/svg">
<circle cx="59.4686" cy="59.996" r="59.0038" fill="#6FC0FF" fill-opacity="0.8"/>
<g clip-path="url(#clip0)">
<path d="M64.9914 79.48H53.0273V92.8795H64.9914V79.48Z" fill="#FDCC9B"/>
<path d="M53.0273 81.0579C53.0273 81.0579 58.06 84.2627 64.9914 83.5203V79.4795H53.0273V81.0579Z" fill="#FCBC85"/>
<path d="M35.7752 65.3626C38.9993 65.3626 41.613 62.3807 41.613 58.7023C41.613 55.0239 38.9993 52.042 35.7752 52.042C32.5511 52.042 29.9375 55.0239 29.9375 58.7023C29.9375 62.3807 32.5511 65.3626 35.7752 65.3626Z" fill="#FCBC85"/>
<path d="M82.244 65.3626C85.4681 65.3626 88.0817 62.3807 88.0817 58.7023C88.0817 55.0239 85.4681 52.042 82.244 52.042C79.0199 52.042 76.4062 55.0239 76.4062 58.7023C76.4062 62.3807 79.0199 65.3626 82.244 65.3626Z" fill="#FCBC85"/>
<path d="M82.2173 45.9807C82.2173 36.1705 75.0388 28.9917 59.0071 28.9917C42.9754 28.9917 35.797 36.1701 35.797 45.9807C35.797 55.7912 34.1222 81.6335 59.0071 81.6335C83.8921 81.6335 82.2173 55.7912 82.2173 45.9807Z" fill="#FDCC9B"/>
<path d="M47.7039 59.8586C49.0915 59.8586 50.2163 58.6265 50.2163 57.1068C50.2163 55.587 49.0915 54.355 47.7039 54.355C46.3163 54.355 45.1914 55.587 45.1914 57.1068C45.1914 58.6265 46.3163 59.8586 47.7039 59.8586Z" fill="#3B2519"/>
<path d="M46.6068 56.6433C47.0218 56.6433 47.3581 56.3069 47.3581 55.892C47.3581 55.477 47.0218 55.1406 46.6068 55.1406C46.1919 55.1406 45.8555 55.477 45.8555 55.892C45.8555 56.3069 46.1919 56.6433 46.6068 56.6433Z" fill="white"/>
<path d="M43.6866 50.2874C44.8746 50.8816 46.7823 48.2686 51.1491 50.5418C51.9452 50.9561 52.4202 46.9976 47.7396 46.9976C43.6866 46.9976 42.9686 49.9288 43.6866 50.2874Z" fill="#51362A"/>
<path d="M70.6257 59.8586C72.0133 59.8586 73.1382 58.6265 73.1382 57.1068C73.1382 55.587 72.0133 54.355 70.6257 54.355C69.2382 54.355 68.1133 55.587 68.1133 57.1068C68.1133 58.6265 69.2382 59.8586 70.6257 59.8586Z" fill="#3B2519"/>
<path d="M69.5287 56.6433C69.9436 56.6433 70.28 56.3069 70.28 55.892C70.28 55.477 69.9436 55.1406 69.5287 55.1406C69.1137 55.1406 68.7773 55.477 68.7773 55.892C68.7773 56.3069 69.1137 56.6433 69.5287 56.6433Z" fill="white"/>
<path d="M74.3366 50.2874C73.1485 50.8816 71.2409 48.2686 66.8741 50.5418C66.0779 50.9561 65.603 46.9976 70.284 46.9976C74.3366 46.9976 75.0541 49.9288 74.3366 50.2874Z" fill="#51362A"/>
<path d="M59.0094 66.7865C56.5266 66.7865 55.0312 64.9321 55.0312 65.8292C55.0312 66.7267 55.7492 68.4316 59.0094 68.4316C62.2695 68.4316 62.9875 66.7267 62.9875 65.8292C62.9875 64.9317 61.4917 66.7865 59.0094 66.7865Z" fill="#FCBC85"/>
<path d="M59.0089 75.0364C58.1501 75.0364 57.6328 74.3949 57.6328 74.7055C57.6328 75.016 57.8811 75.6054 59.0089 75.6054C60.1367 75.6054 60.3846 75.016 60.3846 74.7055C60.3846 74.3949 59.8673 75.0364 59.0089 75.0364Z" fill="#FCBC85"/>
<path d="M59.0089 72.75C55.074 72.75 52.7031 71.1476 52.7031 71.5538C52.7031 71.96 53.8411 73.5579 59.0089 73.5579C64.1767 73.5579 65.3147 71.96 65.3147 71.5538C65.3143 71.1476 62.9439 72.75 59.0089 72.75Z" fill="#F7945E"/>
<path d="M59.009 84.8638V99.9386H29.9375C29.9375 93.8367 45.2504 84.8638 59.009 84.8638Z" fill="#F7941E"/>
<path d="M59.0078 84.8638V99.9386H88.0793C88.0793 93.8367 72.7664 84.8638 59.0078 84.8638Z" fill="#F7941E"/>
<path d="M59.0073 84.8638C56.0809 84.8638 53.0845 85.2728 50.1797 85.9708C50.1992 85.9965 53.4016 90.128 59.0073 90.128C64.1983 90.128 67.6494 86.5899 68.1496 86.0457C65.1466 85.3005 62.0395 84.8638 59.0073 84.8638Z" fill="#F36C21"/>
<path d="M53.0273 85.3855C53.0273 85.3855 54.7771 87.5557 59.0092 87.5557C63.2413 87.5557 64.9914 85.3855 64.9914 85.3855C64.9914 85.3855 58.7853 83.1262 53.0273 85.3855Z" fill="#FDCC9B"/>
<path d="M78.0915 26.8985C78.0915 26.8985 69.4776 15.9516 51.574 20.079C33.6709 24.2061 32.3294 34.974 32.8679 45.45C33.4063 55.9264 34.8419 62.0723 36.5399 61.3128C38.2379 60.5529 37.3543 53.6378 37.5338 52.0419C37.7133 50.446 39.3283 43.2289 50.2171 44.3059C61.1054 45.3828 70.281 41.4344 70.281 41.4344C70.281 41.4344 73.9746 46.1033 76.4053 46.9979C81.2625 48.785 79.6695 60.7019 81.5727 60.7019C83.4758 60.7019 92.8074 33.1795 78.0915 26.8985Z" fill="#51362A"/>
</g>
<defs>
<clipPath id="clip0">
<rect width="80.7898" height="80.7898" fill="white" transform="translate(18.6133 19.1489)"/>
</clipPath>
</defs>
</svg>
