<svg width="135" height="135" viewBox="0 0 135 135" fill="none" xmlns="http://www.w3.org/2000/svg">
<circle cx="67.6572" cy="67.0283" r="67.0283" fill="#B51717"/>
<g clip-path="url(#clip0)">
<path d="M67.6719 51.749V111.416H95.0364C95.0364 111.416 100.235 84.4583 100.108 68.2249C99.9802 51.9915 67.6719 51.749 67.6719 51.749Z" fill="#543C2A"/>
<path d="M67.6678 51.749V111.416H40.3042C40.3042 111.416 35.1052 84.4583 35.2328 68.2249C35.3599 51.9915 67.6678 51.749 67.6678 51.749Z" fill="#543C2A"/>
<path d="M74.3446 91.4067H60.9961V106.357H74.3446V91.4067Z" fill="#FDCC9B"/>
<path d="M60.9961 93.1678C60.9961 93.1678 66.6111 96.7434 74.3446 95.9156V91.4067H60.9961V93.1678Z" fill="#FCBC85"/>
<path d="M41.7476 75.6559C45.3448 75.6559 48.2609 72.329 48.2609 68.2249C48.2609 64.1209 45.3448 60.7939 41.7476 60.7939C38.1505 60.7939 35.2344 64.1209 35.2344 68.2249C35.2344 72.329 38.1505 75.6559 41.7476 75.6559Z" fill="#FCBC85"/>
<path d="M93.5914 75.6559C97.1886 75.6559 100.105 72.329 100.105 68.2249C100.105 64.1209 97.1886 60.7939 93.5914 60.7939C89.9942 60.7939 87.0781 64.1209 87.0781 68.2249C87.0781 72.329 89.9942 75.6559 93.5914 75.6559Z" fill="#FCBC85"/>
<path d="M93.5676 54.0315C93.5676 43.0857 85.5586 35.0767 67.6717 35.0767C49.7849 35.0767 41.7763 43.0857 41.7763 54.0315C41.7763 64.9773 39.9077 93.8099 67.6717 93.8099C95.4363 93.8099 93.5676 64.9773 93.5676 54.0315Z" fill="#FDCC9B"/>
<path d="M55.0571 69.5159C56.6053 69.5159 57.8603 68.1413 57.8603 66.4457C57.8603 64.7501 56.6053 63.3755 55.0571 63.3755C53.5089 63.3755 52.2539 64.7501 52.2539 66.4457C52.2539 68.1413 53.5089 69.5159 55.0571 69.5159Z" fill="#3B2519"/>
<path d="M53.8344 65.9285C54.2973 65.9285 54.6727 65.5532 54.6727 65.0902C54.6727 64.6273 54.2973 64.252 53.8344 64.252C53.3714 64.252 52.9961 64.6273 52.9961 65.0902C52.9961 65.5532 53.3714 65.9285 53.8344 65.9285Z" fill="white"/>
<path d="M50.5743 59.826C51.8998 60.3333 54.0278 58.1014 58.9004 60.0431C59.7886 60.3973 60.3185 57.0151 55.0958 57.0151C50.5743 57.0151 49.7733 59.5195 50.5743 59.826Z" fill="#684B37"/>
<path d="M80.6313 69.5159C82.1795 69.5159 83.4345 68.1413 83.4345 66.4457C83.4345 64.7501 82.1795 63.3755 80.6313 63.3755C79.0832 63.3755 77.8281 64.7501 77.8281 66.4457C77.8281 68.1413 79.0832 69.5159 80.6313 69.5159Z" fill="#3B2519"/>
<path d="M79.4086 65.9285C79.8716 65.9285 80.2469 65.5532 80.2469 65.0902C80.2469 64.6273 79.8716 64.252 79.4086 64.252C78.9456 64.252 78.5703 64.6273 78.5703 65.0902C78.5703 65.5532 78.9456 65.9285 79.4086 65.9285Z" fill="white"/>
<path d="M84.7709 59.826C83.4454 60.3333 81.317 58.1014 76.4449 60.0431C75.5567 60.3973 75.0267 57.0151 80.2489 57.0151C84.7709 57.0151 85.5715 59.5195 84.7709 59.826Z" fill="#684B37"/>
<path d="M67.6685 77.2445C64.8989 77.2445 63.2305 75.1751 63.2305 76.1764C63.2305 77.1773 64.0315 79.08 67.6685 79.08C71.3063 79.08 72.1069 77.1777 72.1069 76.1764C72.1073 75.1751 70.4385 77.2445 67.6685 77.2445Z" fill="#FCBC85"/>
<path d="M67.6677 86.4493C66.71 86.4493 66.1328 85.7341 66.1328 86.0797C66.1328 86.4262 66.4098 87.0842 67.6677 87.0842C68.926 87.0842 69.203 86.4262 69.203 86.0797C69.203 85.7341 68.6263 86.4493 67.6677 86.4493Z" fill="#FCBC85"/>
<path d="M67.6678 83.8985C63.2775 83.8985 60.6328 82.1106 60.6328 82.5638C60.6328 83.017 61.902 84.7999 67.6678 84.7999C73.4336 84.7999 74.7033 83.0166 74.7033 82.5638C74.7033 82.1111 72.0581 83.8985 67.6678 83.8985Z" fill="#F7945E"/>
<path d="M51.4525 80.0607C53.5534 80.0607 55.2565 78.3576 55.2565 76.2567C55.2565 74.1558 53.5534 72.4526 51.4525 72.4526C49.3516 72.4526 47.6484 74.1558 47.6484 76.2567C47.6484 78.3576 49.3516 80.0607 51.4525 80.0607Z" fill="#F9AA8D"/>
<path d="M84.3548 80.0607C86.4558 80.0607 88.1589 78.3576 88.1589 76.2567C88.1589 74.1558 86.4558 72.4526 84.3548 72.4526C82.2539 72.4526 80.5508 74.1558 80.5508 76.2567C80.5508 78.3576 82.2539 80.0607 84.3548 80.0607Z" fill="#F9AA8D"/>
<path d="M67.6693 97.4141V114.233H38.4375C38.4375 107.425 52.3191 97.4141 67.6693 97.4141Z" fill="#F5A860"/>
<path d="M67.6719 97.4141V114.233H96.9041C96.9041 107.425 83.023 97.4141 67.6719 97.4141Z" fill="#F5A860"/>
<path d="M62.0978 97.8464C62.012 97.8587 61.9257 97.8759 61.8394 97.8891C60.0398 98.177 58.2842 98.5834 56.5977 99.0939L67.6688 114.233V105.824L62.6745 97.7783C62.4833 97.8051 62.2885 97.8174 62.0978 97.8464Z" fill="#F18B45"/>
<path d="M73.2429 97.8465C73.3291 97.8587 73.4154 97.876 73.5017 97.8892C75.3013 98.1771 77.0569 98.5835 78.7435 99.0939L67.6719 114.233V105.824L72.6661 97.7788C72.8573 97.8051 73.0526 97.8174 73.2429 97.8465Z" fill="#F18B45"/>
<path d="M67.6696 21.7148C37.5028 21.7148 33.9676 43.0538 35.2346 68.2245C36.5015 93.3956 57.86 105.823 57.86 105.823C57.86 105.823 33.9263 71.5713 53.8348 41.5371C53.8348 41.5371 50.0966 47.9659 50.2991 53.3507C50.2991 53.3507 54.9891 51.749 67.67 51.749C80.3514 51.749 85.041 53.3507 85.041 53.3507C85.244 47.9659 81.5058 41.5371 81.5058 41.5371C101.414 71.5708 77.4801 105.823 77.4801 105.823C77.4801 105.823 98.839 93.3956 100.106 68.2245C101.372 43.0538 97.8373 21.7148 67.6696 21.7148Z" fill="#684B37"/>
<path d="M60.9961 97.9963L67.6701 109.08L74.3441 97.9959C74.3446 97.9959 67.4203 95.4747 60.9961 97.9963Z" fill="#FDCC9B"/>
</g>
<defs>
<clipPath id="clip0">
<rect width="92.5179" height="92.5179" fill="white" transform="translate(21.4102 21.7148)"/>
</clipPath>
</defs>
</svg>
