<svg width="119" height="119" viewBox="0 0 119 119" fill="none" xmlns="http://www.w3.org/2000/svg">
<circle cx="59.8788" cy="59.996" r="59.0038" fill="#8DC39C" fill-opacity="0.8"/>
<g clip-path="url(#clip0)">
<path d="M59.9453 34.733V99.7805C59.9453 99.7805 23.0195 103.607 23.0195 85.6062C23.0195 85.6062 32.9378 86.8563 30.9072 78.584C28.333 68.097 29.7729 51.1127 30.9072 41.8299C32.0414 32.5466 59.9453 34.733 59.9453 34.733Z" fill="#330C00"/>
<path d="M59.8281 34.733V99.7805C59.8281 99.7805 96.7538 103.607 96.7538 85.6062C96.7538 85.6062 86.8356 86.8563 88.8662 78.584C91.4404 68.097 90.0005 51.1127 88.8662 41.8299C87.7316 32.5466 59.8281 34.733 59.8281 34.733Z" fill="#330C00"/>
<path d="M60.5898 90.107V80.6302C60.5898 80.6302 75.6325 80.1745 75.6325 89.2789L60.5898 90.107Z" fill="#00B497"/>
<path d="M59.3005 90.107V80.6302C59.3005 80.6302 44.2578 80.1745 44.2578 89.2789L59.3005 90.107Z" fill="#00B497"/>
<path d="M65.9189 80.6294H53.9688V94.0138H65.9189V80.6294Z" fill="#FDCC9B"/>
<path d="M53.9688 82.2059C53.9688 82.2059 58.9952 85.407 65.9189 84.6659V80.6294H53.9688V82.2059Z" fill="#FCBC85"/>
<path d="M36.7372 66.5283C39.9576 66.5283 42.5682 63.5498 42.5682 59.8757C42.5682 56.2016 39.9576 53.2231 36.7372 53.2231C33.5169 53.2231 30.9062 56.2016 30.9062 59.8757C30.9062 63.5498 33.5169 66.5283 36.7372 66.5283Z" fill="#FCBC85"/>
<path d="M83.1513 66.5283C86.3716 66.5283 88.9822 63.5498 88.9822 59.8757C88.9822 56.2016 86.3716 53.2231 83.1513 53.2231C79.9309 53.2231 77.3203 56.2016 77.3203 59.8757C77.3203 63.5498 79.9309 66.5283 83.1513 66.5283Z" fill="#FCBC85"/>
<path d="M83.1277 47.169C83.1277 37.3699 75.9577 30.2002 59.945 30.2002C43.9315 30.2002 36.7618 37.3703 36.7618 47.169C36.7618 56.9682 35.0889 82.7804 59.945 82.7804C84.801 82.7804 83.1277 56.9686 83.1277 47.169Z" fill="#FDCC9B"/>
<path d="M48.6502 61.0314C50.0362 61.0314 51.1597 59.8008 51.1597 58.2828C51.1597 56.7648 50.0362 55.5342 48.6502 55.5342C47.2642 55.5342 46.1406 56.7648 46.1406 58.2828C46.1406 59.8008 47.2642 61.0314 48.6502 61.0314Z" fill="#3B2519"/>
<path d="M47.5552 57.8198C47.9696 57.8198 48.3056 57.4838 48.3056 57.0693C48.3056 56.6548 47.9696 56.3188 47.5552 56.3188C47.1407 56.3188 46.8047 56.6548 46.8047 57.0693C46.8047 57.4838 47.1407 57.8198 47.5552 57.8198Z" fill="white"/>
<path d="M44.6355 52.3568C45.8222 52.8109 47.7276 50.8124 52.0897 52.5511C52.8845 52.8682 53.3594 49.8403 48.6838 49.8403C44.6355 49.8403 43.9184 52.082 44.6355 52.3568Z" fill="#684B37"/>
<path d="M71.5447 61.0314C72.9307 61.0314 74.0542 59.8008 74.0542 58.2828C74.0542 56.7648 72.9307 55.5342 71.5447 55.5342C70.1587 55.5342 69.0352 56.7648 69.0352 58.2828C69.0352 59.8008 70.1587 61.0314 71.5447 61.0314Z" fill="#3B2519"/>
<path d="M70.4501 57.8201C70.8648 57.8201 71.2009 57.4839 71.2009 57.0692C71.2009 56.6545 70.8648 56.3184 70.4501 56.3184C70.0354 56.3184 69.6992 56.6545 69.6992 57.0692C69.6992 57.4839 70.0354 57.8201 70.4501 57.8201Z" fill="white"/>
<path d="M75.249 52.3568C74.0623 52.8109 72.1573 50.8124 67.7952 52.5511C67.0004 52.8682 66.5255 49.8403 71.2011 49.8403C75.249 49.8403 75.9661 52.082 75.249 52.3568Z" fill="#684B37"/>
<path d="M59.9461 67.9511C57.4663 67.9511 55.9727 66.0985 55.9727 66.9949C55.9727 67.8909 56.6898 69.5943 59.9461 69.5943C63.2025 69.5943 63.9192 67.8913 63.9192 66.9949C63.9192 66.0985 62.4256 67.9511 59.9461 67.9511Z" fill="#FCBC85"/>
<path d="M59.9448 76.1912C59.087 76.1912 58.5703 75.5505 58.5703 75.8607C58.5703 76.1709 58.8183 76.7599 59.9448 76.7599C61.0713 76.7599 61.3189 76.1709 61.3189 75.8607C61.3189 75.5505 60.8022 76.1912 59.9448 76.1912Z" fill="#FCBC85"/>
<path d="M59.943 73.9076C56.0122 73.9076 53.6445 72.3066 53.6445 72.7124C53.6445 73.1177 54.7812 74.7142 59.943 74.7142C65.1048 74.7142 66.2415 73.1177 66.2415 72.7124C66.2415 72.307 63.8734 73.9076 59.943 73.9076Z" fill="#F7945E"/>
<path d="M45.4251 70.4723C47.3059 70.4723 48.8306 68.9475 48.8306 67.0667C48.8306 65.1859 47.3059 63.6611 45.4251 63.6611C43.5443 63.6611 42.0195 65.1859 42.0195 67.0667C42.0195 68.9475 43.5443 70.4723 45.4251 70.4723Z" fill="#F9AA8D"/>
<path d="M74.8821 70.4723C76.763 70.4723 78.2877 68.9475 78.2877 67.0667C78.2877 65.1859 76.763 63.6611 74.8821 63.6611C73.0013 63.6611 71.4766 65.1859 71.4766 67.0667C71.4766 68.9475 73.0013 70.4723 74.8821 70.4723Z" fill="#F9AA8D"/>
<path d="M59.9473 86.0068V101.064H33.7773C33.7773 94.9697 46.2048 86.0068 59.9473 86.0068Z" fill="#8FD6E7"/>
<path d="M59.9453 86.0068V101.064H86.1149C86.1149 94.9697 73.6879 86.0068 59.9453 86.0068Z" fill="#8FD6E7"/>
<path d="M59.9448 100.382V86.0068C56.1164 86.0068 52.4031 86.7191 49.0195 87.8541L59.9448 100.382Z" fill="#F6B1CF"/>
<path d="M59.9453 100.382V86.0068C63.7733 86.0068 67.4866 86.7191 70.8706 87.8541L59.9453 100.382Z" fill="#F6B1CF"/>
<path d="M59.9456 86.0068C57.1612 86.0068 54.439 86.3886 51.8555 87.026C52.2234 89.2624 53.7337 93.8506 59.9456 93.8506C66.157 93.8506 67.6673 89.2624 68.0352 87.026C65.4521 86.3882 62.7299 86.0068 59.9456 86.0068Z" fill="#F283B4"/>
<path d="M53.9727 86.5281C53.9727 86.5281 53.9722 91.9102 59.9475 91.9102C65.9224 91.9102 65.9224 86.5281 65.9224 86.5281C65.9224 86.5281 59.7231 84.271 53.9727 86.5281Z" fill="#FDCC9B"/>
<path d="M50.8002 87.1301C50.979 85.967 43.8407 86.8244 43.8988 90.1064C43.9577 93.3883 51.786 95.9133 53.937 97.1086C56.088 98.3034 59.9119 101.064 59.9119 101.064C59.9119 101.064 60.629 98.2912 57.2828 96.152C53.9374 94.0136 50.5611 88.6839 50.8002 87.1301Z" fill="#3ABDAA"/>
<path d="M69.0044 87.1301C68.8255 85.967 75.9639 86.8244 75.9058 90.1064C75.8468 93.3883 68.0185 95.9133 65.8676 97.1086C63.7166 98.3034 59.8927 101.064 59.8927 101.064C59.8927 101.064 59.1755 98.2912 62.5218 96.152C65.8671 94.0136 69.2434 88.6839 69.0044 87.1301Z" fill="#3ABDAA"/>
<path d="M59.9454 17.043C33.0575 17.043 29.4727 40.5192 29.4727 57.8198C29.4727 75.1208 38.4291 85.1675 45.4264 87.9734C45.4264 87.9734 34.2527 68.1719 39.7495 49.8403C44.247 34.8416 59.9454 39.2704 59.9454 39.2704C59.9454 39.2704 75.643 34.8411 80.141 49.8403C85.6377 68.1719 74.4641 87.9734 74.4641 87.9734C81.4618 85.1675 90.4182 75.1208 90.4182 57.8198C90.4182 40.5192 86.8334 17.043 59.9454 17.043Z" fill="#401900"/>
<path d="M69.0385 43.4129C69.0385 43.4129 58.9466 48.4718 50.0345 47.4563C41.1228 46.4403 37.6998 55.6797 38.2438 61.7944L35.2695 48.1852L40.6472 37.4181L55.9728 29.5312L70.4541 30.2004L77.3217 36.1635L83.1531 43.4129L87.2522 48.1852L85.2801 62.8717L81.1057 67.8921C81.1062 67.8921 84.8829 49.0491 69.0385 43.4129Z" fill="#401900"/>
</g>
<defs>
<clipPath id="clip0">
<rect width="84.0214" height="84.0214" fill="white" transform="translate(17.875 17.043)"/>
</clipPath>
</defs>
</svg>
