<svg width="119" height="119" viewBox="0 0 119 119" fill="none" xmlns="http://www.w3.org/2000/svg">
<circle cx="59.4061" cy="59.996" r="59.0038" fill="#F3D55C" fill-opacity="0.8"/>
<g clip-path="url(#clip0)">
<path d="M64.9943 79.2881H52.918V92.8138H64.9943V79.2881Z" fill="#FDCC9B"/>
<path d="M52.918 80.8813C52.918 80.8813 57.9979 84.1162 64.9943 83.3672V79.2881H52.918V80.8813Z" fill="#FCBC85"/>
<path d="M35.5058 65.0384C38.7601 65.0384 41.3983 62.0285 41.3983 58.3156C41.3983 54.6027 38.7601 51.5928 35.5058 51.5928C32.2514 51.5928 29.6133 54.6027 29.6133 58.3156C29.6133 62.0285 32.2514 65.0384 35.5058 65.0384Z" fill="#FCBC85"/>
<path d="M82.4081 65.0384C85.6625 65.0384 88.3007 62.0285 88.3007 58.3156C88.3007 54.6027 85.6625 51.5928 82.4081 51.5928C79.1538 51.5928 76.5156 54.6027 76.5156 58.3156C76.5156 62.0285 79.1538 65.0384 82.4081 65.0384Z" fill="#FCBC85"/>
<path d="M82.3835 45.4746C82.3835 35.572 75.1377 28.3267 58.9556 28.3267C42.7735 28.3267 35.5277 35.5724 35.5277 45.4746C35.5277 55.3772 33.8371 81.462 58.9556 81.462C84.074 81.462 82.3835 55.3777 82.3835 45.4746Z" fill="#FDCC9B"/>
<path d="M47.5478 59.4835C48.9484 59.4835 50.0838 58.2399 50.0838 56.7058C50.0838 55.1718 48.9484 53.9282 47.5478 53.9282C46.1471 53.9282 45.0117 55.1718 45.0117 56.7058C45.0117 58.2399 46.1471 59.4835 47.5478 59.4835Z" fill="#3B2519"/>
<path d="M46.442 56.238C46.8608 56.238 47.2004 55.8984 47.2004 55.4796C47.2004 55.0607 46.8608 54.7212 46.442 54.7212C46.0231 54.7212 45.6836 55.0607 45.6836 55.4796C45.6836 55.8984 46.0231 56.238 46.442 56.238Z" fill="white"/>
<path d="M43.4896 49.8222C44.6888 50.422 46.6144 47.7845 51.0222 50.079C51.8258 50.4972 52.3052 46.5015 47.5807 46.5015C43.4896 46.5015 42.7649 49.4602 43.4896 49.8222Z" fill="#86461B"/>
<path d="M70.6845 59.4835C72.0851 59.4835 73.2205 58.2399 73.2205 56.7058C73.2205 55.1718 72.0851 53.9282 70.6845 53.9282C69.2839 53.9282 68.1484 55.1718 68.1484 56.7058C68.1484 58.2399 69.2839 59.4835 70.6845 59.4835Z" fill="#3B2519"/>
<path d="M69.5787 56.238C69.9975 56.238 70.3371 55.8984 70.3371 55.4796C70.3371 55.0607 69.9975 54.7212 69.5787 54.7212C69.1599 54.7212 68.8203 55.0607 68.8203 55.4796C68.8203 55.8984 69.1599 56.238 69.5787 56.238Z" fill="white"/>
<path d="M74.427 49.8222C73.2278 50.422 71.3022 47.7845 66.8945 50.079C66.0909 50.4972 65.6115 46.5015 70.3364 46.5015C74.427 46.5015 75.1513 49.4602 74.427 49.8222Z" fill="#86461B"/>
<path d="M58.9568 66.4755C56.4508 66.4755 54.9414 64.6034 54.9414 65.5092C54.9414 66.4147 55.6661 68.1356 58.9568 68.1356C62.2476 68.1356 62.9723 66.4147 62.9723 65.5092C62.9723 64.6038 61.4625 66.4755 58.9568 66.4755Z" fill="#FCBC85"/>
<path d="M58.9554 74.8035C58.0886 74.8035 57.5664 74.156 57.5664 74.4695C57.5664 74.7829 57.817 75.3782 58.9554 75.3782C60.0938 75.3782 60.344 74.7829 60.344 74.4695C60.344 74.156 59.8219 74.8035 58.9554 74.8035Z" fill="#FCBC85"/>
<path d="M58.9587 72.4958C54.9868 72.4958 52.5938 70.8784 52.5938 71.2884C52.5938 71.698 53.7424 73.3113 58.9587 73.3113C64.175 73.3113 65.3237 71.698 65.3237 71.2884C65.3233 70.878 62.9306 72.4958 58.9587 72.4958Z" fill="#F7945E"/>
<path d="M58.9579 84.7227V99.9389H29.6133C29.6133 93.7802 45.0699 84.7227 58.9579 84.7227Z" fill="#D58E64"/>
<path d="M58.957 84.7227V99.9389H88.3013C88.3013 93.7802 72.8443 84.7227 58.957 84.7227Z" fill="#D58E64"/>
<path d="M58.9573 84.7227C56.0035 84.7227 52.979 85.1355 50.0469 85.8405C50.0666 85.8664 53.2994 90.0363 58.9573 90.0363C64.197 90.0363 67.6804 86.4654 68.1853 85.9157C65.1543 85.1635 62.0176 84.7227 58.9573 84.7227Z" fill="#BF805A"/>
<path d="M52.918 85.2494C52.918 85.2494 54.6841 87.4399 58.9559 87.4399C63.2277 87.4399 64.9943 85.2494 64.9943 85.2494C64.9943 85.2494 58.7295 82.9689 52.918 85.2494Z" fill="#FDCC9B"/>
<path d="M58.9575 76.2994V81.915C46.3381 81.915 42.1723 75.1865 40.9381 73.3111C40.0232 71.9196 46.8754 78.2016 52.9195 78.2016C55.5764 78.2016 55.4556 76.2994 58.9575 76.2994Z" fill="#86461B"/>
<path d="M58.957 76.2994V81.915C71.5768 81.915 75.7426 75.1865 76.9764 73.3111C77.8913 71.9196 71.0391 78.2016 64.995 78.2016C62.3386 78.2016 62.4593 76.2994 58.957 76.2994Z" fill="#86461B"/>
<path d="M59.1174 38.9537V19.1489C38.4289 19.1489 34.5646 26.8778 33.5984 41.369C32.6321 55.8605 34.8136 60.8492 36.2589 60.8307C37.7042 60.8118 36.9273 44.2168 38.912 40.6443C42.5351 34.1232 49.0114 38.9537 59.1174 38.9537Z" fill="#86461B"/>
<path d="M59.1172 38.9537V19.1489C79.8056 19.1489 83.6699 26.8778 84.6362 41.369C85.6024 55.8605 83.4209 60.8492 81.9756 60.8307C80.5303 60.8118 81.3072 44.2168 79.3225 40.6443C75.6998 34.1232 69.2231 38.9537 59.1172 38.9537Z" fill="#86461B"/>
<path d="M46.0937 86.9805C36.9708 90.0625 29.6133 95.6896 29.6133 99.9388H46.0945V86.9805H46.0937Z" fill="#744A25"/>
<path d="M46.9717 99.9388V86.0508C46.9717 86.0508 44.6169 86.9567 43.8018 87.379L41.3984 99.9384H46.9717V99.9388Z" fill="#573514"/>
<path d="M71.8211 86.9805C80.944 90.0625 88.3015 95.6896 88.3015 99.9388H71.8203V86.9805H71.8211Z" fill="#744A25"/>
<path d="M70.9453 99.9388V86.0508C70.9453 86.0508 73.3002 86.9567 74.1153 87.379L76.5186 99.9384H70.9453V99.9388Z" fill="#573514"/>
</g>
<defs>
<clipPath id="clip0">
<rect width="80.7898" height="80.7898" fill="white" transform="translate(18.5625 19.1489)"/>
</clipPath>
</defs>
</svg>
