<svg width="119" height="119" viewBox="0 0 119 119" fill="none" xmlns="http://www.w3.org/2000/svg">
<circle cx="59.9413" cy="59.996" r="59.0038" fill="#FFE14D" fill-opacity="0.8"/>
<g clip-path="url(#clip0)">
<path d="M66.1692 81.6743H53.7266V95.6099H66.1692V81.6743Z" fill="#FDCC9B"/>
<path d="M53.7266 83.3154C53.7266 83.3154 58.9605 86.6483 66.1692 85.8763V81.6738H53.7266V83.3154Z" fill="#FCBC85"/>
<path d="M35.7861 66.9921C39.1391 66.9921 41.8573 63.8909 41.8573 60.0654C41.8573 56.2399 39.1391 53.1387 35.7861 53.1387C32.433 53.1387 29.7148 56.2399 29.7148 60.0654C29.7148 63.8909 32.433 66.9921 35.7861 66.9921Z" fill="#EAC7A8"/>
<path d="M84.1142 66.9921C87.4673 66.9921 90.1855 63.8909 90.1855 60.0654C90.1855 56.2399 87.4673 53.1387 84.1142 53.1387C80.7612 53.1387 78.043 56.2399 78.043 60.0654C78.043 63.8909 80.7612 66.9921 84.1142 66.9921Z" fill="#EAC7A8"/>
<path d="M84.0868 46.8351C84.0868 36.6325 76.6212 29.1665 59.9482 29.1665C43.2752 29.1665 35.8097 36.6321 35.8097 46.8351C35.8097 57.038 34.0678 83.914 59.9482 83.914C85.8286 83.914 84.0868 57.038 84.0868 46.8351Z" fill="#EAC7A8"/>
<path d="M48.1911 61.2682C49.6342 61.2682 50.8041 59.9869 50.8041 58.4063C50.8041 56.8257 49.6342 55.5444 48.1911 55.5444C46.748 55.5444 45.5781 56.8257 45.5781 58.4063C45.5781 59.9869 46.748 61.2682 48.1911 61.2682Z" fill="#3B2519"/>
<path d="M47.0509 57.9241C47.4825 57.9241 47.8323 57.5743 47.8323 57.1427C47.8323 56.7112 47.4825 56.3613 47.0509 56.3613C46.6194 56.3613 46.2695 56.7112 46.2695 57.1427C46.2695 57.5743 46.6194 57.9241 47.0509 57.9241Z" fill="white"/>
<path d="M44.0128 51.314C45.2484 51.932 47.2323 49.2145 51.7738 51.5786C52.6017 52.0095 53.0957 47.8926 48.2279 47.8926C44.0128 47.8926 43.2661 50.9411 44.0128 51.314Z" fill="#51362A"/>
<path d="M72.0309 61.2682C73.474 61.2682 74.6439 59.9869 74.6439 58.4063C74.6439 56.8257 73.474 55.5444 72.0309 55.5444C70.5878 55.5444 69.418 56.8257 69.418 58.4063C69.418 59.9869 70.5878 61.2682 72.0309 61.2682Z" fill="#3B2519"/>
<path d="M70.8908 57.9241C71.3223 57.9241 71.6722 57.5743 71.6722 57.1427C71.6722 56.7112 71.3223 56.3613 70.8908 56.3613C70.4592 56.3613 70.1094 56.7112 70.1094 57.1427C70.1094 57.5743 70.4592 57.9241 70.8908 57.9241Z" fill="white"/>
<path d="M75.8899 51.314C74.6543 51.932 72.6703 49.2145 68.1289 51.5786C67.3009 52.0095 66.8069 47.8926 71.6752 47.8926C75.8899 47.8926 76.6362 50.9411 75.8899 51.314Z" fill="#51362A"/>
<path d="M59.9497 68.4728C57.3677 68.4728 55.8125 66.5443 55.8125 67.4772C55.8125 68.4105 56.5592 70.1837 59.9497 70.1837C63.3403 70.1837 64.087 68.4105 64.087 67.4772C64.087 66.5438 62.5314 68.4728 59.9497 68.4728Z" fill="#FCBC85"/>
<path d="M59.9468 77.053C59.0536 77.053 58.5156 76.3859 58.5156 76.7089C58.5156 77.0319 58.7738 77.6448 59.9468 77.6448C61.1197 77.6448 61.3775 77.0319 61.3775 76.7089C61.3775 76.3859 60.8395 77.053 59.9468 77.053Z" fill="#FCBC85"/>
<path d="M59.9487 74.675C55.8563 74.675 53.3906 73.0085 53.3906 73.4309C53.3906 73.8534 54.5741 75.5152 59.9487 75.5152C65.3232 75.5152 66.5067 73.8534 66.5067 73.4309C66.5063 73.0085 64.041 74.675 59.9487 74.675Z" fill="#F7945E"/>
<path d="M59.9492 87.2729V102.951H29.7148C29.7148 96.6048 45.6403 87.2729 59.9492 87.2729Z" fill="#2BA3FF"/>
<path d="M59.9492 87.2729V102.951H90.1836C90.1836 96.6048 74.2581 87.2729 59.9492 87.2729Z" fill="#2BA3FF"/>
<path d="M59.9503 87.2729C56.9068 87.2729 53.7906 87.6984 50.7695 88.4243C50.7898 88.451 54.1203 92.7478 59.9503 92.7478C65.3489 92.7478 68.938 89.0681 69.4582 88.5022C66.3352 87.7271 63.1038 87.2729 59.9503 87.2729Z" fill="#B51717"/>
<path d="M53.7266 87.8158C53.7266 87.8158 55.5463 90.0728 59.9477 90.0728C64.349 90.0728 66.1692 87.8158 66.1692 87.8158C66.1692 87.8158 59.7148 85.4661 53.7266 87.8158Z" fill="#FDCC9B"/>
<path d="M79.7947 26.9892C79.7947 26.9892 70.8362 15.6044 52.2165 19.897C33.5973 24.1892 32.2021 35.3877 32.7621 46.2828C33.3221 57.1783 34.8151 63.57 36.581 62.7801C38.347 61.9898 37.428 54.7981 37.6147 53.1384C37.8014 51.4787 39.481 43.9729 50.8053 45.0929C62.1291 46.213 71.6718 42.1066 71.6718 42.1066C71.6718 42.1066 75.5131 46.9622 78.041 47.8926C83.0926 49.7512 81.4358 62.1447 83.4151 62.1447C85.3944 62.1447 95.0992 33.5215 79.7947 26.9892Z" fill="black"/>
</g>
<defs>
<clipPath id="clip0">
<rect width="84.0214" height="84.0214" fill="white" transform="translate(17.9375 18.9297)"/>
</clipPath>
</defs>
</svg>
