<svg width="119" height="119" viewBox="0 0 119 119" fill="none" xmlns="http://www.w3.org/2000/svg">
<circle cx="59.3436" cy="59.996" r="59.0038" fill="#E746B0" fill-opacity="0.8"/>
<g clip-path="url(#clip0)">
<path d="M34.2954 76.7139C37.0105 84.2873 32.7539 98.2259 32.7539 98.2259H57.3626V55.4038L30.3555 60.5803C30.3559 60.5799 31.8406 69.8661 34.2954 76.7139Z" fill="#432B1F"/>
<path d="M80.4539 76.7139C77.7388 84.2873 81.9957 98.2259 81.9957 98.2259H57.3867V55.4038L84.3934 60.5803C84.3934 60.5799 82.9091 69.8661 80.4539 76.7139Z" fill="#432B1F"/>
<path d="M63.0717 80.4121H51.6523V93.2016H63.0717V80.4121Z" fill="#FDCC9B"/>
<path d="M51.6523 81.9186C51.6523 81.9186 56.4559 84.9776 63.0717 84.269V80.4121H51.6523V81.9186Z" fill="#FCBC85"/>
<path d="M35.1852 66.9373C38.2626 66.9373 40.7572 64.0911 40.7572 60.5802C40.7572 57.0693 38.2626 54.2231 35.1852 54.2231C32.1079 54.2231 29.6133 57.0693 29.6133 60.5802C29.6133 64.0911 32.1079 66.9373 35.1852 66.9373Z" fill="#FCBC85"/>
<path d="M79.5368 66.9373C82.6141 66.9373 85.1088 64.0911 85.1088 60.5802C85.1088 57.0693 82.6141 54.2231 79.5368 54.2231C76.4595 54.2231 73.9648 57.0693 73.9648 60.5802C73.9648 64.0911 76.4595 66.9373 79.5368 66.9373Z" fill="#FCBC85"/>
<path d="M79.5165 48.4382C79.5165 39.0747 72.6649 32.2227 57.3634 32.2227C42.0612 32.2227 35.21 39.0743 35.21 48.4382C35.21 57.8021 33.6114 82.4678 57.3634 82.4678C81.1151 82.4675 79.5165 57.8021 79.5165 48.4382Z" fill="#FDCC9B"/>
<path d="M46.57 61.6842C47.8944 61.6842 48.9681 60.5082 48.9681 59.0577C48.9681 57.6071 47.8944 56.4312 46.57 56.4312C45.2455 56.4312 44.1719 57.6071 44.1719 59.0577C44.1719 60.5082 45.2455 61.6842 46.57 61.6842Z" fill="#3B2519"/>
<path d="M45.5218 58.6149C45.9179 58.6149 46.239 58.2939 46.239 57.8978C46.239 57.5017 45.9179 57.1807 45.5218 57.1807C45.1258 57.1807 44.8047 57.5017 44.8047 57.8978C44.8047 58.2939 45.1258 58.6149 45.5218 58.6149Z" fill="white"/>
<path d="M42.734 53.3949C43.8676 53.8292 45.6888 51.9195 49.8564 53.5806C50.6162 53.8836 51.07 50.9902 46.6021 50.9902C42.734 50.9902 42.0487 53.1327 42.734 53.3949Z" fill="#51362A"/>
<path d="M68.445 61.6842C69.7694 61.6842 70.8431 60.5082 70.8431 59.0577C70.8431 57.6071 69.7694 56.4312 68.445 56.4312C67.1205 56.4312 66.0469 57.6071 66.0469 59.0577C66.0469 60.5082 67.1205 61.6842 68.445 61.6842Z" fill="#3B2519"/>
<path d="M67.3972 58.6152C67.7935 58.6152 68.1147 58.294 68.1147 57.8977C68.1147 57.5014 67.7935 57.1802 67.3972 57.1802C67.0009 57.1802 66.6797 57.5014 66.6797 57.8977C66.6797 58.294 67.0009 58.6152 67.3972 58.6152Z" fill="white"/>
<path d="M71.989 53.3949C70.855 53.8292 69.0346 51.9195 64.8663 53.5806C64.1068 53.8836 63.653 50.9902 68.1209 50.9902C71.989 50.9902 72.6739 53.1327 71.989 53.3949Z" fill="#51362A"/>
<path d="M57.3634 68.2961C54.9937 68.2961 53.5664 66.5261 53.5664 67.3823C53.5664 68.2389 54.2517 69.8663 57.3634 69.8663C60.4751 69.8663 61.16 68.2389 61.16 67.3823C61.1604 66.5261 59.7331 68.2961 57.3634 68.2961Z" fill="#FCBC85"/>
<path d="M57.3603 76.1708C56.541 76.1708 56.0469 75.5585 56.0469 75.8549C56.0469 76.1514 56.2838 76.7139 57.3603 76.7139C58.4368 76.7139 58.6738 76.1514 58.6738 75.8549C58.6738 75.5585 58.18 76.1708 57.3603 76.1708Z" fill="#FCBC85"/>
<path d="M57.3625 73.9889C53.6066 73.9889 51.3438 72.4598 51.3438 72.8471C51.3438 73.2348 52.4299 74.76 57.3625 74.76C62.295 74.76 63.3808 73.2348 63.3808 72.8471C63.3808 72.4594 61.1183 73.9889 57.3625 73.9889Z" fill="#F7945E"/>
<path d="M43.4851 70.7057C45.2827 70.7057 46.7398 69.2485 46.7398 67.451C46.7398 65.6535 45.2827 64.1963 43.4851 64.1963C41.6876 64.1963 40.2305 65.6535 40.2305 67.451C40.2305 69.2485 41.6876 70.7057 43.4851 70.7057Z" fill="#F9AA8D"/>
<path d="M71.6371 70.7054C73.4344 70.7054 74.8914 69.2484 74.8914 67.4511C74.8914 65.6538 73.4344 64.1968 71.6371 64.1968C69.8398 64.1968 68.3828 65.6538 68.3828 67.4511C68.3828 69.2484 69.8398 70.7054 71.6371 70.7054Z" fill="#F9AA8D"/>
<path d="M57.3592 85.5508V99.9393H32.3516C32.3516 94.1152 44.227 85.5508 57.3592 85.5508Z" fill="#694B74"/>
<path d="M57.3594 85.5508V99.9393H82.3666C82.3666 94.1152 70.4915 85.5508 57.3594 85.5508Z" fill="#694B74"/>
<path d="M57.2861 85.5508C54.4615 85.5508 51.5697 85.9412 48.7656 86.6074C48.7847 86.6319 51.8758 90.5754 57.2861 90.5754C62.2968 90.5754 65.6276 87.1983 66.1105 86.6789C63.2124 85.9676 60.2129 85.5508 57.2861 85.5508Z" fill="#563C60"/>
<path d="M51.6523 86.0484C51.6523 86.0484 53.3224 88.1198 57.3618 88.1198C61.4012 88.1198 63.0713 86.0484 63.0713 86.0484C63.0713 86.0484 57.1478 83.8916 51.6523 86.0484Z" fill="#FDCC9B"/>
<path d="M77.4579 28.6826C63.0694 11.5534 35.6633 18.405 29.6116 42.0432C23.5602 65.681 34.2928 76.7139 34.2928 76.7139C30.1772 62.7834 39.7742 48.3809 47.996 48.2096C56.2182 48.0382 69.2361 43.4134 69.2361 43.4134C69.2361 43.4134 71.4213 54.5325 78.4858 58.6154C83.796 61.6844 81.779 70.7056 80.4084 76.7139C85.5468 74.7594 100.753 35.7056 77.4579 28.6826Z" fill="#51362A"/>
</g>
<defs>
<clipPath id="clip0">
<rect width="80.7898" height="80.7898" fill="white" transform="translate(18.5078 19.1489)"/>
</clipPath>
</defs>
</svg>
