<svg width="119" height="119" viewBox="0 0 119 119" fill="none" xmlns="http://www.w3.org/2000/svg">
<circle cx="59.0038" cy="59.9037" r="59.0038" fill="#2026A2" fill-opacity="0.8"/>
<g clip-path="url(#clip0)">
<path d="M33.4179 77.7601C36.2416 85.6365 31.8147 100.133 31.8147 100.133H57.4077V55.5977L29.3203 60.9812C29.3207 60.9808 30.8649 70.6385 33.4179 77.7601Z" fill="#0F171E"/>
<path d="M81.4234 77.7601C78.5997 85.6365 83.027 100.133 83.027 100.133H57.4336V55.5977L85.5206 60.9812C85.5206 60.9808 83.9768 70.6385 81.4234 77.7601Z" fill="#0E1111"/>
<path d="M63.3449 81.6064H51.4688V94.9076H63.3449V81.6064Z" fill="#FDCC9B"/>
<path d="M51.4688 83.1732C51.4688 83.1732 56.4644 86.3545 63.3449 85.6175V81.6064H51.4688V83.1732Z" fill="#FCBC85"/>
<path d="M34.3456 67.5924C37.546 67.5924 40.1405 64.6323 40.1405 60.981C40.1405 57.3296 37.546 54.3696 34.3456 54.3696C31.1452 54.3696 28.5508 57.3296 28.5508 60.981C28.5508 64.6323 31.1452 67.5924 34.3456 67.5924Z" fill="#FCBC85"/>
<path d="M80.4706 67.5924C83.671 67.5924 86.2655 64.6323 86.2655 60.981C86.2655 57.3296 83.671 54.3696 80.4706 54.3696C77.2702 54.3696 74.6758 57.3296 74.6758 60.981C74.6758 64.6323 77.2702 67.5924 80.4706 67.5924Z" fill="#FCBC85"/>
<path d="M80.4498 48.3534C80.4498 38.6153 73.3241 31.4893 57.4106 31.4893C41.4963 31.4893 34.3711 38.6149 34.3711 48.3534C34.3711 58.0919 32.7085 83.7443 57.4106 83.7443C82.1124 83.7439 80.4498 58.0919 80.4498 48.3534Z" fill="#FDCC9B"/>
<path d="M46.1854 62.1296C47.5628 62.1296 48.6794 60.9067 48.6794 59.3981C48.6794 57.8895 47.5628 56.6665 46.1854 56.6665C44.808 56.6665 43.6914 57.8895 43.6914 59.3981C43.6914 60.9067 44.808 62.1296 46.1854 62.1296Z" fill="#3B2519"/>
<path d="M45.0974 58.9379C45.5093 58.9379 45.8432 58.604 45.8432 58.1921C45.8432 57.7802 45.5093 57.4463 45.0974 57.4463C44.6855 57.4463 44.3516 57.7802 44.3516 58.1921C44.3516 58.604 44.6855 58.9379 45.0974 58.9379Z" fill="white"/>
<path d="M42.1965 53.5087C43.3754 53.9604 45.2694 51.9742 49.6038 53.7018C50.394 54.0169 50.8659 51.0078 46.2193 51.0078C42.1965 51.0078 41.4838 53.236 42.1965 53.5087Z" fill="#51362A"/>
<path d="M68.9393 62.1296C70.3167 62.1296 71.4333 60.9067 71.4333 59.3981C71.4333 57.8895 70.3167 56.6665 68.9393 56.6665C67.5619 56.6665 66.4453 57.8895 66.4453 59.3981C66.4453 60.9067 67.5619 62.1296 68.9393 62.1296Z" fill="#3B2519"/>
<path d="M67.8517 58.9382C68.2638 58.9382 68.5979 58.6041 68.5979 58.192C68.5979 57.7799 68.2638 57.4458 67.8517 57.4458C67.4396 57.4458 67.1055 57.7799 67.1055 58.192C67.1055 58.6041 67.4396 58.9382 67.8517 58.9382Z" fill="white"/>
<path d="M72.6215 53.5087C71.4422 53.9604 69.549 51.9742 65.2139 53.7018C64.424 54.0169 63.9521 51.0078 68.5987 51.0078C72.6215 51.0078 73.3338 53.236 72.6215 53.5087Z" fill="#51362A"/>
<path d="M57.4098 69.0055C54.9453 69.0055 53.4609 67.1648 53.4609 68.0553C53.4609 68.9461 54.1736 70.6386 57.4098 70.6386C60.646 70.6386 61.3583 68.9461 61.3583 68.0553C61.3587 67.1648 59.8743 69.0055 57.4098 69.0055Z" fill="#FCBC85"/>
<path d="M57.409 77.1954C56.5569 77.1954 56.043 76.5587 56.043 76.867C56.043 77.1752 56.2894 77.7603 57.409 77.7603C58.5285 77.7603 58.7749 77.1752 58.7749 76.867C58.7749 76.5587 58.2614 77.1954 57.409 77.1954Z" fill="#FCBC85"/>
<path d="M57.4079 74.9262C53.5018 74.9262 51.1484 73.336 51.1484 73.7388C51.1484 74.142 52.2781 75.7282 57.4079 75.7282C62.5377 75.7282 63.667 74.142 63.667 73.7388C63.667 73.3356 61.314 74.9262 57.4079 74.9262Z" fill="#F7945E"/>
<path d="M42.9786 71.5114C44.848 71.5114 46.3635 69.996 46.3635 68.1266C46.3635 66.2572 44.848 64.7417 42.9786 64.7417C41.1092 64.7417 39.5938 66.2572 39.5938 68.1266C39.5938 69.996 41.1092 71.5114 42.9786 71.5114Z" fill="#F9AA8D"/>
<path d="M72.2556 71.5111C74.1248 71.5111 75.64 69.9958 75.64 68.1266C75.64 66.2575 74.1248 64.7422 72.2556 64.7422C70.3864 64.7422 68.8711 66.2575 68.8711 68.1266C68.8711 69.9958 70.3864 71.5111 72.2556 71.5111Z" fill="#F9AA8D"/>
<path d="M57.4063 86.9502V101.914H31.3984C31.3984 95.8572 43.7489 86.9502 57.4063 86.9502Z" fill="#E746B0"/>
<path d="M57.4062 86.9502V101.914H83.4138C83.4138 95.8572 71.0637 86.9502 57.4062 86.9502Z" fill="#E746B0"/>
<path d="M57.3301 86.9502C54.3925 86.9502 51.385 87.3562 48.4688 88.0491C48.4885 88.0746 51.7033 92.1758 57.3301 92.1758C62.5411 92.1758 66.0052 88.6636 66.5074 88.1235C63.4934 87.3837 60.374 86.9502 57.3301 86.9502Z" fill="white"/>
<path d="M51.4688 87.4681C51.4688 87.4681 53.2056 89.6224 57.4066 89.6224C61.6076 89.6224 63.3445 87.4681 63.3445 87.4681C63.3445 87.4681 57.184 85.225 51.4688 87.4681Z" fill="#FDCC9B"/>
<path d="M78.309 27.8076C63.345 9.99323 34.8427 17.1189 28.5489 41.7026C22.2555 66.286 33.4173 77.7601 33.4173 77.7601C29.1371 63.2724 39.118 48.2938 47.6686 48.1156C56.2197 47.9375 69.7584 43.1276 69.7584 43.1276C69.7584 43.1276 72.031 54.6914 79.3781 58.9377C84.9006 62.1294 82.8029 71.5116 81.3775 77.7601C86.7215 75.7275 102.536 35.1115 78.309 27.8076Z" fill="#0E1111"/>
</g>
<defs>
<clipPath id="clip0">
<rect width="84.0214" height="84.0214" fill="white" transform="translate(17 17.8926)"/>
</clipPath>
</defs>
</svg>
