<svg width="180" height="345" viewBox="0 0 180 345" fill="none" xmlns="http://www.w3.org/2000/svg">
<path fill-rule="evenodd" clip-rule="evenodd" d="M75.0485 47.7626C72.5465 42.5003 71.483 36.5878 73.4722 30.8151C79.2038 14.1822 101.802 24.2342 104.099 34.0198C106.397 43.8054 100.036 65.3615 93.6944 65.3011C91.1652 65.277 86.5256 62.4327 82.2246 57.9666L79.341 81.607L60.3303 76.5131L75.0485 47.7626Z" fill="#D4A181"/>
<path fill-rule="evenodd" clip-rule="evenodd" d="M81.9475 48.3335C78.3776 52.2269 74.2041 54.7609 70.9468 53.8881C64.7599 52.2303 62.5772 42.7798 64.9602 33.8862C65.044 33.5737 65.1333 33.265 65.2281 32.9602C57.48 35.6977 50.064 43.1987 41.4043 40.8783C29.6228 37.7215 31.3113 12.7044 47.7717 17.115C58.966 20.1145 64.0351 23.2221 68.1338 26.9072C69.7768 24.5193 71.7984 22.6833 73.9587 21.6017C74.5052 21.2416 75.27 20.9619 76.2127 20.7652C76.7948 20.6235 77.3807 20.538 77.9663 20.5125C81.11 20.2276 85.4541 20.5965 90.1278 21.6755C91.0006 21.877 91.8521 22.0957 92.6776 22.3288C93.8602 17.9692 98.348 15.3852 102.714 16.5552C107.089 17.7274 109.685 22.224 108.513 26.5987C107.379 30.8295 103.137 33.3968 98.9017 32.501C96.3158 32.5979 93.1021 32.3168 89.6379 31.6331C89.6353 32.9642 89.4367 34.4238 89.0092 36.019C88.6318 37.4275 88.0761 38.8796 87.3835 40.3196C86.8804 39.2445 86.0469 38.4076 85.0452 38.1392C82.2431 37.3883 79.6749 39.1709 79.0191 41.6184C78.1867 44.7246 79.3779 47.4523 81.9475 48.3335Z" fill="#191847"/>
<path fill-rule="evenodd" clip-rule="evenodd" d="M36.082 149.007L66.1213 252.52L80.2503 330.239H94.4315L80.2756 149.007H36.082Z" fill="#BA8B72"/>
<path fill-rule="evenodd" clip-rule="evenodd" d="M22.5816 149.007C24.6777 202.781 23.851 232.111 23.3819 236.997C22.9128 241.883 20.2496 274.603 2.10156 331.879H16.8513C40.8853 276.933 49.2754 244.212 52.0319 236.997C54.7884 229.782 62.9297 200.452 74.8155 149.007H22.5816Z" fill="#D4A181"/>
<path fill-rule="evenodd" clip-rule="evenodd" d="M35.4375 149.007C43.2512 184.626 56.7655 241.483 75.9805 319.578H96.7221C98.2542 239.421 91.7371 186.664 80.4511 149.007H35.4375Z" fill="#69A1AC"/>
<path fill-rule="evenodd" clip-rule="evenodd" d="M22.4769 149.007C24.5297 202.781 19.2097 255.759 2.73047 320.415H24.8607C48.9389 266.289 66.1966 213.573 77.991 149.007H22.4769Z" fill="#89C5CC"/>
<path fill-rule="evenodd" clip-rule="evenodd" d="M0 342.54L0.81384 329.419C5.57876 330.813 11.5469 330.266 18.7183 327.779C26.4293 333.241 36.1364 336.971 47.8397 338.968C48.7326 339.12 49.3329 339.967 49.1806 340.86C49.1707 340.918 49.1577 340.975 49.1417 341.032L48.0166 345H18.7183H1.62768L0 342.54Z" fill="#191847"/>
<path fill-rule="evenodd" clip-rule="evenodd" d="M77.0859 342.54L77.8998 329.419C82.6647 330.813 88.6329 330.266 95.8043 327.779C103.515 333.241 113.222 336.971 124.926 338.968C125.819 339.12 126.419 339.967 126.266 340.86C126.257 340.918 126.244 340.975 126.228 341.032L125.103 345H95.8043H78.7136L77.0859 342.54Z" fill="#191847"/>
<path fill-rule="evenodd" clip-rule="evenodd" d="M94.7581 102.907L125.497 92.4967C131.134 87.7832 136.485 84.2939 141.549 82.029C143.034 81.6956 145.513 81.7725 142.544 85.3867C139.576 89.0009 136.616 92.936 137.55 94.3754C138.484 95.8147 141.66 94.5942 142.672 96.8905C143.347 98.4214 138.059 99.7194 126.807 100.785L103.151 115.842L94.7581 102.907ZM136.377 123.601L149.882 119.008C152.769 112.739 155.418 109.796 157.828 110.178C159.825 109.645 155.146 117.385 158.772 117.281C162.398 117.178 172.058 112.332 173.303 113.881C175.143 116.173 172.169 121.689 169.368 124.2C164.133 128.893 160.265 130.132 151.087 131.029C146.288 131.498 140.892 133.182 134.899 136.082L136.377 123.601Z" fill="#D4A181"/>
<path fill-rule="evenodd" clip-rule="evenodd" d="M81.7116 97.0792C91.5483 98.7067 105.007 98.9416 120.541 92.5372L123.87 105.74C112.547 113.604 97.6121 119.072 85.8233 116.65C76.5331 114.742 73.7526 102.607 81.7116 97.0792Z" fill="#2026A2"/>
<path fill-rule="evenodd" clip-rule="evenodd" d="M91.4712 119.032C101.436 123.469 119.456 123.486 145.531 119.081C149.397 132.745 150.628 142.217 149.223 147.498C126.237 154.781 107.333 156.502 92.413 154.205C91.3303 163.107 88.7773 171.309 83.8194 178.341C73.6269 192.796 32.793 170.544 17.6912 170.844C13.7853 139.55 33.5845 130.603 36.9477 111.612C40.6307 90.8158 62.9766 61.7458 65.4337 62.1791L87.8419 66.1302C86.2774 82.2329 89.4137 100.836 91.4712 119.032Z" fill="#1F28CF"/>
</svg>
