<svg width="16" height="15" viewBox="0 0 16 15" fill="none" xmlns="http://www.w3.org/2000/svg">
<path d="M14.3659 6.52C14.6259 6.52 14.8459 6.61 15.0259 6.79C15.2259 6.97 15.3259 7.19 15.3259 7.45C15.3259 7.71 15.2359 7.94 15.0559 8.14C14.8759 8.32 14.6459 8.41 14.3659 8.41H8.93586V13.81C8.93586 14.09 8.84586 14.32 8.66586 14.5C8.48586 14.68 8.26586 14.77 8.00586 14.77C7.74586 14.77 7.52586 14.68 7.34586 14.5C7.16586 14.3 7.07586 14.07 7.07586 13.81V8.41H1.64586C1.38586 8.41 1.15586 8.32 0.95586 8.14C0.775859 7.94 0.685859 7.71 0.685859 7.45C0.685859 7.19 0.775859 6.97 0.95586 6.79C1.15586 6.61 1.38586 6.52 1.64586 6.52H7.07586V1.12C7.07586 0.839999 7.16586 0.609998 7.34586 0.429998C7.52586 0.229999 7.74586 0.129999 8.00586 0.129999C8.26586 0.129999 8.48586 0.229999 8.66586 0.429998C8.84586 0.609998 8.93586 0.839999 8.93586 1.12V6.52H14.3659Z" fill="#0F79AF"/>
</svg>
