<svg width="18" height="18" viewBox="0 0 18 18" fill="none" xmlns="http://www.w3.org/2000/svg">
<path d="M17.5845 11.367L15.6856 9.87748C15.7215 9.58946 15.7485 9.29698 15.7485 8.99998C15.7485 8.70298 15.7215 8.41049 15.6856 8.12248L17.5891 6.63297C17.76 6.49796 17.8096 6.25497 17.6971 6.05698L15.897 2.93848C15.7845 2.74497 15.5506 2.66397 15.3481 2.74497L13.1071 3.64947C12.6435 3.29395 12.1351 2.99248 11.5861 2.76298L11.2486 0.378C11.208 0.166514 11.0235 0 10.7986 0H7.19858C6.97359 0 6.78906 0.166514 6.75308 0.378L6.41558 2.76298C5.86659 2.99248 5.35806 3.28948 4.89459 3.64947L2.65359 2.74497C2.45109 2.66848 2.21708 2.74497 2.10461 2.93848L0.304553 6.05698C0.192039 6.25049 0.241568 6.49349 0.412553 6.63297L2.31154 8.12248C2.27555 8.41049 2.24855 8.70298 2.24855 8.99998C2.24855 9.29698 2.27555 9.58946 2.31154 9.87748L0.412553 11.367C0.241568 11.502 0.192039 11.745 0.304553 11.943L2.10457 15.0615C2.21708 15.255 2.45105 15.336 2.65355 15.255L4.89455 14.3505C5.35806 14.706 5.86655 15.0075 6.41554 15.237L6.75304 17.622C6.78902 17.8334 6.97355 18 7.19854 18H10.7985C11.0235 18 11.208 17.8334 11.244 17.622L11.5815 15.237C12.1305 15.0075 12.639 14.7105 13.1025 14.3505L15.3435 15.255C15.546 15.3315 15.78 15.255 15.8925 15.0615L17.6925 11.943C17.8051 11.7495 17.7555 11.5065 17.5845 11.367ZM8.99855 12.15C7.25705 12.15 5.84854 10.7415 5.84854 8.99998C5.84854 7.25848 7.25705 5.85001 8.99855 5.85001C10.74 5.85001 12.1486 7.25852 12.1486 9.00002C12.1486 10.7415 10.74 12.15 8.99855 12.15Z" fill="black"/>
</svg>
