<svg width="118" height="118" viewBox="0 0 118 118" fill="none" xmlns="http://www.w3.org/2000/svg">
<g clip-path="url(#clip0)">
<path d="M14.7499 44.251C10.679 44.251 7.375 47.5549 7.375 51.6259V81.1255C7.375 85.1964 10.679 88.5004 14.7499 88.5004C18.8208 88.5004 22.1248 85.1964 22.1248 81.1255V51.6259C22.1248 47.5549 18.8208 44.251 14.7499 44.251Z" fill="#8BC34A"/>
<path d="M103.25 44.251C99.179 44.251 95.875 47.5549 95.875 51.6259V81.1255C95.875 85.1964 99.179 88.5004 103.25 88.5004C107.321 88.5004 110.625 85.1964 110.625 81.1255V51.6259C110.625 47.5549 107.321 44.251 103.25 44.251Z" fill="#8BC34A"/>
<path d="M29.5 88.9281C29.5 92.999 32.804 96.303 36.8749 96.303V110.625C36.8749 114.696 40.1789 118 44.2498 118C48.3207 118 51.6247 114.696 51.6247 110.625V96.303H66.3745V110.625C66.3745 114.696 69.6784 118 73.7494 118C77.8203 118 81.1243 114.696 81.1243 110.625V96.303C85.1952 96.303 88.4992 92.999 88.4992 88.9281V44.6787H29.5V88.9281Z" fill="#8BC34A"/>
<path d="M77.4073 13.9918L83.971 6.03431C85.269 4.46345 85.0477 2.14036 83.4769 0.842376C81.8987 -0.448231 79.5829 -0.234359 78.285 1.33649L71.1092 10.0315C67.407 8.3574 63.3287 7.37654 58.9996 7.37654C54.6115 7.37654 50.4816 8.39427 46.7425 10.12L39.7585 1.38812C38.4826 -0.197484 36.1669 -0.462981 34.5739 0.812877C32.9883 2.08873 32.7302 4.40445 33.9987 5.99743L40.4738 14.0951C33.8291 19.5009 29.5 27.6428 29.5 36.8761H88.4992C88.4992 27.5838 84.1185 19.3976 77.4073 13.9918ZM51.6247 25.8138C49.5892 25.8138 47.9372 24.1618 47.9372 22.1263C47.9372 20.0909 49.5892 18.4389 51.6247 18.4389C53.6602 18.4389 55.3121 20.0909 55.3121 22.1263C55.3121 24.1618 53.6602 25.8138 51.6247 25.8138ZM66.3745 25.8138C64.339 25.8138 62.687 24.1618 62.687 22.1263C62.687 20.0909 64.339 18.4389 66.3745 18.4389C68.41 18.4389 70.0619 20.0909 70.0619 22.1263C70.0619 24.1618 68.41 25.8138 66.3745 25.8138Z" fill="#8BC34A"/>
</g>
<defs>
<clipPath id="clip0">
<rect width="118" height="118" fill="white"/>
</clipPath>
</defs>
</svg>
