<svg width="95" height="95" viewBox="0 0 95 95" fill="none" xmlns="http://www.w3.org/2000/svg">
<path d="M74.2883 94.9998H20.7077C18.5952 94.9998 16.8828 93.2874 16.8828 91.175V3.82486C16.8828 1.71241 18.5952 0 20.7077 0H74.2881C76.4007 0 78.1132 1.71241 78.1132 3.82486V91.1748C78.1132 93.2874 76.4007 94.9998 74.2883 94.9998Z" fill="#FF7B48"/>
<path d="M74.2873 0H68.5469C70.6604 0 72.3738 1.71167 72.3738 3.823V91.177C72.3738 93.2883 70.6604 95 68.5469 95H74.2873C76.4009 95 78.1142 93.2883 78.1142 91.177V3.823C78.1142 1.71167 76.4009 0 74.2873 0Z" fill="#FF5A51"/>
<path d="M22.6523 29.1722V22.2461C22.6523 21.8362 22.9847 21.5039 23.3945 21.5039H71.6082C72.0181 21.5039 72.3504 21.8362 72.3504 22.2461V29.1722C72.3504 29.5821 72.0181 29.9144 71.6082 29.9144H23.3945C22.9847 29.9144 22.6523 29.5821 22.6523 29.1722Z" fill="#E75955"/>
<path d="M22.6523 51.3145V36.1929C22.6523 35.783 22.9847 35.4507 23.3945 35.4507H46.7593C47.1692 35.4507 47.5015 35.783 47.5015 36.1929V51.3145C47.5015 51.7244 47.1692 52.0567 46.7593 52.0567H23.3945C22.9847 52.0567 22.6523 51.7244 22.6523 51.3145Z" fill="#FFBD2A"/>
<path d="M22.6523 72.9449V57.8232C22.6523 57.4134 22.9847 57.0811 23.3945 57.0811H46.7593C47.1692 57.0811 47.5015 57.4134 47.5015 57.8232V72.9449C47.5015 73.3548 47.1692 73.6871 46.7593 73.6871H23.3945C22.9847 73.6871 22.6523 73.3548 22.6523 72.9449Z" fill="#FF993B"/>
<path d="M54 72.9446V36.1997C54 35.7898 54.3323 35.4575 54.7422 35.4575H71.6078C72.0177 35.4575 72.35 35.7898 72.35 36.1997V72.9446C72.35 73.3545 72.0177 73.6868 71.6078 73.6868H54.7422C54.3323 73.6868 54 73.3545 54 72.9446Z" fill="#A85759"/>
<path d="M74.2883 94.9361H20.7077C18.5952 94.9361 16.8828 93.2237 16.8828 91.1112V83.4673H78.1132V91.1112C78.1132 93.2235 76.4007 94.9361 74.2883 94.9361Z" fill="#F1EBE0"/>
<path d="M72.3738 83.4673V91.1131C72.3738 93.2244 70.6604 94.9361 68.5469 94.9361H74.2873C76.4009 94.9361 78.1142 93.2246 78.1142 91.1131V83.4673H72.3738Z" fill="#E8E1D7"/>
<path d="M78.1132 11.4688H16.8828V3.82486C16.8828 1.71241 18.5952 0 20.7077 0H74.2881C76.4007 0 78.1132 1.71241 78.1132 3.82486V11.4688Z" fill="#F1EBE0"/>
<path d="M74.2873 0H68.5469C70.6604 0 72.3738 1.71167 72.3738 3.823V11.4688H78.1142V3.823C78.1142 1.71167 76.4009 0 74.2873 0Z" fill="#E8E1D7"/>
<path d="M51.8954 7.12597H43.1025C42.3338 7.12597 41.7109 6.50291 41.7109 5.73437C41.7109 4.96584 42.3338 4.34277 43.1025 4.34277H51.8954C52.6641 4.34277 53.287 4.96584 53.287 5.73437C53.287 6.50291 52.6641 7.12597 51.8954 7.12597Z" fill="#7A666C"/>
<path d="M38.0468 7.16785C38.8385 7.16785 39.4803 6.52603 39.4803 5.73431C39.4803 4.9426 38.8385 4.30078 38.0468 4.30078C37.2551 4.30078 36.6133 4.9426 36.6133 5.73431C36.6133 6.52603 37.2551 7.16785 38.0468 7.16785Z" fill="#6A545A"/>
<path d="M63.1733 90.6572H31.8252C31.0565 90.6572 30.4336 90.0342 30.4336 89.2656C30.4336 88.4971 31.0565 87.874 31.8252 87.874H63.1731C63.9418 87.874 64.5647 88.4971 64.5647 89.2656C64.5647 90.0342 63.9418 90.6572 63.1733 90.6572Z" fill="#7A666C"/>
</svg>
