<svg width="257" height="151" viewBox="0 0 257 151" fill="none" xmlns="http://www.w3.org/2000/svg">
<path fill-rule="evenodd" clip-rule="evenodd" d="M242.491 36.7788H142.18C134.472 36.7788 128.224 43.0273 128.224 50.7351V130.984C128.224 138.692 134.472 144.94 142.18 144.94H242.491C250.199 144.94 256.447 138.692 256.447 130.984V50.7351C256.447 43.0273 250.199 36.7788 242.491 36.7788ZM228.535 61.2024C230.462 61.2024 232.024 62.7645 232.024 64.6914V117.028C232.024 118.955 230.462 120.517 228.535 120.517H156.136C154.209 120.517 152.647 118.955 152.647 117.028V64.6914C152.647 62.7645 154.209 61.2024 156.136 61.2024H228.535Z" fill="#C5CFD6"/>
<path fill-rule="evenodd" clip-rule="evenodd" d="M41.73 140.579C58.9275 119.578 70.5638 104.009 76.6388 93.8722C87.0407 76.5148 95.5542 61.0699 98.2408 55.1701C104.647 41.1011 83.4917 34.5132 78.7037 41.0754C71.4569 51.0076 55.9802 82.2616 32.2737 134.837L41.73 140.579Z" fill="#B28B67"/>
<path fill-rule="evenodd" clip-rule="evenodd" d="M76.9705 134.473L108.976 53.9074C115.822 39.2208 82.7639 29.5669 77.7331 36.4018C66.3116 51.919 39.1652 113.132 35.7623 117.755L76.9705 134.473Z" fill="#2F3676"/>
<path fill-rule="evenodd" clip-rule="evenodd" d="M162.214 118.316C155.979 109.222 133.302 78.6254 120.95 65.9659C117.401 62.328 113.938 58.8364 110.662 55.5827C100.926 45.9113 81.537 62.1668 91.2554 70.9758C115.458 92.9137 150.771 122.529 153.722 125.17C157.857 128.87 166.132 124.031 162.214 118.316Z" fill="#B28B67"/>
<path fill-rule="evenodd" clip-rule="evenodd" d="M160.756 114.208C162.903 115.976 164.3 117.42 164.947 118.54C165.734 119.902 166.654 122.021 167.709 124.897C166.129 125.809 151.927 134.008 125.103 149.495C121.882 146.474 121.381 144.129 123.598 142.46C125.814 140.791 127.644 139.383 129.086 138.237L143.792 117.976C144.075 117.586 144.62 117.499 145.01 117.782C145.017 117.787 145.024 117.792 145.03 117.797L148.086 120.15C150.889 119.905 152.981 119.384 154.362 118.587C155.483 117.939 156.771 116.592 158.224 114.545L158.224 114.545C158.782 113.759 159.871 113.574 160.657 114.132C160.691 114.156 160.724 114.181 160.756 114.208Z" fill="#E4E4E4"/>
<path fill-rule="evenodd" clip-rule="evenodd" d="M49.128 137.44C50.1039 140.045 50.5918 141.995 50.5918 143.288C50.5918 144.861 50.3298 147.156 49.8057 150.174C47.9809 150.174 31.5817 150.174 0.608047 150.174C-0.670425 145.947 0.067585 143.666 2.82207 143.329C5.57656 142.992 7.86476 142.687 9.68667 142.416L32.5533 132.222C32.9933 132.025 33.509 132.223 33.7051 132.663C33.7085 132.671 33.7117 132.678 33.7149 132.686L35.1847 136.251C37.7346 137.441 39.8067 138.036 41.401 138.036C42.6962 138.036 44.485 137.513 46.7673 136.467L46.7673 136.467C47.6432 136.065 48.6787 136.45 49.0802 137.325C49.0975 137.363 49.1134 137.402 49.128 137.44Z" fill="#E4E4E4"/>
<path fill-rule="evenodd" clip-rule="evenodd" d="M120.493 57.9314C147.095 53.5977 164.913 50.6343 173.947 49.0413C199.7 44.5005 207.209 30.6427 202.769 0.407074H155.321C149.042 2.22032 122.806 13.4346 76.6135 34.0501C68.3025 38.1758 69.8503 50.3404 71.3694 54.3481C71.4313 54.5116 85.4421 78.5196 113.402 126.372L152.216 101.646L120.421 60.8451C119.581 59.1538 119.605 58.1826 120.493 57.9314Z" fill="#5C63AB"/>
</svg>
