<svg width="83" height="83" viewBox="0 0 83 83" fill="none" xmlns="http://www.w3.org/2000/svg">
<g clip-path="url(#clip0)">
<path d="M53.8594 13.1515C56.5031 9.95617 58.361 5.61634 58.2678 1.19594C58.2521 0.453643 57.575 -0.0975291 56.8409 0.0144884C52.9621 0.60716 48.6262 3.03637 45.9423 6.17853C43.4687 9.03863 41.2734 13.4833 41.4384 17.8877C41.4632 18.5514 42.024 19.0803 42.6878 19.0615C46.969 18.9404 51.1956 16.3768 53.8594 13.1515Z" fill="#D6D6D8"/>
<path d="M44.7787 17.8876C44.5227 11.0594 49.6744 3.08397 58.0364 0.512755C57.7739 0.151899 57.3202 -0.0586807 56.841 0.0144306C52.9622 0.607103 48.6262 3.03631 45.9423 6.17848C43.4687 9.03857 41.2733 13.4834 41.4384 17.8876C41.4633 18.5513 42.024 19.0803 42.6878 19.0615C43.518 19.038 44.3459 18.9217 45.1608 18.7275C44.9363 18.5148 44.791 18.218 44.7787 17.8876Z" fill="#C2C2C4"/>
<path d="M74.5228 60.4186C71.8352 59.0655 64.418 54.396 64.3263 44.0401C64.2478 35.5629 69.873 30.6336 72.2659 28.9125C72.8339 28.5038 72.9587 27.7042 72.5269 27.1535C70.5386 24.6189 68.2138 22.9931 65.9806 21.9392C65.9819 21.9391 65.9835 21.9387 65.9848 21.9386C65.6956 21.8019 65.2004 21.585 64.804 21.4289C53.5666 17.0054 46.4847 23.7857 42.1948 23.7857C38.9103 23.7857 33.8419 20.0745 28.4719 20.1758C21.4154 20.2783 14.9158 24.2807 11.2769 30.5965C5.69422 40.2864 7.53529 53.5327 11.8848 63.8562C11.8848 63.8563 11.8847 63.8563 11.8847 63.8565C11.9961 64.1206 12.1734 64.5315 12.3212 64.8634C12.3214 64.863 12.3214 64.8629 12.3216 64.8625C13.5816 67.6923 15.0243 70.2783 16.544 72.4765C20.0338 77.5205 24.1969 83.2028 29.667 82.994C34.9318 82.7852 36.9222 79.59 43.2846 79.59C49.643 79.59 51.4366 82.994 57.0035 82.8927C62.6703 82.7852 66.2588 77.7452 69.7247 72.6772C72.7751 68.224 74.4579 63.8776 75.1323 61.9207C75.3333 61.3375 75.0741 60.6962 74.5228 60.4186Z" fill="#D6D6D8"/>
<path d="M19.8841 72.4769C18.3644 70.2787 16.9218 67.6928 15.6617 64.863C15.6615 64.8631 15.6615 64.8635 15.6614 64.8638C15.5137 64.5321 15.3378 64.1246 15.2248 63.8569C15.2248 63.8569 15.225 63.8568 15.225 63.8566C10.9021 53.597 9.01438 40.3211 14.617 30.5969C17.9777 24.7642 23.7787 20.9072 30.2045 20.2703C29.6316 20.2014 29.0537 20.1654 28.4719 20.1762C21.4154 20.2787 14.9158 24.2812 11.2769 30.5969C5.69422 40.2869 7.53529 53.5331 11.8848 63.8566C11.8848 63.8568 11.8847 63.8569 11.8847 63.8569C11.9961 64.121 12.1734 64.5319 12.3212 64.8638C12.3214 64.8635 12.3216 64.8633 12.3216 64.863C13.5816 67.6928 15.0243 70.2787 16.5439 72.4769C20.0336 77.521 24.1967 83.2032 29.6668 82.9944C30.205 82.973 30.7075 82.9192 31.1854 82.842C26.5964 81.9114 22.9756 76.9453 19.8841 72.4769Z" fill="#C2C2C4"/>
</g>
<defs>
<clipPath id="clip0">
<rect width="83" height="83" fill="white"/>
</clipPath>
</defs>
</svg>
