<svg width="566" height="383" viewBox="0 0 566 383" fill="none" xmlns="http://www.w3.org/2000/svg">
<path d="M242.915 0H93.1163C80.6363 0 70.4219 11.6323 70.4219 25.8689V357.12C70.4219 371.357 80.6363 383 93.1163 383H242.915C255.395 383 265.609 371.379 265.609 357.131V25.8689C265.609 11.6323 255.395 0 242.915 0ZM144.054 18.6466H191.977C193.494 18.6466 194.723 20.0473 194.723 21.7872C194.723 23.5162 193.494 24.9169 191.977 24.9169H144.054C142.537 24.9169 141.308 23.5162 141.308 21.7872C141.308 20.0473 142.537 18.6466 144.054 18.6466ZM168.015 370.066C161.747 370.066 156.668 364.277 156.668 357.12C156.668 349.963 161.747 344.186 168.015 344.186C174.284 344.186 179.363 349.963 179.363 357.12C179.363 364.277 174.284 370.066 168.015 370.066ZM249.817 335.125H86.2139V41.0248H249.817V335.125Z" fill="#C5CFD6"/>
<g filter="url(#filter0_i)">
<ellipse cx="168" cy="357.5" rx="18" ry="17.5" fill="white"/>
</g>
<path fill-rule="evenodd" clip-rule="evenodd" d="M494.603 78.322C498.208 74.5232 500.647 69.8678 500.24 64.6512C499.065 49.6207 475.76 52.9272 471.226 60.5133C466.693 68.0994 467.232 87.3421 473.091 88.698C475.427 89.2387 480.405 87.9142 485.471 85.1728L482.291 105.369H501.066L494.603 78.322Z" fill="#D4A181"/>
<path fill-rule="evenodd" clip-rule="evenodd" d="M496.049 81.7059C498.405 72.2938 505.119 65.8778 504.094 61.671C503.41 58.8664 501.588 57.1224 498.628 56.4388C497.097 50.8786 492.16 48.5137 483.816 49.3439C471.299 50.5893 463.66 55.2558 466.959 65.5242C469.992 65.5242 473.653 64.5396 478.715 66.2265C480.321 66.7618 481.47 68.4217 482.161 71.2062H484.449C486.669 67.9017 488.859 66.6874 491.017 67.5633C493.175 68.4392 493.665 70.5667 492.488 73.9458L493.615 81.7059H496.049Z" fill="#191847"/>
<path fill-rule="evenodd" clip-rule="evenodd" d="M553.483 193.163H463.517C456.604 193.163 451 198.194 451 204.4V269.016C451 275.222 456.604 280.253 463.517 280.253H553.483C560.396 280.253 566 275.222 566 269.016V204.4C566 198.194 560.396 193.163 553.483 193.163ZM540.966 212.828C542.694 212.828 544.095 214.086 544.095 215.638V257.778C544.095 259.33 542.694 260.588 540.966 260.588H476.034C474.306 260.588 472.905 259.33 472.905 257.778V215.638C472.905 214.086 474.306 212.828 476.034 212.828H540.966Z" fill="#C5CFD6"/>
<path fill-rule="evenodd" clip-rule="evenodd" d="M373.43 276.742C388.854 259.832 399.291 247.296 404.739 239.134C414.068 225.158 421.704 212.722 424.113 207.971C429.859 196.643 410.885 191.338 406.591 196.622C400.092 204.62 386.211 229.785 364.949 272.118L373.43 276.742Z" fill="#BA8B72"/>
<path fill-rule="evenodd" clip-rule="evenodd" d="M405.036 271.825L433.741 206.954C439.88 195.129 410.232 187.356 405.72 192.859C395.476 205.353 371.13 254.642 368.078 258.364L405.036 271.825Z" fill="#2F3676"/>
<path fill-rule="evenodd" clip-rule="evenodd" d="M481.485 259.036C475.848 251.693 455.367 226.974 444.251 216.721C441.057 213.774 437.941 210.946 434.994 208.309C426.234 200.473 409.137 213.332 417.872 220.477C439.626 238.27 471.343 262.313 473.994 264.455C477.711 267.457 485.028 263.651 481.485 259.036Z" fill="#D4A181"/>
<path fill-rule="evenodd" clip-rule="evenodd" d="M479.926 255.618C481.899 257.111 483.188 258.323 483.794 259.255C484.532 260.388 485.406 262.145 486.418 264.526C485.014 265.246 472.396 271.712 448.563 283.926C445.598 281.384 445.096 279.449 447.057 278.12C449.019 276.791 450.637 275.67 451.911 274.755L464.726 258.393C464.973 258.079 465.462 258.018 465.82 258.257C465.826 258.262 465.832 258.266 465.838 258.27L468.64 260.26C471.16 260.111 473.033 259.723 474.26 259.094C475.257 258.584 476.388 257.501 477.653 255.847L477.653 255.847C478.139 255.213 479.116 255.082 479.836 255.554C479.867 255.575 479.897 255.596 479.926 255.618Z" fill="#E4E4E4"/>
<path fill-rule="evenodd" clip-rule="evenodd" d="M380.062 274.214C380.937 276.311 381.375 277.881 381.375 278.922C381.375 280.189 381.14 282.037 380.67 284.467C379.033 284.467 364.325 284.467 336.546 284.467C335.399 281.064 336.061 279.226 338.532 278.955C341.002 278.684 343.054 278.439 344.688 278.22L365.197 270.012C365.591 269.854 366.054 270.013 366.23 270.367C366.233 270.373 366.236 270.379 366.239 270.386L367.557 273.256C369.844 274.214 371.702 274.693 373.132 274.693C374.294 274.693 375.898 274.272 377.945 273.43L377.945 273.43C378.73 273.106 379.659 273.416 380.019 274.121C380.035 274.152 380.049 274.183 380.062 274.214Z" fill="#E4E4E4"/>
<path fill-rule="evenodd" clip-rule="evenodd" d="M444.067 210.194C467.925 206.705 483.906 204.319 492.008 203.036C515.105 199.38 521.84 188.222 517.858 163.876H475.303C469.672 165.336 446.142 174.366 404.712 190.965C397.259 194.287 398.647 204.082 400.009 207.309C400.065 207.441 412.631 226.772 437.707 265.302L472.518 245.393L444.002 212.541C443.249 211.179 443.27 210.397 444.067 210.194Z" fill="#5C63AB"/>
<path fill-rule="evenodd" clip-rule="evenodd" d="M441.007 154.682L416.052 171.134C409.284 172.773 403.629 174.813 399.088 177.253C398.016 178.131 396.719 179.908 401.168 179.601C405.617 179.294 410.311 179.15 410.925 180.513C411.539 181.875 408.847 183.504 410.088 185.342C410.915 186.567 414.823 183.495 421.812 176.124L446.523 166.925L441.007 154.682ZM536.819 155.25L520.471 155.308C530.565 184.563 536.014 200.085 536.819 201.875C538.629 205.903 534.799 212.037 533.16 215.333C538.496 217.477 537.927 209.539 544.658 212.35C550.801 214.916 555.474 219.565 562.572 215.634C563.445 215.15 564.401 213.33 562.09 211.908C556.334 208.364 548.039 202.163 546.919 200.121C545.39 197.338 542.024 182.381 536.819 155.25Z" fill="#D4A181"/>
<path fill-rule="evenodd" clip-rule="evenodd" d="M490.359 93.6631L483.594 92.6214C458.495 112.087 448.186 149.483 417.421 169.293L424.826 177.534C478.198 171.601 491.427 125.987 490.359 93.6631Z" fill="#E87613"/>
<path fill-rule="evenodd" clip-rule="evenodd" d="M519.852 169.985C492.727 169.985 472.776 169.985 459.996 169.985C457.261 169.985 457.776 166.439 458.171 164.65C462.735 144.001 480.547 121.742 480.547 92.3486L497.812 89.918C512.093 110.538 517.031 135.925 519.852 169.985Z" fill="#DDE3E9"/>
<path fill-rule="evenodd" clip-rule="evenodd" d="M519.37 110.186C521.877 109.539 523.863 108.03 525.327 105.659C531.637 95.4359 529.358 89.8075 522.614 87.9574C515.871 86.1074 509.856 89.9182 499.112 89.9182C498.527 89.9182 497.992 89.9511 497.506 90.0169L492.101 90.2938C476.594 137.478 472.317 168.958 479.27 184.735H526.382C529.173 190.578 531.844 195.494 534.395 199.484H547.232C548.44 164.414 539.152 134.648 519.37 110.186Z" fill="#FF9B21"/>
<path fill-rule="evenodd" clip-rule="evenodd" d="M516.12 160.502C514.638 171.632 512.23 179.709 508.896 184.734H526.379C523.123 177.918 519.703 169.841 516.12 160.502Z" fill="black" fill-opacity="0.1"/>
<rect x="86" y="40" width="164" height="295" fill="#DB4A39"/>
<path fill-rule="evenodd" clip-rule="evenodd" d="M197.766 74.9094C195.578 70.3093 194.651 65.1395 196.399 60.0895C201.433 45.5389 221.221 54.3116 223.226 62.8677C225.231 71.4237 219.642 90.2803 214.086 90.2325C211.87 90.2135 207.808 87.7298 204.044 83.8274L201.499 104.504L184.849 100.064L197.766 74.9094Z" fill="#D4A181"/>
<path fill-rule="evenodd" clip-rule="evenodd" d="M203.792 75.4046C200.66 78.8127 197 81.0318 194.145 80.27C188.722 78.8231 186.814 70.5566 188.908 62.7749C188.981 62.5015 189.06 62.2313 189.143 61.9646C182.349 64.3637 175.844 70.9299 168.253 68.9046C157.926 66.1493 159.42 44.2626 173.848 48.1122C183.66 50.7302 188.103 53.446 191.694 56.6676C193.135 54.5778 194.909 52.9705 196.803 52.0231C197.282 51.7078 197.953 51.4627 198.78 51.2901C199.29 51.1658 199.804 51.0907 200.317 51.068C203.073 50.8171 206.881 51.1375 210.978 52.0789C211.743 52.2547 212.489 52.4456 213.213 52.649C214.252 48.8345 218.188 46.5714 222.015 47.5926C225.85 48.6157 228.123 52.5481 227.093 56.3759C226.097 60.0777 222.376 62.326 218.664 61.5446C216.397 61.6309 213.58 61.3866 210.543 60.7904C210.54 61.9549 210.365 63.2319 209.99 64.6277C209.658 65.8601 209.17 67.1307 208.562 68.3909C208.122 67.4506 207.391 66.7189 206.513 66.4846C204.057 65.8293 201.805 67.3901 201.228 69.5316C200.497 72.2495 201.54 74.6352 203.792 75.4046Z" fill="#191847"/>
<path fill-rule="evenodd" clip-rule="evenodd" d="M163.586 163.423L189.925 253.927L202.314 321.878H214.749L202.336 163.423H163.586Z" fill="#BA8B72"/>
<path fill-rule="evenodd" clip-rule="evenodd" d="M151.751 163.423C153.588 210.439 152.864 236.083 152.452 240.355C152.041 244.627 149.706 273.235 133.793 323.312H146.726C167.8 275.272 175.156 246.663 177.573 240.355C179.99 234.047 187.129 208.403 197.551 163.423H151.751Z" fill="#D4A181"/>
<path fill-rule="evenodd" clip-rule="evenodd" d="M163.023 163.423C169.875 194.566 181.724 244.277 198.573 312.557H216.76C218.103 242.474 212.389 196.348 202.493 163.423H163.023Z" fill="#69A1AC"/>
<path fill-rule="evenodd" clip-rule="evenodd" d="M151.658 163.423C153.458 210.439 148.793 256.759 134.344 313.289H153.748C174.861 265.966 189.993 219.875 200.335 163.423H151.658Z" fill="#89C5CC"/>
<path fill-rule="evenodd" clip-rule="evenodd" d="M131.949 332.633L132.663 321.162C136.841 322.38 142.074 321.902 148.362 319.728C155.123 324.503 163.635 327.764 173.897 329.51C174.679 329.643 175.206 330.384 175.072 331.165C175.064 331.216 175.052 331.266 175.038 331.315L174.052 334.784H148.362H133.376L131.949 332.633Z" fill="#191847"/>
<path fill-rule="evenodd" clip-rule="evenodd" d="M199.539 332.633L200.253 321.162C204.431 322.38 209.664 321.902 215.952 319.728C222.713 324.503 231.225 327.764 241.486 329.51C242.269 329.643 242.796 330.384 242.662 331.165C242.653 331.216 242.642 331.266 242.628 331.315L241.641 334.784H215.952H200.966L199.539 332.633Z" fill="#191847"/>
<path fill-rule="evenodd" clip-rule="evenodd" d="M215.044 123.13L241.995 114.012C246.939 109.886 251.632 106.832 256.072 104.849C257.373 104.556 259.547 104.623 256.943 107.785C254.339 110.948 251.743 114.391 252.561 115.65C253.379 116.909 256.164 115.84 257.051 117.848C257.641 119.187 253.005 120.325 243.141 121.261L222.396 134.442L215.044 123.13ZM251.521 141.216L263.362 137.193C265.896 131.707 268.219 129.131 270.331 129.465C272.082 128.998 267.977 135.77 271.156 135.678C274.335 135.586 282.806 131.344 283.896 132.698C285.508 134.702 282.899 139.529 280.442 141.726C275.851 145.834 272.46 146.919 264.413 147.707C260.206 148.119 255.475 149.594 250.22 152.133L251.521 141.216Z" fill="#D4A181"/>
<path fill-rule="evenodd" clip-rule="evenodd" d="M203.601 118.023C212.224 119.444 224.022 119.644 237.642 114.033L240.555 125.585C230.626 132.471 217.531 137.262 207.198 135.147C199.055 133.481 196.622 122.864 203.601 118.023Z" fill="#2026A2"/>
<path fill-rule="evenodd" clip-rule="evenodd" d="M212.155 137.211C220.888 141.089 236.684 141.096 259.542 137.233C262.926 149.182 264 157.466 262.767 162.085C242.615 168.465 226.043 169.978 212.966 167.974C212.014 175.761 209.772 182.936 205.424 189.088C196.483 201.735 160.698 182.289 147.461 182.557C144.049 155.188 161.408 147.355 164.364 130.744C167.601 112.553 187.2 87.1191 189.354 87.497L208.995 90.9438C207.617 105.028 210.359 121.298 212.155 137.211Z" fill="#1F28CF"/>
<rect x="141" y="18" width="54" height="7" rx="3.5" fill="white"/>
<g clip-path="url(#clip0)" filter="url(#filter1_d)">
<path d="M333.451 134.75C334.638 136.175 336.396 137 338.251 137H385.751C387.605 137 389.364 136.175 390.551 134.75L367.626 115.65L365.251 117.275C363.294 118.625 360.707 118.625 358.751 117.275L356.376 115.65L333.451 134.75Z" fill="#1E88E5"/>
<path d="M333.099 99.7252L356.374 115.65L358.749 117.275C360.705 118.625 363.292 118.625 365.249 117.275L367.624 115.65L390.898 99.7001C389.727 98.0113 387.804 97.0028 385.748 97.0001H338.249C336.184 96.9892 334.251 98.012 333.099 99.7252Z" fill="#64B5F6"/>
<path d="M367.625 115.65L390.55 134.75C391.488 133.629 392.002 132.212 392 130.75V103.25C392.008 101.982 391.623 100.742 390.9 99.7002L367.625 115.65Z" fill="#2196F3"/>
<path d="M332 103.25V130.75C331.998 132.212 332.512 133.629 333.45 134.75L356.375 115.65L333.1 99.7251C332.38 100.759 331.996 101.99 332 103.25Z" fill="#2196F3"/>
</g>
<defs>
<filter id="filter0_i" x="150" y="340" width="36" height="35" filterUnits="userSpaceOnUse" color-interpolation-filters="sRGB">
<feFlood flood-opacity="0" result="BackgroundImageFix"/>
<feBlend mode="normal" in="SourceGraphic" in2="BackgroundImageFix" result="shape"/>
<feColorMatrix in="SourceAlpha" type="matrix" values="0 0 0 0 0 0 0 0 0 0 0 0 0 0 0 0 0 0 127 0" result="hardAlpha"/>
<feOffset/>
<feGaussianBlur stdDeviation="0.5"/>
<feComposite in2="hardAlpha" operator="arithmetic" k2="-1" k3="1"/>
<feColorMatrix type="matrix" values="0 0 0 0 0 0 0 0 0 0 0 0 0 0 0 0 0 0 0.25 0"/>
<feBlend mode="normal" in2="shape" result="effect1_innerShadow"/>
</filter>
<filter id="filter1_d" x="328" y="85" width="68" height="68" filterUnits="userSpaceOnUse" color-interpolation-filters="sRGB">
<feFlood flood-opacity="0" result="BackgroundImageFix"/>
<feColorMatrix in="SourceAlpha" type="matrix" values="0 0 0 0 0 0 0 0 0 0 0 0 0 0 0 0 0 0 127 0"/>
<feOffset dy="2"/>
<feGaussianBlur stdDeviation="2"/>
<feColorMatrix type="matrix" values="0 0 0 0 0.768627 0 0 0 0 0.768627 0 0 0 0 0.768627 0 0 0 0.2 0"/>
<feBlend mode="normal" in2="BackgroundImageFix" result="effect1_dropShadow"/>
<feBlend mode="normal" in="SourceGraphic" in2="effect1_dropShadow" result="shape"/>
</filter>
<clipPath id="clip0">
<rect width="60" height="60" fill="white" transform="matrix(-1 0 0 1 392 87)"/>
</clipPath>
</defs>
</svg>
