<svg width="380" height="400" viewBox="0 0 380 400" fill="none" xmlns="http://www.w3.org/2000/svg">
<path fill-rule="evenodd" clip-rule="evenodd" d="M195.738 89.4901C200.346 84.0814 203.464 77.4529 202.943 70.0255C201.442 48.625 171.651 53.3328 165.857 64.1339C160.062 74.9351 160.75 102.333 168.24 104.263C171.226 105.033 177.589 103.147 184.065 99.2443L180 128H204L195.738 89.4901Z" fill="#B28B67"/>
<path fill-rule="evenodd" clip-rule="evenodd" d="M155.224 49.1604C155.721 47.4135 157.058 45.9178 158.86 45.474C159.296 45.3664 159.748 45.3229 160.197 45.341C160.358 45.3475 160.404 45.394 160.479 45.2812C160.535 45.1976 160.536 44.9934 160.559 44.8951C160.631 44.5896 160.72 44.2879 160.831 43.994C161.208 42.9917 161.841 42.1046 162.605 41.3573C164.033 39.9593 165.963 38.9944 167.968 38.8199C169.066 38.7244 170.155 38.9027 171.193 39.2597C171.73 39.4445 172.251 39.6746 172.758 39.929C172.911 40.0056 173.406 40.3806 173.559 40.3563C173.729 40.3295 174.069 39.9088 174.207 39.8032C175.908 38.4979 178.009 37.9847 180.128 38C182.52 38.018 184.823 38.1375 186.818 39.5957C187.241 39.9044 187.643 40.2425 188.026 40.5983C188.228 40.7857 188.423 40.9801 188.609 41.1825C188.722 41.3047 188.831 41.4296 188.936 41.5579C189.115 41.7756 189.086 41.8471 189.337 41.6952C190.297 41.1119 191.409 40.8391 192.53 40.9768C193.195 41.0586 193.843 41.2584 194.458 41.5213C194.667 41.6109 195.151 41.9679 195.374 41.9714C195.596 41.9748 196.073 41.6438 196.301 41.5597C197.533 41.1052 198.86 40.9931 200.154 41.2032C201.489 41.4199 202.8 41.9525 203.931 42.6885C204.475 43.0425 204.95 43.4348 205.331 43.9612C205.496 44.1885 205.644 44.4289 205.831 44.6396C205.94 44.763 206.156 44.8897 206.215 45.0458C206.18 44.9523 207.675 44.376 207.816 44.3391C208.568 44.1428 209.333 44.1826 210.069 44.4248C211.453 44.8803 212.643 45.9016 213.621 46.9487C214.123 47.4866 214.563 48.0811 214.936 48.7145C215.115 49.0179 215.279 49.33 215.428 49.6487C215.501 49.8031 215.549 49.9962 215.644 50.1353C215.768 50.3146 215.85 50.318 216.073 50.3961C217.206 50.7929 218.238 51.4645 219.025 52.3721C219.82 53.2902 220.336 54.4209 220.552 55.6116C220.565 55.6817 220.573 55.9724 220.614 56.0103C220.67 56.0626 220.898 56.0395 220.984 56.0496C221.282 56.0846 221.579 56.1367 221.871 56.2059C222.41 56.3335 222.934 56.5211 223.43 56.7666C225.364 57.7235 226.747 59.5175 227.424 61.5361C228.135 63.6546 228.122 66.0816 227.273 68.1605C227.136 68.4963 226.973 68.8222 226.781 69.1305C226.664 69.3198 226.626 69.3203 226.702 69.5189C226.787 69.7398 226.943 69.9545 227.044 70.1703C227.374 70.8748 227.604 71.6219 227.75 72.385C227.989 73.6368 228.108 74.9523 227.872 76.2136C227.762 76.7993 227.572 77.3718 227.281 77.8934C227.132 78.1594 226.958 78.4116 226.762 78.645C226.661 78.7661 226.553 78.8818 226.439 78.9927C226.375 79.056 226.29 79.1114 226.235 79.1822C226.101 79.3546 226.073 79.2128 226.142 79.4661C226.239 79.8201 226.458 80.1694 226.592 80.5139C226.731 80.8689 226.856 81.2288 226.97 81.5923C227.202 82.3282 227.398 83.0774 227.521 83.8395C227.756 85.3028 227.715 86.8619 227.023 88.2048C226.727 88.7793 226.302 89.2832 225.787 89.6752C225.535 89.8669 225.262 90.0322 224.976 90.1679C224.829 90.2378 224.641 90.2678 224.574 90.4101C224.501 90.5631 224.609 90.867 224.633 91.038C224.846 92.5263 224.953 94.0889 224.51 95.5473C224.103 96.8907 223.206 98.0767 222.041 98.8619C219.781 100.385 216.735 100.299 214.361 99.0798C213.742 98.7619 213.163 98.3672 212.647 97.9017C211.331 99.6722 208.625 99.6162 206.703 99.1117C204.308 98.4832 202.386 96.818 201.279 94.63C199.765 96.473 196.588 95.875 195.538 93.8757C195.281 93.3864 195.129 92.8471 195.054 92.3014C195.014 92.0144 195.039 91.7249 195.01 91.4402C194.972 91.0774 194.73 90.7249 194.59 90.374C194.319 89.691 194.151 88.9855 194.143 88.2488C194.14 87.8641 194.188 87.4893 194.225 87.1077C194.258 86.7642 194.163 86.4442 194.108 86.1052C194.723 86.2064 195.471 86.0407 196.05 85.8626C196.617 85.6879 197.149 85.2276 197.55 84.8072C198.481 83.8311 199.049 82.5515 199.438 81.2779C200.292 78.4826 199.942 75.129 197.13 73.5949C195.82 72.8802 191.897 72.8826 190.337 73.2358C188.696 73.6071 186.837 77.2264 186.745 77.5666C186.689 77.7771 186.717 78.0377 186.524 78.178C186.099 78.4864 185.398 77.9511 185.084 77.6869C184.543 77.231 184.157 76.6243 183.823 76.0093C183.095 74.6696 182.508 73.2329 182.093 71.7663C181.773 70.6355 181.569 69.4695 181.151 68.3676C180.735 67.2712 180.08 66.2912 179.06 65.67C177.952 64.9943 176.681 64.6385 175.464 64.2138C174.257 63.793 173.071 63.2787 172.136 62.3857C171.93 62.1894 171.731 61.9807 171.565 61.7495C171.435 61.567 171.305 61.2177 171.106 61.102C170.797 60.9219 170.345 61.3901 170.077 61.56C168.757 62.3986 167.655 63.5683 166.767 64.846C165.883 66.1167 165.158 67.3395 164.569 68.7584C164.132 69.8108 163.859 71.1586 163.091 72.0211C162.748 72.4062 160.197 72.6392 159.371 72.303C158.545 71.9667 157.619 71.0937 157.342 70.5466C157.058 69.9866 156.99 69.3715 157.111 68.7584C157.183 68.3978 157.328 68.0609 157.408 67.7066C157.475 67.4091 157.536 67.1278 157.681 66.8552C157.955 66.3386 158.424 65.9673 158.99 65.8121C158.401 65.2694 157.914 64.6203 157.576 63.8946C157.226 63.1407 156.928 62.2238 156.844 61.3964C156.776 60.7243 156.881 60.028 157.249 59.4504C157.635 58.8445 158.319 58.4492 158.911 58.0713C158.007 57.3642 157.233 56.5044 156.598 55.5524C155.361 53.7011 154.596 51.3675 155.224 49.1604Z" fill="#191847"/>
<path fill-rule="evenodd" clip-rule="evenodd" d="M271 253H156C147.163 253 140 260.163 140 269V361C140 369.837 147.163 377 156 377H271C279.837 377 287 369.837 287 361V269C287 260.163 279.837 253 271 253ZM255 281C257.209 281 259 282.791 259 285V345C259 347.209 257.209 349 255 349H172C169.791 349 168 347.209 168 345V285C168 282.791 169.791 281 172 281H255Z" fill="#C5CFD6"/>
<path fill-rule="evenodd" clip-rule="evenodd" d="M68.4905 373.66C81.3033 345.302 90.5693 320.608 94.2887 307.58C100.657 285.273 105.502 265.643 106.726 258.313C109.646 240.832 84.2644 239.814 80.9095 248.502C75.8316 261.651 66.9668 304.853 56.3151 370.107L68.4905 373.66ZM217.111 284.664C205.356 280.017 164.188 265.475 144.332 261.361C138.627 260.179 133.097 259.081 127.898 258.088C112.444 255.138 104.437 283.017 119.321 285.16C156.388 290.494 208.937 296.003 213.434 296.622C219.737 297.488 224.499 287.584 217.111 284.664Z" fill="#B28B67"/>
<path fill-rule="evenodd" clip-rule="evenodd" d="M118.413 250.416L182 218.047V211H174.438C112.92 226.676 81.4846 236.722 80.1313 241.138C80.1168 241.185 80.1034 241.233 80.0913 241.281C80.0603 241.321 80.0299 241.362 80 241.403C67.8085 258.17 60.5071 340.027 58.1106 346.156L81.4723 349.641C90.4087 316.503 119 293.418 118.241 253.729C118.446 252.565 118.497 251.461 118.413 250.416Z" fill="#1F28CF"/>
<path fill-rule="evenodd" clip-rule="evenodd" d="M176.717 269.64C182.535 268.476 187.893 267.436 192.477 266.632C222.091 261.438 230.726 245.586 225.62 211H171.058C162.145 213.56 115.826 232.985 91.7934 243.316C75.8874 250.154 80.9015 274.804 89.909 281.219C89.958 281.613 90.1201 281.88 90.4087 282C138.863 302.083 177.195 291.545 190 294.912L195.923 276.228L176.717 269.64Z" fill="#2B44FF"/>
<path fill-rule="evenodd" clip-rule="evenodd" d="M213.093 281.694C216.268 281.997 218.521 282.474 219.854 283.124C221.475 283.915 223.708 285.338 226.554 287.395C225.637 289.275 217.396 306.173 201.829 338.088C196.832 337.282 194.851 335.374 195.888 332.367C196.926 329.359 197.762 326.849 198.398 324.835L199.386 296.15C199.405 295.598 199.868 295.166 200.419 295.185C200.429 295.185 200.438 295.186 200.448 295.186L204.86 295.463C207.368 293.434 209.022 291.598 209.823 289.955C210.474 288.62 210.834 286.514 210.903 283.637L210.903 283.637C210.93 282.532 211.846 281.659 212.951 281.685C212.998 281.686 213.046 281.689 213.093 281.694Z" fill="#E4E4E4"/>
<path fill-rule="evenodd" clip-rule="evenodd" d="M74.3219 368.402C75.4406 371.388 76 373.623 76 375.106C76 376.909 75.6996 379.54 75.0988 383C73.0068 383 54.2062 383 18.6969 383C17.2313 378.155 18.0773 375.539 21.2352 375.152C24.393 374.766 27.0163 374.417 29.105 374.106L55.32 362.419C55.8244 362.194 56.4157 362.421 56.6405 362.925C56.6444 362.934 56.6481 362.942 56.6517 362.951L58.3368 367.039C61.2601 368.403 63.6356 369.085 65.4633 369.085C66.9483 369.085 68.999 368.485 71.6155 367.285L71.6155 367.285C72.6196 366.825 73.8067 367.266 74.267 368.27C74.2869 368.313 74.3052 368.357 74.3219 368.402Z" fill="#E4E4E4"/>
<path fill-rule="evenodd" clip-rule="evenodd" d="M222.79 188.233C221.354 213.748 217.757 231.337 212 241H226.111C226.729 222.643 225.622 205.054 222.79 188.233V188.233Z" fill="black" fill-opacity="0.1"/>
<path fill-rule="evenodd" clip-rule="evenodd" d="M214.889 210L190 198.429V210H214.889Z" fill="white" fill-opacity="0.2"/>
<path fill-rule="evenodd" clip-rule="evenodd" d="M163.926 146.354L133.793 129.85C128.782 123.899 123.844 119.278 118.981 115.985C117.495 115.365 114.896 114.989 117.326 119.303C119.757 123.617 122.119 128.263 120.881 129.592C119.643 130.921 116.555 129.065 115.078 131.273C114.093 132.745 119.368 135.07 130.903 138.249L152.798 158.297L163.926 146.354ZM116.731 160.278L103.495 153.007C101.638 145.94 99.4179 142.384 96.8349 142.34C94.8507 141.417 98.3062 150.347 94.5447 149.572C90.7832 148.798 81.6024 141.97 80.0205 143.356C77.6802 145.407 79.767 151.705 82.2257 154.838C86.821 160.693 90.6257 162.695 100.03 165.317C104.947 166.688 110.263 169.436 115.978 173.561L116.731 160.278Z" fill="#B28B67"/>
<path fill-rule="evenodd" clip-rule="evenodd" d="M178.601 142.677C168.046 142.566 153.972 140.336 138.954 130.804L133.056 143.956C143.415 154.236 157.981 162.683 170.717 162.325C180.753 162.043 185.883 149.903 178.601 142.677Z" fill="#F0C41B"/>
<path fill-rule="evenodd" clip-rule="evenodd" d="M164.389 163.769C153.184 166.564 134.394 163.268 108.019 153.883C101.477 167.418 98.4524 177.067 98.946 182.83C121.572 194.649 140.965 199.919 156.941 200.267C156.434 209.747 157.588 218.767 161.464 227.01C169.433 243.954 216.095 228.262 231.785 231.35C241.61 199.442 222.613 186.474 222.598 166.057C222.581 143.699 204.628 109.283 201.986 109.283L177.898 109.283C176.569 126.359 169.879 145.178 164.389 163.769Z" fill="#F0C41B"/>
<path d="M52.5 23L60.2457 46.8389H85.3114L65.0329 61.5722L72.7786 85.4111L52.5 70.6778L32.2214 85.4111L39.9671 61.5722L19.6885 46.8389H44.7543L52.5 23Z" fill="#F0C41B"/>
<path d="M87 53L90.5922 64.0557H102.217L92.8123 70.8885L96.4046 81.9443L87 75.1115L77.5954 81.9443L81.1877 70.8885L71.7831 64.0557H83.4078L87 53Z" fill="#F3D55C"/>
</svg>
