<svg width="307" height="323" viewBox="0 0 307 323" fill="none" xmlns="http://www.w3.org/2000/svg">
<path fill-rule="evenodd" clip-rule="evenodd" d="M158.137 72.2634C161.86 67.8958 164.38 62.5433 163.959 56.5457C162.746 39.2648 138.678 43.0663 133.997 51.7882C129.315 60.5102 129.871 82.634 135.922 84.1928C138.335 84.8145 143.475 83.2917 148.707 80.1399L145.423 103.36H164.812L158.137 72.2634Z" fill="#B28B67"/>
<path fill-rule="evenodd" clip-rule="evenodd" d="M172.413 50.7933C173.039 50.173 173.381 49.2876 173.676 48.4469C173.983 47.5736 174.281 46.6912 174.485 45.7822C174.892 43.966 174.896 41.8772 173.6 40.4669C172.56 39.336 171 38.8287 169.561 38.7185C168.601 38.645 167.616 38.7792 166.697 39.0814C165.785 39.3811 164.998 39.9784 164.114 40.3491C164.08 38.3919 163.745 36.3439 162.751 34.6727C161.795 33.0647 160.271 32.1624 158.535 31.9236C156.754 31.6786 154.994 32.0953 153.399 32.9574C153 33.1733 152.604 33.3995 152.226 33.6555C151.909 33.8699 151.579 34.1281 151.207 34.2152C150.793 34.3125 150.587 34.0732 150.318 33.7708C150.002 33.4163 149.646 33.1041 149.269 32.8273C147.603 31.6035 145.418 31.1004 143.488 31.8339C142.599 32.1718 141.735 32.7458 141.131 33.5367C140.594 34.2417 140.21 35.36 139.468 35.8512C139.153 36.0597 138.931 35.7834 138.644 35.5793C138.213 35.2725 137.802 34.934 137.367 34.6356C136.754 34.2163 136.091 33.9027 135.381 33.7385C134.342 33.4982 132.906 33.5545 132.609 34.915C132.497 35.426 132.583 35.9726 132.619 36.4875C132.668 37.1945 132.72 37.9012 132.781 38.6072C132.828 39.1432 132.887 39.6609 132.988 40.1873C133.042 40.4679 133.211 40.991 133.091 41.272C132.94 41.6232 132.246 41.4235 131.949 41.4357C131.363 41.4599 130.775 41.5626 130.233 41.8128C129.814 42.0068 129.372 42.292 129.195 42.773C129.086 43.0684 129.115 43.3719 129.166 43.6759C129.228 44.0407 129.157 44.2342 129.111 44.6023C128.324 44.215 125.598 43.3545 125.255 44.764C125.14 45.2333 125.4 45.7637 125.599 46.1595C125.947 46.8537 126.403 47.4882 126.87 48.0933C127.843 49.3557 129.005 50.4446 130.255 51.3758C128.79 52.0265 128.408 53.946 129.676 55.0897C130.236 55.5946 130.989 55.707 131.695 55.6747C131.953 55.6629 132.326 55.5636 132.529 55.6086C132.639 55.6327 132.756 55.7255 132.908 55.7358C133.904 55.8041 135.029 55.564 136.003 55.343C137.74 54.9491 139.383 54.1271 140.725 52.875C141.069 52.5539 141.354 52.369 141.817 52.3737C142.223 52.3778 142.622 52.4891 143.027 52.4994C144.101 52.5268 145.069 52.0023 146.066 51.6531C146.127 52.9991 146.51 54.4815 147.061 55.6924C147.51 56.6798 148.448 56.8233 149.37 56.9099C152.318 57.1871 155.276 56.8778 158.227 56.8819C155.37 57.5273 152.418 57.7934 149.586 58.5529C148.306 58.8962 149.284 59.7584 149.831 60.3562C150.732 61.3405 151.402 62.56 151.867 63.8448C153.265 62.0239 155.735 60.8241 157.923 61.3835C160.342 62.0015 162.044 65.2701 160.498 67.62C159.6 68.9841 157.979 69.5107 156.63 70.0968C157.682 71.1903 157.937 72.8055 158.57 74.166C158.883 74.8369 159.321 75.5955 160.02 75.8293C160.278 75.9159 160.581 75.9233 160.785 76.1339C161.038 76.3946 161.098 76.6861 161.421 76.9102C162.708 77.8047 164.719 77.7357 165.859 76.5685C166.891 75.5128 166.623 73.8423 165.761 72.7721C167.133 72.2006 169.632 71.4656 169.087 69.3298C172.059 69.1325 179.275 64.3145 175.286 60.7938C177.475 59.5572 179.486 56.5348 178.08 53.8707C176.997 51.8191 174.479 50.9021 172.413 50.7933Z" fill="#191847"/>
<path fill-rule="evenodd" clip-rule="evenodd" d="M199.856 204.298H137.442L129.264 304.428H222.172L199.856 204.298Z" fill="#C5CFD6"/>
<path fill-rule="evenodd" clip-rule="evenodd" d="M199.856 204.298H180.66L169.171 304.428H222.172L199.856 204.298Z" fill="black" fill-opacity="0.1"/>
<path fill-rule="evenodd" clip-rule="evenodd" d="M66.2877 187.144C59.6333 183.15 48.4687 188.281 48.4763 193.993C48.4993 211.083 64.1037 291.63 64.9184 296.722C65.7332 301.814 74.4609 303.159 74.9692 296.738C75.7779 286.523 77.2804 251.16 75.7771 234.791C75.1566 228.035 74.4883 221.6 73.8304 215.859C82.0186 230.639 94.6821 251.8 111.821 279.342L121.125 275.093C113.819 251.033 107.828 234.047 103.152 224.135C95.1458 207.164 87.6388 192.631 84.4793 187.512C79.5095 179.459 70.8587 182.269 66.2877 187.144Z" fill="#B28B67"/>
<path fill-rule="evenodd" clip-rule="evenodd" d="M120.458 261.731L88.524 186.119C80.8738 173.818 59.4247 188.622 62.0335 195.756C67.9565 211.952 98.0795 264.387 99.8442 269.213L120.458 261.731Z" fill="#1F28CF"/>
<path fill-rule="evenodd" clip-rule="evenodd" d="M122.231 270.325C124.221 271.962 125.515 273.3 126.114 274.337C126.843 275.598 127.696 277.56 128.673 280.222C127.209 281.066 114.056 288.656 89.2128 302.992C86.2296 300.195 85.7646 298.023 87.8179 296.478C89.8711 294.933 91.5654 293.63 92.901 292.569L106.52 273.812C106.782 273.451 107.287 273.371 107.648 273.633C107.654 273.637 107.661 273.642 107.667 273.647L110.497 275.825C113.093 275.599 115.031 275.117 116.31 274.379C117.349 273.78 118.541 272.532 119.887 270.637L119.887 270.637C120.403 269.91 121.412 269.739 122.14 270.255C122.171 270.277 122.202 270.301 122.231 270.325Z" fill="#E4E4E4"/>
<path fill-rule="evenodd" clip-rule="evenodd" d="M77.0114 292.64C77.9153 295.051 78.3672 296.856 78.3672 298.053C78.3672 299.509 78.1245 301.634 77.6391 304.428C75.949 304.428 60.7601 304.428 32.0724 304.428C30.8882 300.515 31.5718 298.403 34.123 298.091C36.6742 297.779 38.7935 297.497 40.481 297.246L61.6599 287.808C62.0675 287.627 62.5451 287.81 62.7268 288.217C62.7299 288.224 62.7329 288.231 62.7358 288.238L64.0972 291.539C66.4589 292.64 68.3781 293.191 69.8547 293.191C71.0543 293.191 72.7111 292.707 74.825 291.738L74.825 291.738C75.6362 291.367 76.5953 291.722 76.9671 292.533C76.9832 292.568 76.9979 292.604 77.0114 292.64Z" fill="#E4E4E4"/>
<path fill-rule="evenodd" clip-rule="evenodd" d="M46.2347 199.802C46.2347 221.255 56.4277 271.296 56.4342 276.02L78.365 276.037C75.155 231.386 74.0168 208.82 74.9503 208.339C76.3506 207.617 132.352 213.927 149.148 213.927C173.367 213.927 183.386 198.662 184.199 170.383H136.221C126.453 171.428 75.4979 181.7 56.5744 185.231C48.4729 186.743 46.2347 193.893 46.2347 199.802Z" fill="#2B44FF"/>
<path fill-rule="evenodd" clip-rule="evenodd" d="M128.75 120.076L100.708 104.725C96.045 99.19 91.4504 94.8914 86.9245 91.8291C85.5416 91.252 83.1231 90.9027 85.3848 94.9151C87.6465 98.9274 89.845 103.249 88.6927 104.486C87.5405 105.722 84.6672 103.995 83.2926 106.049C82.3762 107.418 87.2849 109.581 98.0188 112.538L118.395 131.185L128.75 120.076ZM84.8313 133.028L72.5137 126.264C70.7853 119.691 68.7193 116.384 66.3156 116.343C64.4691 115.484 67.6848 123.79 64.1844 123.07C60.684 122.349 52.1404 115.998 50.6683 117.288C48.4904 119.195 50.4323 125.053 52.7204 127.967C56.9967 133.414 60.5374 135.276 69.2887 137.715C73.8643 138.99 78.8113 141.546 84.1298 145.383L84.8313 133.028Z" fill="#997659"/>
<path fill-rule="evenodd" clip-rule="evenodd" d="M142.405 116.656C132.583 116.552 119.485 114.479 105.509 105.612L100.021 117.845C109.661 127.408 123.215 135.264 135.067 134.931C144.407 134.669 149.181 123.377 142.405 116.656Z" fill="#2026A2"/>
<path fill-rule="evenodd" clip-rule="evenodd" d="M129.181 136.275C118.753 138.874 101.267 135.809 76.7226 127.079C70.6345 139.668 67.8202 148.643 68.2795 154.004C89.3352 164.998 107.382 169.899 122.25 170.222C121.777 179.04 122.851 187.431 126.458 195.097C133.874 210.858 177.298 196.262 191.899 199.135C201.042 169.455 183.363 157.394 183.349 138.403C183.333 117.606 166.626 85.5952 164.168 85.5952H141.752C140.515 101.478 134.29 118.982 129.181 136.275Z" fill="#1F28CF"/>
</svg>
