<svg width="27" height="27" viewBox="0 0 27 27" fill="none" xmlns="http://www.w3.org/2000/svg">
<g clip-path="url(#clip0)">
<path d="M7.65568 19.4578C7.0824 17.822 6.75714 16.0975 6.68384 14.2935H12.7202V19.4578H7.65568Z" fill="#D9D9D9"/>
<path d="M10.2789 24.3058C9.4918 23.2684 8.83298 22.1792 8.302 21.0426H12.7201V26.9376C12.0415 26.3402 11.1569 25.463 10.2789 24.3058Z" fill="#D9D9D9"/>
<path d="M1.35221 19.4578C0.566314 17.8585 0.104256 16.1099 0 14.2935H5.09873C5.16707 16.0751 5.4666 17.8053 5.99226 19.4578H1.35221Z" fill="#D9D9D9"/>
<path d="M6.68506 12.7087C6.76685 10.7667 7.14337 9.04333 7.66998 7.54452H12.72V12.7087H6.68506Z" fill="#D9D9D9"/>
<path d="M8.3147 5.95972C8.93528 4.62438 9.65162 3.51732 10.3172 2.64631C11.1867 1.50851 12.0536 0.649155 12.7203 0.0623798V5.95966H8.3147V5.95972Z" fill="#D9D9D9"/>
<path d="M19.3298 19.4578H14.3049V14.2935H20.3147C20.2329 16.2356 19.8563 17.959 19.3298 19.4578Z" fill="#D9D9D9"/>
<path d="M5.09873 12.7087H0C0.104256 10.8924 0.566314 9.14379 1.35221 7.54452H5.99226C5.4666 9.19695 5.16707 10.9272 5.09873 12.7087Z" fill="#D9D9D9"/>
<path d="M16.6828 24.3559C15.8243 25.4794 14.9683 26.3315 14.3049 26.9177V21.0425H18.6853C18.0648 22.3779 17.3484 23.485 16.6828 24.3559Z" fill="#D9D9D9"/>
<path d="M3.93727 23.0638C3.3111 22.4376 2.75444 21.7607 2.27002 21.0426H6.57478V21.0425C7.20975 22.5546 8.04312 23.9903 9.05783 25.3182C9.41822 25.7898 9.77834 26.2174 10.1269 26.6024C7.80518 26.0089 5.67608 24.8025 3.93727 23.0638Z" fill="#D9D9D9"/>
<path d="M9.05783 1.68407C8.04306 3.01197 7.20975 4.44767 6.57478 5.95972H2.27002C2.75444 5.24163 3.3111 4.56463 3.93727 3.93852C5.67613 2.19971 7.80523 0.993356 10.1269 0.399937C9.77834 0.784844 9.41822 1.21241 9.05783 1.68407Z" fill="#D9D9D9"/>
<path d="M20.4251 5.95959C19.7902 4.44759 18.9568 3.0119 17.9421 1.684C17.5817 1.21234 17.2216 0.78477 16.873 0.399809C19.1947 0.993281 21.3238 2.19963 23.0626 3.93839C23.6888 4.56456 24.2455 5.24151 24.7299 5.95959H20.4251Z" fill="#D9D9D9"/>
<path d="M14.3049 5.95972V0.0868988C14.9803 0.683852 15.8538 1.55371 16.721 2.69651C17.5081 3.7339 18.1669 4.82303 18.6979 5.95972H14.3049Z" fill="#D9D9D9"/>
<path d="M23.0626 23.0637C21.3238 24.8025 19.1947 26.0089 16.873 26.6023C17.2216 26.2173 17.5817 25.7898 17.9421 25.3181C18.9568 23.9902 19.7902 22.5545 20.4251 21.0425H24.7299C24.2455 21.7606 23.6888 22.4376 23.0626 23.0637Z" fill="#D9D9D9"/>
<path d="M25.6478 19.4578H21.0078C21.5334 17.8053 21.833 16.0751 21.9013 14.2935H27C26.8958 16.1099 26.4337 17.8585 25.6478 19.4578Z" fill="#D9D9D9"/>
<path d="M14.3049 12.7087V7.54452H19.3443C19.9176 9.18023 20.2428 10.9048 20.3161 12.7087H14.3049Z" fill="#D9D9D9"/>
<path d="M21.9011 12.7087C21.8328 10.9272 21.5332 9.197 21.0076 7.54452H25.6476C26.4335 9.14379 26.8955 10.8924 26.9998 12.7087H21.9011Z" fill="#D9D9D9"/>
</g>
<defs>
<clipPath id="clip0">
<rect width="27" height="27" fill="white" transform="matrix(1 0 0 -1 0 27)"/>
</clipPath>
</defs>
</svg>
