<svg width="323" height="360" viewBox="0 0 323 360" fill="none" xmlns="http://www.w3.org/2000/svg">
<ellipse cx="164.699" cy="124.2" rx="103.5" ry="103.5" fill="#6BBEA1"/>
<path fill-rule="evenodd" clip-rule="evenodd" d="M176.162 79.6412C180.309 74.7733 183.116 68.8077 182.647 62.123C181.295 42.8626 154.484 47.0996 149.269 56.8206C144.053 66.5416 144.673 91.1998 151.413 92.9372C154.101 93.6301 159.828 91.9328 165.656 88.42L161.998 114.3H183.598L176.162 79.6412Z" fill="#B28B67"/>
<path fill-rule="evenodd" clip-rule="evenodd" d="M192.066 55.7117C192.764 55.0204 193.144 54.0336 193.473 53.0965C193.815 52.1232 194.147 51.1398 194.374 50.1266C194.828 48.1023 194.832 45.7743 193.388 44.2025C192.23 42.942 190.492 42.3766 188.888 42.2537C187.82 42.1718 186.722 42.3214 185.698 42.6582C184.682 42.9922 183.806 43.658 182.821 44.0712C182.783 41.8897 182.409 39.6071 181.303 37.7445C180.238 35.9523 178.54 34.9466 176.606 34.6805C174.621 34.4075 172.662 34.8719 170.885 35.8327C170.44 36.0734 169.999 36.3255 169.577 36.6108C169.224 36.8497 168.857 37.1375 168.443 37.2346C167.981 37.3431 167.752 37.0763 167.452 36.7393C167.1 36.3442 166.703 35.9962 166.284 35.6877C164.428 34.3237 161.993 33.7629 159.844 34.5805C158.853 34.9572 157.89 35.5968 157.218 36.4783C156.619 37.2641 156.192 38.5105 155.365 39.058C155.014 39.2904 154.766 38.9825 154.447 38.7549C153.967 38.413 153.51 38.0357 153.024 37.7031C152.342 37.2358 151.603 36.8863 150.813 36.7033C149.655 36.4354 148.055 36.4982 147.724 38.0146C147.6 38.5841 147.695 39.1933 147.735 39.7672C147.79 40.5552 147.848 41.3429 147.916 42.1297C147.968 42.7271 148.034 43.3041 148.147 43.8908C148.207 44.2035 148.395 44.7865 148.261 45.0997C148.093 45.4912 147.32 45.2686 146.989 45.2822C146.337 45.3092 145.681 45.4236 145.078 45.7025C144.61 45.9187 144.118 46.2366 143.921 46.7727C143.8 47.102 143.831 47.4402 143.889 47.779C143.958 48.1856 143.879 48.4013 143.828 48.8115C142.951 48.3798 139.913 47.4208 139.531 48.9918C139.404 49.5149 139.694 50.1059 139.915 50.5471C140.303 51.3208 140.811 52.0281 141.331 52.7025C142.415 54.1095 143.709 55.3231 145.101 56.3609C143.47 57.0862 143.044 59.2256 144.457 60.5002C145.08 61.063 145.919 61.1883 146.706 61.1523C146.994 61.1391 147.409 61.0284 147.635 61.0786C147.757 61.1055 147.888 61.2089 148.057 61.2204C149.167 61.2965 150.42 61.029 151.506 60.7826C153.44 60.3436 155.27 59.4274 156.766 58.0319C157.149 57.674 157.466 57.4679 157.982 57.4732C158.435 57.4778 158.878 57.6018 159.33 57.6132C160.526 57.6438 161.604 57.0592 162.715 56.6701C162.783 58.1702 163.21 59.8224 163.824 61.172C164.324 62.2725 165.369 62.4325 166.396 62.529C169.68 62.838 172.975 62.4932 176.263 62.4978C173.08 63.2172 169.791 63.5137 166.637 64.3602C165.211 64.7428 166.3 65.7038 166.909 66.37C167.913 67.4671 168.66 68.8264 169.178 70.2583C170.734 68.2288 173.486 66.8916 175.925 67.5151C178.618 68.2039 180.515 71.8469 178.793 74.4659C177.793 75.9863 175.987 76.5732 174.484 77.2264C175.656 78.4453 175.94 80.2454 176.645 81.7618C176.993 82.5096 177.482 83.3551 178.26 83.6157C178.548 83.7121 178.886 83.7204 179.113 83.9551C179.394 84.2457 179.461 84.5706 179.821 84.8204C181.254 85.8173 183.494 85.7404 184.765 84.4395C185.915 83.2629 185.616 81.4011 184.656 80.2082C186.184 79.5713 188.968 78.7521 188.36 76.3716C191.671 76.1517 199.71 70.7818 195.266 66.8578C197.705 65.4795 199.946 62.111 198.379 59.1416C197.173 56.8551 194.368 55.833 192.066 55.7117Z" fill="#191847"/>
<path fill-rule="evenodd" clip-rule="evenodd" d="M143.426 132.93L112.187 115.821C106.992 109.652 101.874 104.861 96.8319 101.448C95.2913 100.805 92.5971 100.416 95.1167 104.888C97.6363 109.36 100.085 114.177 98.8017 115.554C97.5181 116.932 94.3173 115.008 92.786 117.297C91.7651 118.823 97.2334 121.233 109.191 124.529L131.89 145.312L143.426 132.93ZM94.5 147.366L80.7782 139.828C78.8528 132.502 76.5512 128.816 73.8735 128.77C71.8165 127.813 75.3988 137.07 71.4993 136.267C67.5998 135.464 58.0822 128.386 56.4422 129.823C54.0161 131.949 56.1794 138.478 58.7283 141.726C63.4922 147.796 67.4365 149.872 77.1855 152.59C82.2828 154.011 87.7938 156.86 93.7186 161.136L94.5 147.366Z" fill="#997659"/>
<path fill-rule="evenodd" clip-rule="evenodd" d="M158.64 129.119C147.698 129.003 133.107 126.692 117.539 116.81L111.425 130.445C122.164 141.102 137.263 149.859 150.466 149.488C160.871 149.196 166.189 136.61 158.64 129.119Z" fill="#2026A2"/>
<path fill-rule="evenodd" clip-rule="evenodd" d="M143.906 150.985C132.29 153.882 112.811 150.466 85.4679 140.736C78.6857 154.767 75.5505 164.77 76.0622 170.745C99.5184 182.998 119.622 188.461 136.185 188.821C135.659 198.649 98.6696 207.45 136.185 222.75C173.701 238.05 215.101 216 210.15 216.45C205.199 216.9 204.266 174.523 204.25 153.357C204.233 130.178 185.621 94.5 182.883 94.5H157.911C156.533 112.202 149.598 131.711 143.906 150.985Z" fill="#1F28CF"/>
</svg>
