<svg width="207" height="122" viewBox="0 0 207 122" fill="none" xmlns="http://www.w3.org/2000/svg">
<path d="M72.7909 23.606V94.5812H3.7452C1.72845 94.5812 0.09375 92.9841 0.09375 91.0139V23.606H72.7909Z" fill="#EAF6FF"/>
<path d="M72.7917 23.606V94.5812H25.1914C29.3742 94.5812 32.7624 91.2711 32.7624 87.1846V23.606H72.7917Z" fill="#C8EFFE"/>
<path d="M206.905 23.606V91.0117C206.905 92.9807 205.271 94.5769 203.255 94.5769H134.203V23.606H206.905Z" fill="#EAF6FF"/>
<path d="M206.903 23.606V91.0117C206.903 92.9807 205.269 94.5769 203.253 94.5769H187.617C191.94 94.5769 195.441 91.1559 195.441 86.933V23.606H206.903Z" fill="#C8EFFE"/>
<path d="M72.7909 10.6299V23.6058H0.09375V14.1972C0.09375 12.2269 1.72845 10.6299 3.7452 10.6299H72.7909Z" fill="#99E6FC"/>
<path d="M72.7903 10.6299V23.6058H32.761V18.2312C32.761 14.0338 29.2768 10.6299 24.9805 10.6299H72.7903Z" fill="#62DBFB"/>
<path d="M206.905 14.1951V23.6058H134.203V10.6299H203.255C205.271 10.6299 206.905 12.2261 206.905 14.1951Z" fill="#99E6FC"/>
<path d="M206.904 14.1951V23.6058H195.443V16.5463C195.443 13.2788 192.731 10.6299 189.387 10.6299H203.255C205.27 10.6299 206.904 12.2261 206.904 14.1951Z" fill="#62DBFB"/>
<path d="M159.092 3.63343V23.6058L102.718 25.6648L46.3477 23.6058V3.63343C46.3477 1.62647 48.0129 0 50.0668 0H155.372C157.426 0 159.092 1.6269 159.092 3.63343Z" fill="#5986CB"/>
<path d="M159.094 3.63343V23.6058H144.695V8.83831C144.695 3.95847 140.647 0 135.652 0H155.375C157.429 0 159.094 1.6269 159.094 3.63343Z" fill="#4278C3"/>
<path d="M159.092 23.606V117.501C159.092 119.508 157.426 121.134 155.372 121.134H50.0668C48.0125 121.134 46.3477 119.508 46.3477 117.501V23.606H159.092Z" fill="#EAF6FF"/>
<path d="M159.094 23.606V117.501C159.094 119.508 157.429 121.134 155.375 121.134H134.766C140.25 121.134 144.694 116.788 144.694 111.43V23.606H159.094Z" fill="#C8EFFE"/>
<path d="M131.726 76.204V82.3495C131.726 85.8251 128.839 88.6455 125.282 88.6455H81.7062C78.1486 88.6455 75.2617 85.8251 75.2617 82.3495V76.204C75.2617 72.7237 78.1486 69.9033 81.7062 69.9033H125.282C128.839 69.9033 131.726 72.7237 131.726 76.204Z" fill="#FFD064"/>
<path d="M131.726 76.2046V82.3513C131.726 85.8235 128.84 88.6473 125.282 88.6473H114.004C117.562 88.6473 120.453 85.8235 120.453 82.3513V76.2046C120.453 72.7238 117.562 69.9043 114.004 69.9043H125.282C128.84 69.9043 131.726 72.7238 131.726 76.2046Z" fill="#FFC250"/>
<path d="M87.1018 50.7554H65.5048C64.3286 50.7554 63.375 49.8238 63.375 48.6746V38.2248C63.375 37.0756 64.3286 36.144 65.5048 36.144H87.1018C88.278 36.144 89.2316 37.0756 89.2316 38.2248V48.6746C89.232 49.8238 88.2785 50.7554 87.1018 50.7554Z" fill="#5986CB"/>
<path d="M121.704 15.1582H83.7317C81.9228 15.1582 80.457 13.7258 80.457 11.959C80.457 10.1922 81.9228 8.75977 83.7317 8.75977H121.704C123.513 8.75977 124.979 10.1922 124.979 11.959C124.979 13.7258 123.513 15.1582 121.704 15.1582Z" fill="#61A2F9"/>
<path d="M191.657 50.0044H172.204C170.395 50.0044 168.93 48.572 168.93 46.8052C168.93 45.0383 170.395 43.606 172.204 43.606H191.657C193.466 43.606 194.932 45.0383 194.932 46.8052C194.932 48.572 193.466 50.0044 191.657 50.0044Z" fill="#62DBFB"/>
<path d="M191.657 63.7666H172.204C170.395 63.7666 168.93 62.3342 168.93 60.5674C168.93 58.8006 170.395 57.3682 172.204 57.3682H191.657C193.466 57.3682 194.932 58.8006 194.932 60.5674C194.932 62.3342 193.466 63.7666 191.657 63.7666Z" fill="#62DBFB"/>
<path d="M32.7621 50.0044H13.3098C11.5009 50.0044 10.0352 48.572 10.0352 46.8052C10.0352 45.0383 11.5009 43.606 13.3098 43.606H32.7621C34.571 43.606 36.0367 45.0383 36.0367 46.8052C36.0367 48.572 34.571 50.0044 32.7621 50.0044Z" fill="#62DBFB"/>
<path d="M32.7621 63.7666H13.3098C11.5009 63.7666 10.0352 62.3342 10.0352 60.5674C10.0352 58.8006 11.5009 57.3682 13.3098 57.3682H32.7621C34.571 57.3682 36.0367 58.8006 36.0367 60.5674C36.0367 62.3342 34.571 63.7666 32.7621 63.7666Z" fill="#62DBFB"/>
<path d="M140.244 46.6489H105.505C103.696 46.6489 102.23 45.2165 102.23 43.4497C102.23 41.6829 103.696 40.2505 105.505 40.2505H140.244C142.053 40.2505 143.519 41.6829 143.519 43.4497C143.519 45.2165 142.053 46.6489 140.244 46.6489Z" fill="#61A2F9"/>
</svg>
