<svg width="219" height="225" viewBox="0 0 219 225" fill="none" xmlns="http://www.w3.org/2000/svg">
<circle cx="103.5" cy="95.5" r="95.5" fill="#0F79AF"/>
<path fill-rule="evenodd" clip-rule="evenodd" d="M139.762 41.2902C143.209 53.9923 147.701 82.5438 143.117 87.0225H114.117C114.114 86.971 114.111 86.9197 114.109 86.8685C103.36 85.679 95 76.5658 95 65.5V44.5C95 32.6259 104.626 23 116.5 23H118.5C129.283 23 138.212 30.9385 139.762 41.2902Z" fill="#191847"/>
<path fill-rule="evenodd" clip-rule="evenodd" d="M106.262 61.4901C101.654 56.0814 98.5356 49.4529 99.0568 42.0255C100.558 20.625 130.349 25.3328 136.143 36.1339C141.938 46.9351 141.25 74.333 133.76 76.2635C130.774 77.0333 124.411 75.1475 117.935 71.2443L122 100H98L106.262 61.4901Z" fill="#B28B67"/>
<path fill-rule="evenodd" clip-rule="evenodd" d="M112.75 57.8748C113.856 69.7528 113.413 83.3173 110.117 86.5371H81.1173C79.5015 58.4635 95.1173 69.3349 95.1173 42.9028C96.0909 41.9515 97.0108 41.01 97.9211 40.1981L97.8889 39.4207C102.911 29.1402 109.281 24 117.001 24C128.581 24 132.237 29.3883 135.349 33.9631C133.022 41.9482 123.99 43.1322 115.966 48.1095C115.02 47.341 113.814 46.8804 112.5 46.8804C109.462 46.8804 107 49.3428 107 52.3804C107 55.418 109.462 57.8804 112.5 57.8804C112.584 57.8804 112.667 57.8785 112.75 57.8748Z" fill="#191847"/>
<path fill-rule="evenodd" clip-rule="evenodd" d="M168.035 145.683L196.437 133.209C201.412 128.251 206.216 124.482 210.85 121.904C212.235 121.463 214.602 121.329 212.077 125.018C209.551 128.707 207.061 132.701 208.07 133.994C209.079 135.287 212.002 133.86 213.157 135.962C213.927 137.364 209 139.04 198.375 140.992L177.104 157.302L168.035 145.683ZM53.2119 149.119L69.2738 152.306C53.1209 182.411 44.4583 198.367 43.2862 200.173C40.6489 204.238 43.1096 211.686 44.0185 215.609C38.3163 216.936 40.5651 208.353 33.349 210.145C26.7625 211.781 21.178 215.979 15.0363 210.317C14.2813 209.621 13.7285 207.445 16.303 206.33C22.7168 203.55 32.1928 198.344 33.7293 196.323C35.8246 193.567 42.3188 177.832 53.2119 149.119Z" fill="#B28B67"/>
<path fill-rule="evenodd" clip-rule="evenodd" d="M112.93 89.0197L119.707 87.857C134.47 102.179 140.495 136.586 150.333 141.141C159.635 145.447 172.82 141.28 188.494 135.653L193.294 146.379C179.053 161.787 148.714 174.804 136.417 167.373C116.756 155.491 112.217 113.055 112.93 89.0197Z" fill="#DB2721"/>
<path fill-rule="evenodd" clip-rule="evenodd" d="M83.3828 174.203C110.559 174.203 130.55 174.203 143.354 174.203C146.095 174.203 145.578 170.246 145.182 168.249C140.61 145.202 122.763 120.359 122.763 87.5527L105.464 84.8398C91.1564 107.854 86.2084 136.188 83.3828 174.203Z" fill="#DDE3E9"/>
<path fill-rule="evenodd" clip-rule="evenodd" d="M77.3992 150.869C65.1737 172.923 54.8974 188.802 46.5705 198.503L34 196.041C42.0973 145.819 65.5462 108.752 104.346 84.8398H104.544L111.196 84.8398C126.725 137.781 163.212 175.483 124.496 189C114.146 192.613 96.4961 191 96.4961 191C96.4961 191 80.9961 191 68.9961 184.5C56.9961 178 73.6484 164.154 77.3992 150.869Z" fill="#FF4133"/>
</svg>
