<svg width="294" height="151" viewBox="0 0 294 151" fill="none" xmlns="http://www.w3.org/2000/svg">
<g clip-path="url(#clip0)">
<path d="M66.2148 88.3174C66.3608 88.5035 66.5018 88.6949 66.6428 88.8886C66.5018 88.6949 66.3608 88.5038 66.2148 88.3174Z" fill="#78B9EB"/>
<path d="M64.6641 86.5283C64.7673 86.6339 64.8578 86.7472 64.9584 86.8554C64.8581 86.7472 64.7673 86.6339 64.6641 86.5283Z" fill="#78B9EB"/>
<path d="M67.6562 90.439C67.7468 90.5926 67.8477 90.741 67.9356 90.897C67.8474 90.741 67.7468 90.6 67.6562 90.439Z" fill="#78B9EB"/>
<path d="M68.957 93.0239C69.0249 93.1926 69.0803 93.3687 69.1458 93.5273C69.0803 93.3687 69.0252 93.1923 68.957 93.0239Z" fill="#78B9EB"/>
<path d="M62.4492 84.6079C62.6079 84.7288 62.7739 84.8444 62.9299 84.9677C62.7736 84.8421 62.6076 84.7288 62.4492 84.6079Z" fill="#78B9EB"/>
<path d="M60.3594 83.2212C60.5632 83.3371 60.7619 83.4728 60.9634 83.586C60.7619 83.4627 60.5632 83.3395 60.3594 83.2212Z" fill="#78B9EB"/>
<path d="M61.6992 117.277C63.1865 116.341 64.5809 115.269 65.8668 114.071C66.2215 113.736 66.5336 113.354 66.7905 112.938C68.1695 110.714 69.1888 108.285 69.8105 105.743C68.5848 110.439 65.7057 114.537 61.6992 117.277Z" fill="#78B9EB"/>
<path d="M52.8281 80.7046C53.0673 80.7323 53.3012 80.7751 53.5354 80.8128C53.3012 80.7851 53.0673 80.7323 52.8281 80.7046Z" fill="#78B9EB"/>
<path d="M58.2344 82.144C58.3226 82.1818 58.4031 82.2296 58.4859 82.2673C58.4031 82.2296 58.3223 82.1818 58.2344 82.144Z" fill="#78B9EB"/>
<path d="M69.7305 95.3286C69.7959 95.5651 69.8564 95.8017 69.9142 96.0408C69.8564 95.8017 69.7959 95.5651 69.7305 95.3286Z" fill="#78B9EB"/>
<path d="M50.2408 120.8C49.6695 120.8 49.1133 120.742 48.5547 120.692C49.1133 120.737 49.6695 120.8 50.2408 120.8Z" fill="#78B9EB"/>
<path d="M55.427 120.125L55.125 120.204L55.427 120.125Z" fill="#78B9EB"/>
<path d="M70.2773 98.0317C70.2974 98.1801 70.3278 98.3237 70.3452 98.472C70.3275 98.3237 70.2974 98.1801 70.2773 98.0317Z" fill="#78B9EB"/>
<path d="M47.7244 120.629C46.909 120.521 46.0985 120.37 45.3008 120.171C46.0985 120.37 46.909 120.521 47.7244 120.629Z" fill="#78B9EB"/>
<path d="M52.9374 120.614C52.8215 120.629 52.7136 120.652 52.5977 120.665C52.7109 120.652 52.8242 120.629 52.9374 120.614Z" fill="#78B9EB"/>
<path d="M61.3708 117.498C61.0134 117.732 60.6459 117.951 60.2734 118.165C60.6536 117.964 61.006 117.725 61.3708 117.498Z" fill="#78B9EB"/>
<path d="M70.4507 100.966C70.4507 101.185 70.428 101.399 70.418 101.616C70.428 101.399 70.4484 101.17 70.4507 100.966Z" fill="#78B9EB"/>
<path d="M70.2414 103.533C70.1987 103.83 70.1609 104.13 70.1055 104.422C70.1586 104.125 70.2013 103.83 70.2414 103.533Z" fill="#78B9EB"/>
<path d="M55.3359 81.1855C55.5524 81.241 55.7712 81.2888 55.9854 81.3516C55.7712 81.2888 55.5524 81.241 55.3359 81.1855Z" fill="#78B9EB"/>
<path d="M7.54906 110.734H10.3175C12.4038 110.734 14.2686 112.027 15.0035 113.98C15.2905 114.735 15.5998 115.477 15.9322 116.207C16.8031 118.11 16.4029 120.352 14.9256 121.835L12.96 123.82C10.9996 125.786 10.9996 128.967 12.96 130.933L20.072 138.045C22.0377 140.005 25.2187 140.005 27.1841 138.045L29.1597 136.077C30.642 134.599 32.8843 134.199 34.7872 135.07C35.5171 135.405 36.2594 135.714 37.0144 135.999C38.9674 136.731 40.2636 138.596 40.2659 140.682V143.451C40.2659 146.232 42.5182 148.484 45.2993 148.484H55.3659C58.1467 148.484 60.3993 146.232 60.3993 143.451V140.682C60.3993 138.596 61.6929 136.731 63.6458 135.996C64.4008 135.709 65.1432 135.4 65.8731 135.068C67.7756 134.197 70.0179 134.597 71.5005 136.074L73.4762 138.042C75.4418 140.003 78.6229 140.003 80.5882 138.042L87.7003 130.93C89.6606 128.965 89.6606 125.783 87.7003 123.818L85.7322 121.842C84.255 120.36 83.8548 118.118 84.7257 116.215C85.0604 115.485 85.3701 114.743 85.6544 113.988C86.3867 112.03 88.2568 110.734 90.3481 110.734H93.1165C95.8973 110.734 98.1499 108.481 98.1499 105.7V95.6336C98.1499 92.8528 95.8976 90.6002 93.1165 90.6002H90.3481C88.2618 90.6002 86.397 89.3067 85.6621 87.3537C85.3751 86.5987 85.0657 85.8564 84.7334 85.1264C83.8601 83.2239 84.2627 80.9816 85.7399 79.499L87.7079 77.5234C89.6683 75.5577 89.6683 72.3767 87.7079 70.4113L80.5953 63.2993C78.6296 61.3389 75.4486 61.3389 73.4833 63.2993L71.5076 65.2673C70.0253 66.7446 67.783 67.1448 65.8802 66.2739C65.1502 65.9391 64.4079 65.6295 63.6529 65.3452C61.6949 64.6129 60.3988 62.7431 60.3988 60.6515V57.883C60.3988 55.1022 58.1464 52.8496 55.3653 52.8496H45.2991C42.5182 52.8496 40.2656 55.1019 40.2656 57.883V60.6515C40.2656 62.7377 38.9721 64.6025 37.0191 65.3375C36.2641 65.6244 35.5218 65.9338 34.7919 66.2662C32.8893 67.1371 30.647 66.7369 29.1645 65.2596L27.1788 63.294C25.2131 61.3336 22.0321 61.3336 20.0667 63.294L12.9647 70.411C11.0044 72.3767 11.0044 75.5577 12.9647 77.5231L14.9327 79.4988C16.41 80.981 16.8126 83.2233 15.9393 85.1262C15.6046 85.8561 15.2949 86.5984 15.0106 87.3534C14.2756 89.3087 12.4058 90.6026 10.3169 90.5999H7.54906C4.76824 90.5999 2.51562 92.8522 2.51562 95.6333V105.7C2.51562 108.481 4.76824 110.734 7.54906 110.734ZM45.2991 81.1627C46.945 80.7474 48.6361 80.536 50.3325 80.5336C51.1656 80.5386 51.9985 80.5964 52.8266 80.7047C53.0658 80.7324 53.2997 80.7752 53.5339 80.8129C54.1455 80.9085 54.7445 81.0344 55.3358 81.1854C55.5523 81.2409 55.7711 81.2886 55.9852 81.3514C56.7503 81.5703 57.5003 81.8345 58.2326 82.1442C58.3207 82.182 58.4012 82.2297 58.4841 82.2675C59.1232 82.5518 59.7476 82.8715 60.3539 83.2212C60.5577 83.3395 60.7565 83.4728 60.9579 83.5861C61.4614 83.9058 61.9645 84.2479 62.4429 84.608C62.6015 84.7289 62.7676 84.8421 62.9236 84.9678C63.5302 85.4559 64.1115 85.977 64.6601 86.5282C64.7633 86.6338 64.8538 86.747 64.9544 86.8553C65.3974 87.321 65.8176 87.8091 66.2128 88.3175C66.3588 88.5036 66.4998 88.695 66.6408 88.8888C67.0006 89.3922 67.3403 89.8953 67.6473 90.4392C67.7379 90.5928 67.8388 90.7412 67.9266 90.8972C68.3092 91.5844 68.6489 92.2966 68.9485 93.0239C69.0164 93.1926 69.0718 93.3663 69.1373 93.5273C69.3588 94.1136 69.5552 94.7102 69.7212 95.3192C69.7867 95.5558 69.8472 95.7923 69.905 96.0315C70.0586 96.6883 70.1792 97.3527 70.2674 98.0222C70.2875 98.1705 70.3179 98.3142 70.3353 98.4625C70.4184 99.1948 70.4636 99.9298 70.4662 100.667C70.4662 100.768 70.4662 100.866 70.4512 100.966C70.4512 101.18 70.4285 101.399 70.4184 101.616C70.3883 102.263 70.3303 102.902 70.2397 103.533C70.1993 103.83 70.1565 104.125 70.1037 104.422C70.0182 104.872 69.9073 105.31 69.7941 105.751C69.1724 108.293 68.1531 110.721 66.7741 112.946C66.5175 113.361 66.2052 113.744 65.8504 114.078C64.5695 115.271 63.1778 116.343 61.6952 117.277L61.3682 117.491C61.0033 117.717 60.6382 117.957 60.2708 118.158C58.7481 119.021 57.1198 119.678 55.4261 120.118L55.1241 120.196C54.4018 120.372 53.6719 120.511 52.9346 120.606C52.8213 120.621 52.7081 120.644 52.5948 120.657C51.8448 120.747 51.0875 120.795 50.3325 120.8H50.2393C49.668 120.8 49.1118 120.742 48.5532 120.692C48.2789 120.667 47.9946 120.669 47.7227 120.634C46.9073 120.526 46.0968 120.37 45.2991 120.171C34.5276 117.385 28.0523 106.395 30.8382 95.6236C32.6729 88.5316 38.2097 82.9974 45.2991 81.1627Z" fill="#0F79AF"/>
<path d="M67.9375 90.897C68.32 91.5841 68.6598 92.2964 68.9594 93.0236C68.6598 92.2961 68.32 91.5841 67.9375 90.897Z" fill="#78B9EB"/>
<path d="M69.1484 93.5371C69.3699 94.1234 69.5663 94.72 69.7324 95.3291C69.5663 94.72 69.3699 94.1237 69.1484 93.5371Z" fill="#78B9EB"/>
<path d="M70.4709 100.667C70.4683 99.9344 70.4282 99.2021 70.3477 98.4722C70.4358 99.3 70.4709 100.133 70.4559 100.966C70.4709 100.865 70.4709 100.768 70.4709 100.667Z" fill="#78B9EB"/>
<path d="M69.9141 96.041C70.0677 96.6978 70.1883 97.3623 70.2765 98.0317C70.1883 97.3623 70.0677 96.6978 69.9141 96.041Z" fill="#78B9EB"/>
<path d="M53.5352 80.813C54.1468 80.9085 54.7458 81.0345 55.3371 81.1855C54.7458 81.0368 54.1468 80.9085 53.5352 80.813Z" fill="#78B9EB"/>
<path d="M50.3359 80.5337C51.1691 80.5387 52.002 80.5965 52.8301 80.7048C52.002 80.5965 51.1688 80.5387 50.3359 80.5337Z" fill="#78B9EB"/>
<path d="M58.4883 82.2676C59.1274 82.5519 59.7517 82.8689 60.3581 83.2213C59.7514 82.8716 59.1274 82.5519 58.4883 82.2676Z" fill="#78B9EB"/>
<path d="M55.9883 81.3516C56.7533 81.5704 57.5033 81.8346 58.2356 82.1443C57.5033 81.8346 56.7533 81.5704 55.9883 81.3516Z" fill="#78B9EB"/>
<path d="M66.6445 88.8887C67.0043 89.3921 67.3441 89.8953 67.6511 90.4391C67.3441 89.9056 67.0043 89.3871 66.6445 88.8887Z" fill="#78B9EB"/>
<path d="M64.9609 86.8555C65.4013 87.3211 65.8215 87.8092 66.2194 88.3177C65.8242 87.8095 65.4039 87.3211 64.9609 86.8555Z" fill="#78B9EB"/>
<path d="M60.9648 83.5864C61.4683 83.9061 61.9714 84.2482 62.4498 84.6083C61.9691 84.2482 61.4756 83.9058 60.9648 83.5864Z" fill="#78B9EB"/>
<path d="M62.918 84.9678C63.527 85.4535 64.1059 85.9743 64.6545 86.5282C64.1059 85.977 63.5246 85.4562 62.918 84.9678Z" fill="#78B9EB"/>
<path d="M60.2744 118.166C58.7443 119.014 57.1184 119.671 55.4297 120.126C57.1234 119.686 58.7517 119.029 60.2744 118.166Z" fill="#78B9EB"/>
<path d="M55.1192 120.204C54.3969 120.38 53.667 120.518 52.9297 120.614C53.667 120.518 54.3969 120.38 55.1192 120.204Z" fill="#78B9EB"/>
<path d="M50.3366 120.801C51.0943 120.798 51.8493 120.753 52.6016 120.665C51.8189 120.755 51.0338 120.798 50.2461 120.796L50.3366 120.801Z" fill="#78B9EB"/>
<path d="M48.5571 120.687C48.2828 120.662 47.9985 120.664 47.7266 120.629C47.9982 120.664 48.2825 120.662 48.5571 120.687Z" fill="#78B9EB"/>
<path d="M70.4209 101.616C70.3932 102.25 70.3304 102.889 70.2422 103.533C70.333 102.902 70.3908 102.262 70.4209 101.616Z" fill="#78B9EB"/>
<path d="M61.6982 117.277C61.5899 117.347 61.4817 117.423 61.3711 117.491L61.6982 117.277Z" fill="#78B9EB"/>
<path d="M70.1065 104.422C70.026 104.862 69.9051 105.308 69.7969 105.751C69.9101 105.31 70.0207 104.873 70.1065 104.422Z" fill="#78B9EB"/>
<path d="M93.1166 88.0835H90.3481C89.3062 88.0861 88.3751 87.4367 88.0177 86.4576C87.7106 85.6522 87.3809 84.8644 87.0261 84.0844C86.5858 83.1356 86.787 82.0131 87.5296 81.2758L89.5026 79.3001C92.4321 76.3456 92.427 71.5791 89.4899 68.6319L82.3779 61.5199C79.4257 58.5854 74.6592 58.5854 71.7073 61.5199L69.7343 63.4906C68.997 64.2305 67.8745 64.4316 66.9257 63.994C66.1457 63.6392 65.3579 63.3095 64.5501 62.9874C63.566 62.6326 62.9142 61.6962 62.9169 60.6519V57.8835C62.9169 53.7133 59.5371 50.3335 55.3669 50.3335H45.3C41.1298 50.3335 37.75 53.7133 37.75 57.8835V60.6519C37.7527 61.6939 37.1032 62.625 36.1241 62.9824C35.3187 63.2894 34.5309 63.6191 33.7509 63.9739C32.8021 64.4119 31.6796 64.2105 30.9423 63.4705L28.9666 61.4975C26.0145 58.5656 21.2506 58.5656 18.2984 61.4975L11.1864 68.6322C8.25191 71.5844 8.25191 76.3509 11.1864 79.3028L13.1571 81.2758C13.8994 82.0131 14.1008 83.1356 13.6605 84.0844C13.3057 84.8644 12.976 85.6522 12.6663 86.4599C12.3065 87.4441 11.3651 88.0932 10.3181 88.0832H7.55C3.3798 88.0832 0 91.463 0 95.6332V105.7C0 109.87 3.3798 113.25 7.55 113.25H10.3184C11.3604 113.247 12.2915 113.897 12.6489 114.876C12.9559 115.681 13.2856 116.469 13.6404 117.249C14.0807 118.198 13.8796 119.32 13.137 120.058L11.164 122.033C8.23215 124.986 8.23215 129.749 11.164 132.702L18.276 139.814C21.2282 142.748 25.9947 142.748 28.9466 139.814L30.9196 137.843C31.6569 137.103 32.7794 136.902 33.7281 137.34C34.5082 137.694 35.296 138.024 36.1037 138.346C37.0929 138.696 37.7521 139.632 37.7497 140.682V143.45C37.7497 147.62 41.1295 151 45.2997 151H55.3663C59.5365 151 62.9163 147.62 62.9163 143.45V140.682C62.9136 139.64 63.563 138.709 64.5422 138.351C65.3476 138.044 66.1353 137.714 66.9154 137.36C67.8642 136.922 68.9866 137.123 69.724 137.863L71.6996 139.836C74.6542 142.763 79.4183 142.758 82.3678 139.823L89.4799 132.711C92.4144 129.759 92.4144 124.993 89.4799 122.041L87.5092 120.068C86.7669 119.33 86.5655 118.208 87.0058 117.259C87.3606 116.479 87.6903 115.691 88.0124 114.884C88.3671 113.899 89.3035 113.248 90.3478 113.25H93.1163C97.2865 113.25 100.666 109.871 100.666 105.7V95.6338C100.667 91.4633 97.2868 88.0835 93.1166 88.0835ZM95.6334 105.7C95.6334 107.089 94.506 108.217 93.1169 108.217H90.3484C87.2202 108.229 84.419 110.162 83.3019 113.084C83.035 113.788 82.7456 114.483 82.4363 115.165C81.1427 118.021 81.7417 121.379 83.9463 123.611L85.9143 125.582C86.8984 126.563 86.8984 128.156 85.9169 129.14L85.9143 129.143L78.8022 136.255C77.8207 137.236 76.2276 137.236 75.2437 136.255L73.2707 134.284C71.0408 132.08 67.681 131.478 64.8247 132.774C64.1426 133.084 63.448 133.373 62.7485 133.64C59.829 134.757 57.8964 137.556 57.8837 140.681V143.45C57.8837 144.839 56.7562 145.966 55.3672 145.966H45.3C43.9109 145.966 42.7834 144.839 42.7834 143.45V140.681C42.7708 137.553 40.8381 134.752 37.9163 133.635C37.2118 133.368 36.5169 133.079 35.8351 132.769C32.9788 131.476 29.6214 132.077 27.3891 134.279L25.4184 136.247C24.4369 137.231 22.8438 137.231 21.8599 136.25L21.8573 136.247L14.7452 129.143C13.7637 128.161 13.7637 126.565 14.7452 125.584L16.7159 123.611C18.9204 121.379 19.5194 118.021 18.2259 115.165C17.9162 114.483 17.6269 113.788 17.3603 113.089C16.2455 110.167 13.447 108.229 10.3187 108.216H7.55C6.16092 108.216 5.03343 107.089 5.03343 105.7V95.6332C5.03343 94.2441 6.16092 93.1166 7.55 93.1166H10.3184C13.4467 93.104 16.2478 91.1713 17.365 88.2495C17.6319 87.545 17.9212 86.8501 18.2306 86.1683C19.5241 83.312 18.9251 79.9546 16.7206 77.7223L14.7426 75.7516C13.7584 74.7701 13.7584 73.177 14.7399 72.1931L14.7426 72.1904L21.8546 65.0784C22.8387 64.0969 24.4293 64.0969 25.4131 65.0784L27.3862 67.0491C29.6161 69.2536 32.9758 69.8553 35.8321 68.5591C36.5143 68.2494 37.2088 67.9601 37.9084 67.6935C40.8328 66.5787 42.7681 63.7802 42.7831 60.6519V57.8835C42.7831 56.4944 43.9106 55.3669 45.2997 55.3669H55.3663C56.7554 55.3669 57.8828 56.4944 57.8828 57.8835V60.6519C57.8955 63.7802 59.8281 66.5813 62.7499 67.6985C63.4545 67.9654 64.1493 68.2547 64.8312 68.5641C67.6875 69.8603 71.0473 69.2586 73.2772 67.0541L75.2478 65.0861C76.2344 64.1096 77.8225 64.1096 78.809 65.0861L85.9211 72.1981C86.9026 73.1796 86.9026 74.7751 85.9211 75.7566L83.9504 77.7297C81.7459 79.9619 81.1469 83.3193 82.4404 86.1756C82.7501 86.8578 83.0394 87.5523 83.306 88.2519C84.4234 91.1713 87.222 93.104 90.3475 93.1166H93.116C94.5051 93.1166 95.6325 94.2441 95.6325 95.6332V105.7H95.6334Z" fill="#D9D9D9"/>
<path d="M72.9354 99.6598C72.9103 99.0558 72.8675 98.4544 72.7944 97.8554C72.7139 97.211 72.6183 96.5719 72.4847 95.9452C72.3965 95.535 72.2809 95.1298 72.17 94.7222C72.0291 94.2037 71.8707 93.6929 71.6943 93.1895C71.5711 92.8397 71.4428 92.4923 71.3118 92.1475C70.9871 91.3421 70.6173 90.5543 70.202 89.792C70.1693 89.7342 70.1492 89.671 70.1165 89.6132C69.4621 88.448 68.7047 87.3432 67.8515 86.3139C67.7787 86.2234 67.6955 86.1379 67.62 86.0497C67.2726 85.6395 66.9154 85.2419 66.5403 84.8617C66.3439 84.658 66.1377 84.4666 65.9313 84.2704C65.6797 84.0363 65.4278 83.8047 65.1763 83.5833C64.8716 83.319 64.5596 83.0624 64.2425 82.8132L63.8299 82.5062C59.9367 79.5894 55.2002 78.014 50.3355 78.0166C50.0839 78.0166 49.8321 78.0544 49.5805 78.0644C49.0443 78.0794 48.5058 78.1098 47.9649 78.1649C47.6806 78.195 47.3937 78.2278 47.1094 78.2682C46.2889 78.3764 45.4761 78.5274 44.6706 78.7238C32.5529 81.8544 25.2671 94.2164 28.3977 106.337C30.4613 114.322 36.7001 120.556 44.688 122.612C44.7284 122.612 44.7712 122.625 44.814 122.635C45.6822 122.851 46.5632 123.02 47.4515 123.138C48.0378 123.211 48.6244 123.226 49.213 123.254C49.6056 123.274 49.968 123.332 50.3783 123.332C51.0955 123.332 51.8405 123.284 52.6005 123.209C52.681 123.209 52.7615 123.186 52.8521 123.176C53.4637 123.108 54.0828 123.018 54.7145 122.892C54.9661 122.844 55.2002 122.781 55.4418 122.726C55.8848 122.623 56.3251 122.514 56.7781 122.381C57.1305 122.276 57.4726 122.152 57.8174 122.031C58.1621 121.91 58.5196 121.78 58.877 121.644C59.2345 121.508 59.5338 121.352 59.8585 121.201C60.2814 121.007 60.7017 120.816 61.117 120.589H61.132C63.4802 119.331 65.6493 117.766 67.5822 115.931C68.1031 115.443 68.5587 114.889 68.9312 114.28C70.8969 111.132 72.1854 107.608 72.7213 103.936C72.7917 103.451 72.8546 102.965 72.8923 102.469C72.9274 102.014 72.9528 101.561 72.9628 101.108C72.9628 100.964 72.9828 100.828 72.9828 100.685C72.9858 100.329 72.9504 100.002 72.9354 99.6598ZM45.914 83.6033C47.3586 83.2385 48.8459 83.0521 50.3358 83.0497C51.0557 83.0548 51.773 83.1025 52.4875 83.1957C52.679 83.2184 52.8677 83.2535 53.0565 83.2813C53.6 83.3668 54.1385 83.475 54.6697 83.611C54.8434 83.6564 55.0171 83.6965 55.1881 83.7443C56.5271 84.1295 57.8156 84.673 59.026 85.3599C59.2197 85.4731 59.4085 85.5914 59.5999 85.7096C59.9974 85.9612 60.3826 86.2131 60.7625 86.4997C60.9663 86.6481 61.1727 86.7941 61.3691 86.9527C61.8625 87.3479 62.3356 87.7682 62.7859 88.2112C62.9646 88.3923 63.1283 88.5913 63.3017 88.7801C63.5911 89.0948 63.873 89.4168 64.1423 89.7566C64.3284 89.9907 64.5071 90.2323 64.6835 90.4765C64.935 90.8389 65.1869 91.2164 65.4134 91.5989C65.5393 91.8078 65.665 92.0115 65.7935 92.2257C66.1182 92.822 66.4076 93.4387 66.6591 94.0704C66.7597 94.322 66.8452 94.5738 66.9361 94.8254C67.0997 95.2884 67.2407 95.7565 67.364 96.2298C67.4268 96.4814 67.4973 96.7055 67.5501 96.9497C67.6961 97.6292 67.8043 98.3187 67.8698 99.0109C67.8848 99.1947 67.8848 99.3807 67.8975 99.5645C67.9326 100.143 67.9429 100.725 67.9202 101.309C67.9202 101.517 67.9025 101.727 67.8901 101.933C67.8447 102.542 67.7669 103.151 67.6636 103.762C66.7225 108.995 63.4734 113.525 58.8201 116.094C58.5081 116.258 58.2011 116.411 57.8941 116.552L57.6853 116.653C56.223 117.317 54.6803 117.782 53.0948 118.042C52.9842 118.059 52.8709 118.079 52.7577 118.094C52.443 118.14 52.1336 118.178 51.8266 118.205C51.4214 118.24 51.0138 118.26 50.5986 118.268C50.4225 118.268 50.2488 118.268 50.0727 118.268C49.4764 118.26 48.8824 118.225 48.2908 118.157L47.9888 118.122C47.2966 118.032 46.6098 117.903 45.9326 117.735C36.5078 115.321 30.8226 105.725 33.2336 96.3003C34.8267 90.0715 39.6888 85.2068 45.9149 83.6063L45.914 83.6033Z" fill="#D9D9D9"/>
<path d="M143.452 52.85H135.537C134.483 52.86 133.536 52.1956 133.192 51.199C132.412 48.8612 131.468 46.5808 130.365 44.3763C129.897 43.4249 130.093 42.28 130.849 41.535L136.461 35.9153C139.405 32.9681 139.405 28.1892 136.461 25.2421L125.76 14.5588C122.812 11.6143 118.034 11.6143 115.086 14.5588L109.477 20.1662C108.735 20.9212 107.589 21.1176 106.638 20.6519C104.434 19.5445 102.153 18.5957 99.813 17.8106C98.8114 17.4682 98.142 16.5221 98.152 15.4651V7.55C98.152 3.3798 94.7722 0 90.602 0H75.502C71.3318 0 67.952 3.3798 67.952 7.55V15.4648C67.962 16.5192 67.2976 17.4656 66.301 17.8103C63.9632 18.5954 61.6829 19.5442 59.4783 20.6493C58.5269 21.1173 57.3794 20.9235 56.637 20.1662L51.0173 14.5541C48.0651 11.6173 43.2963 11.6173 40.3441 14.5541L29.6635 25.2347C26.7163 28.1819 26.7163 32.9634 29.6635 35.9103L37.9157 44.1775C38.9149 45.144 40.5078 45.1186 41.4742 44.1221C42.418 43.1483 42.4206 41.6029 41.4792 40.624L33.222 32.3594C32.2405 31.3753 32.2405 29.7847 33.222 28.8009L43.9026 18.1203C44.8841 17.1388 46.4796 17.1388 47.4611 18.1203L53.0832 23.7324C55.3583 26.0201 58.8439 26.5937 61.7306 25.1518C63.7237 24.1526 65.7849 23.2971 67.8989 22.5875C70.949 21.5555 72.9978 18.6865 72.9851 15.4654V7.55C72.9851 6.16092 74.1126 5.03343 75.5017 5.03343H90.6017C91.9908 5.03343 93.1183 6.16092 93.1183 7.55V15.4648C93.1056 18.6863 95.1541 21.5526 98.2045 22.5845C100.318 23.2941 102.382 24.1523 104.375 25.1515C107.262 26.586 110.743 26.0121 113.02 23.7297L118.642 18.12C119.624 17.1385 121.219 17.1385 122.201 18.12L132.881 28.8033C133.863 29.7847 133.863 31.3779 132.881 32.3594L127.269 37.9815C124.984 40.2565 124.41 43.7422 125.85 46.6289C126.849 48.622 127.705 50.6832 128.414 52.7972C129.446 55.8473 132.315 57.8985 135.536 57.8834H143.452C144.841 57.8834 145.969 59.0109 145.969 60.4V75.5C145.969 76.8891 144.841 78.0166 143.452 78.0166H135.537C132.316 78.0039 129.449 80.0524 128.417 83.1028C127.708 85.2168 126.85 87.2804 125.85 89.2737C124.413 92.1604 124.987 95.6435 127.272 97.9185L132.884 103.541C133.866 104.522 133.866 106.118 132.884 107.099L122.198 117.78C121.217 118.761 119.624 118.761 118.642 117.78L110.372 109.527C109.406 108.528 107.813 108.503 106.814 109.47C105.815 110.436 105.79 112.029 106.756 113.028C106.776 113.048 106.796 113.069 106.819 113.089L115.086 121.341C118.033 124.285 122.812 124.285 125.759 121.341L136.44 110.663C139.387 107.713 139.387 102.937 136.44 99.9871L130.836 94.375C130.081 93.6327 129.884 92.4875 130.35 91.5361C131.458 89.3315 132.406 87.0515 133.191 84.711C133.534 83.7094 134.48 83.04 135.537 83.05H143.452C147.622 83.05 151.002 79.6702 151.002 75.5V60.4C151.002 56.2298 147.622 52.85 143.452 52.85Z" fill="#0F79AF"/>
<path d="M106.184 44.8167C93.3998 32.0598 72.7028 32.0598 59.9179 44.8167C58.9515 45.8159 58.9792 47.4087 59.9807 48.3752C60.9572 49.3163 62.5023 49.3163 63.4765 48.3752C74.2152 37.4932 91.7435 37.3749 102.626 48.1136C113.508 58.8523 113.626 76.3807 102.887 87.263C102.799 87.3512 102.714 87.4391 102.626 87.5246C101.627 88.491 101.599 90.0839 102.565 91.0831C103.532 92.0823 105.125 92.11 106.124 91.1436C106.144 91.1235 106.164 91.1032 106.184 91.0831C118.942 78.2982 118.942 57.6012 106.184 44.8167Z" fill="#D9D9D9"/>
</g>
<path d="M177.909 86.189C176.789 86.189 175.746 86.07 174.78 85.832C173.828 85.58 173.044 85.237 172.428 84.803C172.19 84.621 172.015 84.432 171.903 84.236C171.805 84.04 171.756 83.788 171.756 83.48C171.756 83.06 171.882 82.696 172.134 82.388C172.386 82.08 172.68 81.926 173.016 81.926C173.198 81.926 173.373 81.954 173.541 82.01C173.709 82.066 173.919 82.171 174.171 82.325C174.745 82.647 175.312 82.878 175.872 83.018C176.446 83.158 177.09 83.228 177.804 83.228C178.63 83.228 179.253 83.109 179.673 82.871C180.107 82.619 180.324 82.255 180.324 81.779C180.324 81.457 180.121 81.184 179.715 80.96C179.323 80.722 178.567 80.491 177.447 80.267C176.061 79.973 174.976 79.623 174.192 79.217C173.408 78.811 172.855 78.335 172.533 77.789C172.225 77.229 172.071 76.557 172.071 75.773C172.071 74.877 172.337 74.065 172.869 73.337C173.401 72.609 174.129 72.042 175.053 71.636C175.991 71.216 177.041 71.006 178.203 71.006C179.225 71.006 180.135 71.118 180.933 71.342C181.731 71.566 182.459 71.916 183.117 72.392C183.369 72.574 183.544 72.77 183.642 72.98C183.754 73.176 183.81 73.421 183.81 73.715C183.81 74.135 183.684 74.499 183.432 74.807C183.194 75.115 182.907 75.269 182.571 75.269C182.389 75.269 182.221 75.248 182.067 75.206C181.913 75.15 181.696 75.038 181.416 74.87C181.346 74.828 181.143 74.723 180.807 74.555C180.485 74.373 180.1 74.233 179.652 74.135C179.218 74.023 178.742 73.967 178.224 73.967C177.51 73.967 176.936 74.107 176.502 74.387C176.068 74.653 175.851 75.01 175.851 75.458C175.851 75.724 175.928 75.941 176.082 76.109C176.236 76.277 176.523 76.445 176.943 76.613C177.363 76.767 177.986 76.928 178.812 77.096C180.156 77.39 181.213 77.747 181.983 78.167C182.753 78.573 183.299 79.049 183.621 79.595C183.943 80.141 184.104 80.785 184.104 81.527C184.104 82.451 183.845 83.27 183.327 83.984C182.809 84.684 182.081 85.23 181.143 85.622C180.219 86 179.141 86.189 177.909 86.189ZM190.174 86C189.6 86 189.159 85.846 188.851 85.538C188.543 85.23 188.389 84.789 188.389 84.215V72.98C188.389 72.406 188.543 71.965 188.851 71.657C189.159 71.349 189.6 71.195 190.174 71.195H197.44C198.042 71.195 198.497 71.321 198.805 71.573C199.113 71.825 199.267 72.189 199.267 72.665C199.267 73.673 198.658 74.177 197.44 74.177H192.148V76.991H197.02C198.238 76.991 198.847 77.488 198.847 78.482C198.847 78.958 198.693 79.322 198.385 79.574C198.077 79.826 197.622 79.952 197.02 79.952H192.148V83.018H197.44C198.658 83.018 199.267 83.522 199.267 84.53C199.267 85.006 199.113 85.37 198.805 85.622C198.497 85.874 198.042 86 197.44 86H190.174ZM208.64 86.105C208.052 86.105 207.576 85.937 207.212 85.601C206.862 85.251 206.687 84.789 206.687 84.215V74.324H203.726C203.11 74.324 202.648 74.198 202.34 73.946C202.046 73.68 201.899 73.281 201.899 72.749C201.899 72.217 202.046 71.825 202.34 71.573C202.648 71.321 203.11 71.195 203.726 71.195H213.554C214.17 71.195 214.625 71.321 214.919 71.573C215.227 71.825 215.381 72.217 215.381 72.749C215.381 73.281 215.227 73.68 214.919 73.946C214.625 74.198 214.17 74.324 213.554 74.324H210.593V84.215C210.593 84.789 210.411 85.251 210.047 85.601C209.697 85.937 209.228 86.105 208.64 86.105ZM224.008 86.105C223.42 86.105 222.944 85.937 222.58 85.601C222.23 85.251 222.055 84.789 222.055 84.215V74.324H219.094C218.478 74.324 218.016 74.198 217.708 73.946C217.414 73.68 217.267 73.281 217.267 72.749C217.267 72.217 217.414 71.825 217.708 71.573C218.016 71.321 218.478 71.195 219.094 71.195H228.922C229.538 71.195 229.993 71.321 230.287 71.573C230.595 71.825 230.749 72.217 230.749 72.749C230.749 73.281 230.595 73.68 230.287 73.946C229.993 74.198 229.538 74.324 228.922 74.324H225.961V84.215C225.961 84.789 225.779 85.251 225.415 85.601C225.065 85.937 224.596 86.105 224.008 86.105ZM235.996 86.126C235.408 86.126 234.939 85.958 234.589 85.622C234.253 85.272 234.085 84.803 234.085 84.215V72.98C234.085 72.406 234.253 71.951 234.589 71.615C234.939 71.265 235.408 71.09 235.996 71.09C236.598 71.09 237.074 71.265 237.424 71.615C237.774 71.951 237.949 72.406 237.949 72.98V84.215C237.949 84.803 237.774 85.272 237.424 85.622C237.074 85.958 236.598 86.126 235.996 86.126ZM254.109 71.09C254.641 71.09 255.075 71.265 255.411 71.615C255.761 71.965 255.936 72.42 255.936 72.98V84.215C255.936 84.789 255.768 85.251 255.432 85.601C255.096 85.951 254.662 86.126 254.13 86.126C253.5 86.126 253.024 85.916 252.702 85.496L246.318 77.537V84.215C246.318 84.789 246.157 85.251 245.835 85.601C245.513 85.951 245.079 86.126 244.533 86.126C244.001 86.126 243.567 85.951 243.231 85.601C242.895 85.251 242.727 84.789 242.727 84.215V72.98C242.727 72.42 242.895 71.965 243.231 71.615C243.567 71.265 244.001 71.09 244.533 71.09C245.135 71.09 245.604 71.3 245.94 71.72L252.324 79.658V72.98C252.324 72.406 252.485 71.951 252.807 71.615C253.143 71.265 253.577 71.09 254.109 71.09ZM272.312 77.642C272.774 77.642 273.138 77.775 273.404 78.041C273.684 78.293 273.824 78.636 273.824 79.07V82.724C273.824 83.424 273.768 83.963 273.656 84.341C273.558 84.705 273.369 84.992 273.089 85.202C272.823 85.412 272.417 85.594 271.871 85.748C271.325 85.888 270.716 85.993 270.044 86.063C269.386 86.147 268.77 86.189 268.196 86.189C266.586 86.189 265.186 85.888 263.996 85.286C262.82 84.67 261.917 83.795 261.287 82.661C260.657 81.513 260.342 80.155 260.342 78.587C260.342 77.047 260.657 75.71 261.287 74.576C261.917 73.428 262.813 72.546 263.975 71.93C265.137 71.314 266.495 71.006 268.049 71.006C269.029 71.006 269.904 71.125 270.674 71.363C271.458 71.587 272.186 71.937 272.858 72.413C273.096 72.581 273.264 72.763 273.362 72.959C273.474 73.155 273.53 73.407 273.53 73.715C273.53 74.149 273.411 74.52 273.173 74.828C272.935 75.122 272.648 75.269 272.312 75.269C272.088 75.269 271.892 75.241 271.724 75.185C271.57 75.115 271.367 75.003 271.115 74.849C270.597 74.569 270.107 74.366 269.645 74.24C269.197 74.114 268.707 74.051 268.175 74.051C266.845 74.051 265.851 74.422 265.193 75.164C264.549 75.906 264.227 77.047 264.227 78.587C264.227 80.169 264.563 81.345 265.235 82.115C265.921 82.871 266.964 83.249 268.364 83.249C269.036 83.249 269.701 83.179 270.359 83.039V80.288H268.847C268.385 80.288 268.028 80.176 267.776 79.952C267.524 79.714 267.398 79.385 267.398 78.965C267.398 78.545 267.524 78.223 267.776 77.999C268.028 77.761 268.385 77.642 268.847 77.642H272.312ZM284.012 86.189C282.892 86.189 281.849 86.07 280.883 85.832C279.931 85.58 279.147 85.237 278.531 84.803C278.293 84.621 278.118 84.432 278.006 84.236C277.908 84.04 277.859 83.788 277.859 83.48C277.859 83.06 277.985 82.696 278.237 82.388C278.489 82.08 278.783 81.926 279.119 81.926C279.301 81.926 279.476 81.954 279.644 82.01C279.812 82.066 280.022 82.171 280.274 82.325C280.848 82.647 281.415 82.878 281.975 83.018C282.549 83.158 283.193 83.228 283.907 83.228C284.733 83.228 285.356 83.109 285.776 82.871C286.21 82.619 286.427 82.255 286.427 81.779C286.427 81.457 286.224 81.184 285.818 80.96C285.426 80.722 284.67 80.491 283.55 80.267C282.164 79.973 281.079 79.623 280.295 79.217C279.511 78.811 278.958 78.335 278.636 77.789C278.328 77.229 278.174 76.557 278.174 75.773C278.174 74.877 278.44 74.065 278.972 73.337C279.504 72.609 280.232 72.042 281.156 71.636C282.094 71.216 283.144 71.006 284.306 71.006C285.328 71.006 286.238 71.118 287.036 71.342C287.834 71.566 288.562 71.916 289.22 72.392C289.472 72.574 289.647 72.77 289.745 72.98C289.857 73.176 289.913 73.421 289.913 73.715C289.913 74.135 289.787 74.499 289.535 74.807C289.297 75.115 289.01 75.269 288.674 75.269C288.492 75.269 288.324 75.248 288.17 75.206C288.016 75.15 287.799 75.038 287.519 74.87C287.449 74.828 287.246 74.723 286.91 74.555C286.588 74.373 286.203 74.233 285.755 74.135C285.321 74.023 284.845 73.967 284.327 73.967C283.613 73.967 283.039 74.107 282.605 74.387C282.171 74.653 281.954 75.01 281.954 75.458C281.954 75.724 282.031 75.941 282.185 76.109C282.339 76.277 282.626 76.445 283.046 76.613C283.466 76.767 284.089 76.928 284.915 77.096C286.259 77.39 287.316 77.747 288.086 78.167C288.856 78.573 289.402 79.049 289.724 79.595C290.046 80.141 290.207 80.785 290.207 81.527C290.207 82.451 289.948 83.27 289.43 83.984C288.912 84.684 288.184 85.23 287.246 85.622C286.322 86 285.244 86.189 284.012 86.189Z" fill="#0F79AF"/>
<defs>
<clipPath id="clip0">
<rect width="151" height="151" fill="white"/>
</clipPath>
</defs>
</svg>
