<svg width="20" height="20" viewBox="0 0 20 20" fill="none" xmlns="http://www.w3.org/2000/svg">
<circle cx="10" cy="10" r="10" fill="white"/>
<path d="M9.8636 11.348C9.71627 11.348 9.59494 11.296 9.4996 11.192C9.41294 11.088 9.3696 10.945 9.3696 10.763C9.3696 10.2863 9.45627 9.88333 9.6296 9.554C9.80294 9.22467 10.0543 8.865 10.3836 8.475C10.6436 8.163 10.8343 7.903 10.9556 7.695C11.0769 7.487 11.1376 7.253 11.1376 6.993C11.1376 6.707 11.0293 6.48167 10.8126 6.317C10.6046 6.14367 10.3186 6.057 9.9546 6.057C9.6426 6.057 9.3436 6.12633 9.0576 6.265C8.7716 6.395 8.43793 6.58567 8.0566 6.837C7.83993 6.95833 7.66227 7.019 7.5236 7.019C7.37627 7.019 7.24627 6.954 7.1336 6.824C7.0296 6.68533 6.9776 6.525 6.9776 6.343C6.9776 6.09167 7.0816 5.888 7.2896 5.732C7.6536 5.42 8.0826 5.17733 8.5766 5.004C9.0706 4.822 9.56893 4.731 10.0716 4.731C10.6003 4.731 11.0683 4.822 11.4756 5.004C11.8916 5.186 12.2123 5.43733 12.4376 5.758C12.6716 6.07867 12.7886 6.447 12.7886 6.863C12.7886 7.31367 12.6803 7.708 12.4636 8.046C12.2469 8.37533 11.9306 8.748 11.5146 9.164C11.1593 9.528 10.8906 9.83567 10.7086 10.087C10.5353 10.3297 10.4269 10.607 10.3836 10.919C10.3576 11.0577 10.2969 11.166 10.2016 11.244C10.1149 11.3133 10.0023 11.348 9.8636 11.348ZM9.8896 14.078C9.61227 14.078 9.3826 13.987 9.2006 13.805C9.0186 13.6143 8.9276 13.3803 8.9276 13.103C8.9276 12.8257 9.0186 12.596 9.2006 12.414C9.3826 12.2233 9.61227 12.128 9.8896 12.128C10.1669 12.128 10.3966 12.2233 10.5786 12.414C10.7606 12.596 10.8516 12.8257 10.8516 13.103C10.8516 13.3803 10.7563 13.6143 10.5656 13.805C10.3836 13.987 10.1583 14.078 9.8896 14.078Z" fill="#828282"/>
</svg>
