<svg width="32" height="34" viewBox="0 0 32 34" fill="none" xmlns="http://www.w3.org/2000/svg">
<g clip-path="url(#clip0)">
<path d="M31.7186 6.75491L22.0137 17L31.7186 27.2451C31.894 26.8555 32.0005 26.4248 32.0005 25.9648V8.03515C32.0005 7.57516 31.894 7.14451 31.7186 6.75491Z" fill="white"/>
<path d="M29.1874 5.04688H2.81236C2.37942 5.04688 1.97411 5.15997 1.60742 5.34637L14.0114 18.4592C15.1081 19.6244 16.8916 19.6244 17.9884 18.4592L30.3923 5.34637C30.0256 5.15997 29.6203 5.04688 29.1874 5.04688Z" fill="white"/>
<path d="M0.281875 6.75491C0.106438 7.14451 0 7.57516 0 8.03515V25.9648C0 26.4248 0.106438 26.8555 0.281875 27.2451L9.98681 17L0.281875 6.75491Z" fill="white"/>
<path d="M20.6874 18.4085L19.314 19.8677C17.4866 21.8093 14.513 21.8093 12.6856 19.8677L11.3124 18.4085L1.60742 28.6536C1.97411 28.84 2.37942 28.9531 2.81236 28.9531H29.1874C29.6203 28.9531 30.0256 28.84 30.3923 28.6536L20.6874 18.4085Z" fill="white"/>
</g>
<defs>
<clipPath id="clip0">
<rect width="32" height="34" fill="white"/>
</clipPath>
</defs>
</svg>
