<svg width="6" height="8" viewBox="0 0 6 8" fill="none" xmlns="http://www.w3.org/2000/svg">
<path d="M5.45814 2.09102H4.27787C4.21049 1.44048 3.85967 0.836409 3.3462 0.464672H5.45814C5.58592 0.464672 5.69047 0.360121 5.69047 0.232336C5.69047 0.104551 5.58592 0 5.45814 0H0.541906C0.414121 0 0.30957 0.104551 0.30957 0.232336C0.30957 0.360121 0.414121 0.464672 0.541906 0.464672H1.94986C2.90709 0.464672 3.69703 1.18491 3.81088 2.09102H0.541906C0.414121 2.09102 0.30957 2.19557 0.30957 2.32336C0.30957 2.45114 0.414121 2.5557 0.541906 2.5557H3.81088C3.69471 3.49666 2.89547 4.20296 1.94986 4.20528H0.54423C0.414121 4.2076 0.30957 4.31448 0.311894 4.44459C0.311894 4.50732 0.339774 4.56772 0.383918 4.61187L3.89916 7.9366C3.9921 8.02488 4.13847 8.02024 4.22676 7.9273C4.31504 7.83204 4.3104 7.68567 4.21746 7.59506L1.12507 4.66995H1.94754C3.16033 4.66995 4.1617 3.74061 4.27787 2.5557H5.45814C5.58592 2.5557 5.69047 2.45114 5.69047 2.32336C5.69047 2.19557 5.58592 2.09102 5.45814 2.09102Z" fill="white"/>
</svg>
