<svg width="20" height="20" viewBox="0 0 20 20" fill="none" xmlns="http://www.w3.org/2000/svg">
<path d="M19.8248 5.81597L14.4082 0.191032C14.2315 0.0077761 13.9606 -0.0497489 13.7249 0.0451597C13.4882 0.140984 13.3332 0.370168 13.3332 0.62514V3.33354H13.1249C8.64498 3.33354 5 6.97852 5 11.4585V12.7084C5 12.9984 5.20416 13.24 5.4866 13.306C5.53253 13.3176 5.5783 13.3226 5.62408 13.3226C5.85998 13.3226 6.0858 13.1842 6.1949 12.9668C7.36661 10.6226 9.72239 9.16676 12.3432 9.16676H13.3332V11.875C13.3332 12.1301 13.4882 12.3593 13.7249 12.4542C13.9591 12.5501 14.2315 12.4918 14.4082 12.3084L19.8248 6.68342C20.0581 6.44096 20.0581 6.05934 19.8248 5.81597Z" fill="white"/>
<path d="M17.4998 19.9999H2.49997C1.12166 19.9999 0 18.8784 0 17.4999V5.83347C0 4.45516 1.12166 3.3335 2.49997 3.3335H4.99994C5.46075 3.3335 5.83322 3.70596 5.83322 4.16677C5.83322 4.62758 5.46075 5.00004 4.99994 5.00004H2.49997C2.03992 5.00004 1.66655 5.37342 1.66655 5.83347V17.4999C1.66655 17.9599 2.03992 18.3333 2.49997 18.3333H17.4998C17.9597 18.3333 18.3331 17.9599 18.3331 17.4999V10.8334C18.3331 10.3726 18.7055 9.99999 19.1663 9.99999C19.6273 9.99999 19.9998 10.3726 19.9998 10.8334V17.4999C19.9998 18.8784 18.8781 19.9999 17.4998 19.9999Z" fill="white"/>
</svg>
