<svg width="148" height="148" viewBox="0 0 148 148" fill="none" xmlns="http://www.w3.org/2000/svg">
<path d="M129.5 0H18.5C8.29725 0 0 8.29725 0 18.5V101.75C0 111.953 8.29725 120.25 18.5 120.25H27.75V143.375C27.75 145.169 28.786 146.807 30.414 147.565C31.0338 147.852 31.709 148 32.375 148C33.4388 148 34.4932 147.63 35.335 146.927L67.3493 120.25H129.5C139.703 120.25 148 111.953 148 101.75V18.5C148 8.29725 139.703 0 129.5 0Z" fill="#0F79AF"/>
<path d="M78.625 74H41.625C39.072 74 37 71.928 37 69.375C37 66.822 39.072 64.75 41.625 64.75H78.625C81.178 64.75 83.25 66.822 83.25 69.375C83.25 71.928 81.178 74 78.625 74Z" fill="#282828"/>
<path d="M106.375 46.25H41.625C39.072 46.25 37 44.178 37 41.625C37 39.072 39.072 37 41.625 37H106.375C108.928 37 111 39.072 111 41.625C111 44.178 108.928 46.25 106.375 46.25Z" fill="#282828"/>
</svg>
