<svg width="49" height="49" viewBox="0 0 49 49" fill="none" xmlns="http://www.w3.org/2000/svg">
<g clip-path="url(#clip0)">
<path d="M15.4199 32.8141H22.2299V34.385H15.4199V35.6801H36.8379V34.385H28.8979V32.8141H37.7289V29.2271H15.4199V32.8141Z" fill="white"/>
<path d="M9.48903 13.2312C9.48903 12.1266 10.3845 11.2312 11.489 11.2312H39.957C41.0616 11.2312 41.957 12.1266 41.957 13.2312V22.8182C41.957 23.5864 42.5798 24.2092 43.348 24.2092C44.1163 24.2092 44.739 23.5864 44.739 22.8182V10.4492C44.739 9.34465 43.8436 8.44922 42.739 8.44922H8.70703C7.60246 8.44922 6.70703 9.34465 6.70703 10.4492V15.7492C6.70703 16.5174 7.3298 17.1402 8.09803 17.1402C8.86626 17.1402 9.48903 16.5174 9.48903 15.7492V13.2312Z" fill="white"/>
<path d="M0 37.7992C0 38.9038 0.895431 39.7992 2 39.7992H12.523C13.6276 39.7992 14.523 38.9038 14.523 37.7992V20.0132C14.523 18.9086 13.6276 18.0132 12.523 18.0132H2C0.895429 18.0132 0 18.9086 0 20.0132V37.7992ZM7.568 38.7052C7.182 38.7052 6.868 38.3932 6.868 38.0062C6.868 37.6202 7.182 37.3072 7.568 37.3072C7.955 37.3072 8.267 37.6192 8.267 38.0062C8.267 38.3932 7.955 38.7052 7.568 38.7052ZM2.1 22.1132C2.1 21.0086 2.99543 20.1132 4.1 20.1132H10.4249C11.5295 20.1132 12.4249 21.0087 12.4249 22.1133L12.4241 34.1853C12.4241 35.2898 11.5286 36.1852 10.4241 36.1852H4.1C2.99543 36.1852 2.1 35.2898 2.1 34.1852V22.1132Z" fill="white"/>
<path d="M40.7148 25.0464C39.6103 25.0464 38.7148 25.9418 38.7148 27.0464V38.3834C38.7148 39.488 39.6103 40.3834 40.7148 40.3834H46.8318C47.9364 40.3834 48.8318 39.488 48.8318 38.3834V27.0464C48.8318 25.9418 47.9364 25.0464 46.8318 25.0464H40.7148ZM43.9788 25.6804C44.0998 25.6804 44.1988 25.7814 44.1988 25.9014C44.1988 26.0224 44.0998 26.1234 43.9788 26.1234C43.8558 26.1234 43.7558 26.0224 43.7558 25.9014C43.7558 25.7804 43.8548 25.6804 43.9788 25.6804ZM42.6648 26.5224C42.6648 26.4638 42.7123 26.4164 42.7708 26.4164H45.1818C45.2404 26.4164 45.2878 26.4638 45.2878 26.5224C45.2878 26.5809 45.2404 26.6284 45.1818 26.6284H42.7708C42.7123 26.6284 42.6648 26.5809 42.6648 26.5224ZM43.8908 39.7214C43.5998 39.7214 43.3668 39.4854 43.3668 39.1964C43.3668 38.9064 43.5998 38.6724 43.8908 38.6724C44.1798 38.6724 44.4158 38.9064 44.4158 39.1964C44.4158 39.4844 44.1798 39.7214 43.8908 39.7214ZM47.3688 35.9263C47.3688 37.0266 46.4802 37.9203 45.3799 37.9243C44.281 37.9282 43.1308 37.931 42.1623 37.9315C41.0644 37.9322 40.1798 37.0423 40.1798 35.9444V29.3821C40.1798 28.2777 41.0751 27.3823 42.1796 27.3821L45.3686 27.3817C46.4732 27.3815 47.3688 28.277 47.3688 29.3817V35.9263Z" fill="white"/>
</g>
<defs>
<clipPath id="clip0">
<rect width="48.832" height="48.832" fill="white"/>
</clipPath>
</defs>
</svg>
