<svg width="313" height="313" viewBox="0 0 313 313" fill="none" xmlns="http://www.w3.org/2000/svg">
<path d="M127.037 228.711H87.8301C86.1416 228.711 84.7734 227.343 84.7734 225.655C84.7734 223.966 86.1416 222.598 87.8301 222.598H127.037C128.725 222.598 130.094 223.966 130.094 225.655C130.094 227.343 128.725 228.711 127.037 228.711Z" fill="white"/>
<path d="M200.669 228.711H161.461C159.772 228.711 158.404 227.343 158.404 225.655C158.404 223.966 159.772 222.598 161.461 222.598H200.669C202.358 222.598 203.726 223.966 203.726 225.655C203.726 227.343 202.358 228.711 200.669 228.711Z" fill="white"/>
<path d="M227.897 259.635V56.3009C227.897 54.6124 226.529 53.2442 224.841 53.2442H193.109C191.421 53.2442 190.053 54.6124 190.053 56.3009C190.053 57.9894 191.421 59.3575 193.109 59.3575H221.784V256.578H67.2734V59.3575H95.4606C97.149 59.3575 98.5172 57.9894 98.5172 56.3009C98.5172 54.6124 97.149 53.2442 95.4606 53.2442H64.2168C62.5283 53.2442 61.1602 54.6124 61.1602 56.3009V259.635C61.1602 261.323 62.5283 262.691 64.2168 262.691H224.841C226.529 262.691 227.897 261.322 227.897 259.635Z" fill="#6FC0FF"/>
<path d="M238.476 66.7167C238.365 65.0319 236.927 63.7579 235.226 63.8679C233.542 63.9779 232.266 65.4329 232.378 67.1177L245.531 266.962L91.3539 277.11L90.8808 269.934C90.7707 268.248 89.2913 267.004 87.6309 267.084C85.9461 267.196 84.6709 268.651 84.7822 270.335L85.4546 280.562C85.5072 281.37 85.8801 282.125 86.4902 282.66C87.049 283.15 87.7654 283.418 88.5039 283.418C88.5712 283.418 88.6372 283.415 88.7044 283.41L248.982 272.86C250.667 272.75 251.942 271.295 251.831 269.61L238.476 66.7167Z" fill="#2BA3FF"/>
<path d="M200.669 128.512H87.8301C86.1416 128.512 84.7734 129.88 84.7734 131.569C84.7734 133.257 86.1416 134.625 87.8301 134.625H200.669C202.357 134.625 203.726 133.257 203.726 131.569C203.726 129.88 202.357 128.512 200.669 128.512Z" fill="white"/>
<path d="M200.669 150.602H87.8301C86.1416 150.602 84.7734 151.97 84.7734 153.659C84.7734 155.347 86.1416 156.715 87.8301 156.715H200.669C202.357 156.715 203.726 155.347 203.726 153.659C203.726 151.97 202.357 150.602 200.669 150.602Z" fill="white"/>
<path d="M200.669 172.692H87.8301C86.1416 172.692 84.7734 174.06 84.7734 175.748C84.7734 177.437 86.1416 178.805 87.8301 178.805H200.669C202.357 178.805 203.726 177.437 203.726 175.748C203.726 174.06 202.357 172.692 200.669 172.692Z" fill="white"/>
<path d="M116.453 104.882L112.729 118.067C112.409 119.204 112.77 120.424 113.661 121.201C114.228 121.696 114.946 121.955 115.672 121.955C116.084 121.955 116.5 121.872 116.891 121.702L134.295 114.131C137.649 114.955 141.086 115.372 144.529 115.372C168.162 115.372 187.388 96.146 187.388 72.5133C187.388 48.8806 168.162 29.6543 144.529 29.6543C120.896 29.6543 101.67 48.8806 101.67 72.5133C101.67 85.037 107.032 96.7207 116.453 104.882ZM144.529 35.7676C164.79 35.7676 181.275 52.2514 181.275 72.5133C181.275 92.7752 164.791 109.259 144.529 109.259C141.266 109.259 138.007 108.823 134.845 107.959C134.173 107.777 133.459 107.827 132.823 108.105L120.364 113.524L122.878 104.628C123.213 103.436 122.8 102.16 121.828 101.395C112.902 94.3683 107.784 83.8412 107.784 72.5133C107.783 52.2514 124.268 35.7676 144.529 35.7676Z" fill="#2BA3FF"/>
<path d="M122.06 80.3016C117.276 80.3016 113.385 76.4099 113.385 71.6269C113.385 66.8438 117.276 62.9521 122.06 62.9521C126.843 62.9521 130.734 66.8438 130.734 71.6269C130.734 76.4099 126.843 80.3016 122.06 80.3016ZM122.06 69.0654C120.647 69.0654 119.498 70.2135 119.498 71.6269C119.498 73.0403 120.646 74.1883 122.06 74.1883C123.473 74.1883 124.621 73.0403 124.621 71.6269C124.621 70.2135 123.472 69.0654 122.06 69.0654Z" fill="white"/>
<path d="M144.53 80.3016C139.747 80.3016 135.855 76.4099 135.855 71.6269C135.855 66.8438 139.747 62.9521 144.53 62.9521C149.313 62.9521 153.205 66.8438 153.205 71.6269C153.205 76.4099 149.313 80.3016 144.53 80.3016ZM144.53 69.0654C143.118 69.0654 141.969 70.2135 141.969 71.6269C141.969 73.0403 143.117 74.1883 144.53 74.1883C145.944 74.1883 147.092 73.0403 147.092 71.6269C147.092 70.2135 145.942 69.0654 144.53 69.0654Z" fill="white"/>
<path d="M166.999 80.3016C162.216 80.3016 158.324 76.4099 158.324 71.6269C158.324 66.8438 162.216 62.9521 166.999 62.9521C171.782 62.9521 175.674 66.8438 175.674 71.6269C175.674 76.4099 171.782 80.3016 166.999 80.3016ZM166.999 69.0654C165.587 69.0654 164.438 70.2135 164.438 71.6269C164.438 73.0403 165.586 74.1883 166.999 74.1883C168.412 74.1883 169.56 73.0403 169.56 71.6269C169.56 70.2135 168.411 69.0654 166.999 69.0654Z" fill="white"/>
</svg>
