<svg width="24" height="24" viewBox="0 0 24 24" fill="none" xmlns="http://www.w3.org/2000/svg">
<g clip-path="url(#clip0)">
<path d="M19.7848 6.7693H4.21597C4.04754 6.75499 3.88064 6.81064 3.75443 6.92313C3.63034 7.04233 3.57287 7.21488 3.6006 7.38467L5.20054 21.3227C5.38817 22.8594 6.69854 24.011 8.24659 23.9996H16.0002C17.5919 24.0223 18.9325 22.8156 19.0771 21.2305L20.4001 7.32313C20.4083 7.17395 20.3523 7.02837 20.2463 6.92313C20.1201 6.81064 19.9532 6.75499 19.7848 6.7693ZM17.8464 21.1689C17.7497 22.1058 16.9414 22.8063 16.0003 22.7688H8.24665C7.32239 22.8064 6.52792 22.1196 6.43128 21.1996L4.89289 8.00004H19.1079L17.8464 21.1689Z" fill="#0F79AF"/>
<path d="M22.0319 2.76949H15.6935V1.78487C15.7277 0.833868 14.9845 0.0352833 14.0335 0.00112558C14.0023 6.61435e-06 13.971 -0.000287849 13.9398 0.000301078H10.0629C9.11146 -0.0173078 8.32595 0.739699 8.30834 1.69117C8.30775 1.72238 8.30804 1.75365 8.30916 1.78487V2.76943H1.97084C1.63097 2.76943 1.35547 3.04493 1.35547 3.3848C1.35547 3.72467 1.63097 4.00017 1.97084 4.00017H22.0319C22.3717 4.00017 22.6472 3.72467 22.6472 3.3848C22.6472 3.04493 22.3717 2.76949 22.0319 2.76949ZM14.4628 1.78487V2.76943H9.53984V1.78487C9.50515 1.5152 9.69567 1.2685 9.96534 1.23381C9.99767 1.22963 10.0304 1.22874 10.0629 1.23104H13.9397C14.2109 1.21184 14.4464 1.41608 14.4656 1.68734C14.4679 1.71985 14.467 1.75253 14.4628 1.78487Z" fill="#0F79AF"/>
</g>
<defs>
<clipPath id="clip0">
<rect width="24" height="24" fill="white"/>
</clipPath>
</defs>
</svg>
