<svg width="167" height="167" viewBox="0 0 167 167" fill="none" xmlns="http://www.w3.org/2000/svg">
<path d="M134.321 133.328L125.661 124.668C125.51 124.516 125.33 124.396 125.132 124.313C124.934 124.231 124.721 124.189 124.507 124.189C124.292 124.189 124.08 124.231 123.882 124.313C123.684 124.396 123.504 124.516 123.352 124.668L114.692 133.328C114.395 133.635 114.231 134.047 114.235 134.475C114.238 134.903 114.41 135.312 114.712 135.614C115.015 135.916 115.424 136.088 115.851 136.092C116.279 136.095 116.691 135.931 116.998 135.634L122.876 129.757V142.32C122.874 144.049 122.186 145.707 120.963 146.93C119.74 148.153 118.082 148.841 116.353 148.843H105.214C103.485 148.841 101.827 148.153 100.604 146.93C99.3808 145.707 98.6929 144.049 98.691 142.32C98.688 139.725 97.6561 137.238 95.8217 135.404C93.9873 133.569 91.5001 132.538 88.9058 132.535H78.0912C75.497 132.538 73.0098 133.569 71.1753 135.404C69.3409 137.238 68.309 139.725 68.3061 142.32C68.3042 144.049 67.6163 145.707 66.3933 146.93C65.1704 148.153 63.5122 148.841 61.7826 148.843H50.6445C48.915 148.841 47.2568 148.153 46.0339 146.93C44.8109 145.707 44.123 144.049 44.1211 142.32V125.819C44.1211 125.387 43.9493 124.972 43.6434 124.666C43.3376 124.36 42.9228 124.188 42.4902 124.188C42.0577 124.188 41.6429 124.36 41.337 124.666C41.0312 124.972 40.8594 125.387 40.8594 125.819V142.32C40.8623 144.914 41.8942 147.401 43.7286 149.236C45.5631 151.07 48.0502 152.102 50.6445 152.105H61.7826C64.3769 152.102 66.8641 151.07 68.6986 149.236C70.533 147.401 71.5649 144.914 71.5678 142.32C71.5697 140.59 72.2576 138.932 73.4806 137.709C74.7035 136.486 76.3617 135.798 78.0912 135.796H88.9058C90.6353 135.798 92.2935 136.486 93.5165 137.709C94.7394 138.932 95.4273 140.59 95.4292 142.32C95.4322 144.914 96.464 147.401 98.2985 149.236C100.133 151.07 102.62 152.102 105.214 152.105H116.353C118.947 152.102 121.434 151.07 123.268 149.236C125.103 147.401 126.135 144.914 126.138 142.32V129.757L132.015 135.634C132.323 135.931 132.735 136.095 133.162 136.092C133.59 136.088 133.999 135.916 134.301 135.614C134.604 135.312 134.775 134.903 134.779 134.475C134.783 134.047 134.618 133.635 134.321 133.328Z" fill="#2BA3FF"/>
<path d="M85.6851 63.3517H81.3144C80.5262 63.3517 79.7603 63.0898 79.1371 62.6072C78.5139 62.1246 78.0687 61.4487 77.8713 60.6856L76.8974 56.9072L73.5391 58.8897C72.8598 59.29 72.0667 59.4533 71.2845 59.354C70.5022 59.2547 69.7751 58.8984 69.2173 58.3411L66.1324 55.2535C65.5749 54.6963 65.2183 53.9696 65.1187 53.1877C65.019 52.4058 65.1819 51.613 65.5818 50.9337L67.5649 47.5728L63.7879 46.6002C63.0246 46.4026 62.3486 45.9571 61.8659 45.3337C61.3832 44.7103 61.1212 43.9442 61.1211 43.1558V38.7877C61.1212 37.9997 61.3829 37.234 61.8652 36.6109C62.3475 35.9877 63.0231 35.5423 63.7859 35.3446L67.5649 34.3707L65.5825 31.0118C65.1822 30.3324 65.019 29.5394 65.1185 28.7572C65.2181 27.975 65.5747 27.2481 66.1324 26.6906L69.2199 23.6024C69.7772 23.0452 70.5037 22.6888 71.2854 22.5891C72.0672 22.4895 72.8599 22.6522 73.5391 23.0519L76.9 25.0356L77.8739 21.2586C78.0711 20.4953 78.5162 19.8192 79.1395 19.3364C79.7627 18.8537 80.5287 18.5918 81.317 18.5918H85.6877C86.4757 18.5918 87.2415 18.8535 87.8647 19.3358C88.4878 19.8181 88.9332 20.4938 89.1308 21.2566L90.1047 25.0356L93.4637 23.0532C94.1428 22.653 94.9357 22.4897 95.7178 22.5892C96.4998 22.6886 97.2267 23.045 97.7841 23.6024L100.872 26.6906C101.43 27.248 101.786 27.9747 101.886 28.7568C101.986 29.5388 101.823 30.3318 101.423 31.0111L99.4391 34.3707L103.217 35.344C103.98 35.5417 104.655 35.987 105.138 36.6102C105.62 37.2334 105.882 37.999 105.882 38.7871V43.1545C105.882 43.9426 105.62 44.7084 105.138 45.3317C104.655 45.955 103.98 46.4005 103.217 46.5982L99.4372 47.5722L101.42 50.9311C101.82 51.6103 101.984 52.4034 101.884 53.1856C101.785 53.9678 101.428 54.6948 100.87 55.2522L97.7828 58.3404C97.2254 58.8977 96.4988 59.2541 95.7169 59.3536C94.935 59.4532 94.1422 59.2902 93.463 58.8903L90.1028 56.9066L89.1295 60.6836C88.9324 61.4473 88.487 62.1237 87.8636 62.6067C87.2401 63.0896 86.4738 63.3517 85.6851 63.3517ZM77.9385 52.77C78.3002 52.77 78.6516 52.8902 78.9375 53.1118C79.2234 53.3333 79.4276 53.6436 79.5178 53.9938L81.0319 59.8702C81.0485 59.9331 81.0855 59.9889 81.137 60.0286C81.1886 60.0684 81.2519 60.09 81.317 60.09H85.6877C85.7532 60.09 85.8168 60.0682 85.8686 60.0281C85.9203 59.9879 85.9572 59.9316 85.9734 59.8682L87.4869 53.9971C87.5499 53.7523 87.669 53.5255 87.8347 53.3346C88.0004 53.1438 88.2082 52.994 88.4417 52.8972C88.6752 52.8004 88.928 52.7592 89.1802 52.7769C89.4324 52.7946 89.6769 52.8706 89.8947 52.999L95.1213 56.084C95.1776 56.1166 95.2431 56.1297 95.3077 56.1212C95.3722 56.1127 95.4321 56.0831 95.4781 56.037L98.5663 52.9494C98.6127 52.9032 98.6423 52.8428 98.6506 52.7779C98.6589 52.7129 98.6453 52.647 98.6119 52.5906L95.5283 47.3654C95.3999 47.1477 95.3238 46.9031 95.3061 46.651C95.2884 46.3989 95.3296 46.1461 95.4263 45.9126C95.523 45.6791 95.6727 45.4713 95.8635 45.3056C96.0543 45.1398 96.281 45.0207 96.5258 44.9576L102.403 43.4435C102.466 43.4267 102.521 43.3895 102.561 43.3379C102.6 43.2862 102.622 43.2229 102.622 43.1578V38.7877C102.622 38.7226 102.6 38.6594 102.56 38.6078C102.521 38.5563 102.465 38.5193 102.402 38.5026L96.5231 36.9879C96.2783 36.9248 96.0515 36.8057 95.8606 36.6399C95.6698 36.4741 95.52 36.2662 95.4233 36.0326C95.3266 35.799 95.2855 35.5462 95.3032 35.294C95.321 35.0418 95.3972 34.7971 95.5257 34.5794L98.6106 29.3555C98.6434 29.2991 98.6565 29.2334 98.648 29.1687C98.6395 29.1041 98.6099 29.044 98.5637 28.998L95.4755 25.9098C95.429 25.8641 95.3688 25.8348 95.3041 25.8266C95.2394 25.8183 95.1738 25.8315 95.1173 25.8641L89.8921 28.9484C89.6743 29.0768 89.4297 29.1529 89.1776 29.1705C88.9254 29.1882 88.6726 29.147 88.4391 29.0502C88.2056 28.9534 87.9978 28.8037 87.8321 28.6128C87.6664 28.4219 87.5473 28.1951 87.4843 27.9503L85.9702 22.074C85.9535 22.0111 85.9165 21.9556 85.8649 21.9159C85.8134 21.8763 85.7501 21.8548 85.6851 21.8548H81.3144C81.2492 21.8548 81.1858 21.8764 81.1341 21.9163C81.0825 21.9562 81.0457 22.0122 81.0293 22.0753L79.5152 27.951C79.4522 28.1958 79.333 28.4226 79.1672 28.6135C79.0014 28.8044 78.7935 28.9541 78.56 29.0508C78.3264 29.1476 78.0735 29.1887 77.8213 29.1709C77.5691 29.1531 77.3245 29.0769 77.1068 28.9484L71.8809 25.8635C71.8244 25.8308 71.7588 25.8176 71.6941 25.8261C71.6295 25.8346 71.5694 25.8643 71.5234 25.9104L68.4384 28.9967C68.3922 29.043 68.3625 29.1033 68.3541 29.1682C68.3457 29.2331 68.3591 29.299 68.3921 29.3555L71.4757 34.5801C71.6043 34.7978 71.6805 35.0423 71.6983 35.2945C71.7161 35.5466 71.6751 35.7995 71.5784 36.0331C71.4817 36.2666 71.3321 36.4745 71.1413 36.6404C70.9505 36.8062 70.7237 36.9254 70.479 36.9885L64.602 38.5026C64.5391 38.5193 64.4836 38.5563 64.4439 38.6079C64.4043 38.6595 64.3828 38.7227 64.3828 38.7877V43.1551C64.3828 43.2206 64.4046 43.2842 64.4446 43.336C64.4846 43.3878 64.5406 43.4249 64.604 43.4415L70.479 44.955C70.7236 45.0182 70.9503 45.1373 71.141 45.3031C71.3317 45.4689 71.4813 45.6767 71.578 45.9102C71.6747 46.1437 71.7157 46.3965 71.698 46.6485C71.6802 46.9006 71.6042 47.1451 71.4757 47.3628L68.3915 52.5893C68.3587 52.6458 68.3456 52.7114 68.3541 52.7761C68.3626 52.8407 68.3923 52.9008 68.4384 52.9468L71.5266 56.0344C71.573 56.0806 71.6333 56.1101 71.6982 56.1183C71.7632 56.1266 71.829 56.1131 71.8854 56.08L77.1081 52.9964C77.3596 52.8479 77.6464 52.7698 77.9385 52.77Z" fill="#FAFAFA"/>
<path d="M83.501 49.2969C81.8544 49.2969 80.2448 48.8086 78.8758 47.8939C77.5067 46.9791 76.4396 45.6789 75.8095 44.1576C75.1794 42.6364 75.0145 40.9625 75.3358 39.3475C75.657 37.7326 76.4499 36.2492 77.6142 35.0849C78.7785 33.9206 80.2619 33.1277 81.8768 32.8065C83.4918 32.4852 85.1657 32.6501 86.6869 33.2802C88.2081 33.9103 89.5084 34.9774 90.4232 36.3465C91.3379 37.7155 91.8262 39.3251 91.8262 40.9717C91.8238 43.1789 90.9459 45.2951 89.3851 46.8558C87.8244 48.4166 85.7082 49.2945 83.501 49.2969ZM83.501 35.9082C82.4995 35.9082 81.5206 36.2052 80.6879 36.7616C79.8552 37.3179 79.2062 38.1088 78.8229 39.034C78.4397 39.9592 78.3394 40.9773 78.5348 41.9595C78.7302 42.9418 79.2124 43.844 79.9206 44.5521C80.6287 45.2603 81.5309 45.7425 82.5132 45.9379C83.4954 46.1333 84.5135 46.033 85.4387 45.6498C86.3639 45.2665 87.1548 44.6175 87.7111 43.7848C88.2675 42.9521 88.5645 41.9732 88.5645 40.9717C88.5629 39.6293 88.029 38.3422 87.0797 37.393C86.1305 36.4437 84.8434 35.9098 83.501 35.9082Z" fill="#2BA3FF"/>
<path d="M120.084 113.52C119.99 113.52 119.897 113.517 119.804 113.512C119.051 113.473 118.313 113.277 117.64 112.937C116.967 112.596 116.372 112.119 115.894 111.535L105.274 98.5533C104.803 98.0057 104.447 97.3694 104.225 96.6818C104.004 95.9942 103.922 95.2693 103.986 94.5498C104.049 93.8302 104.255 93.1305 104.593 92.492C104.93 91.8534 105.392 91.2888 105.951 90.8315C106.51 90.3741 107.155 90.0333 107.848 89.829C108.541 89.6247 109.268 89.5611 109.985 89.642C110.703 89.7228 111.397 89.9465 112.028 90.2998C112.658 90.6531 113.211 91.1289 113.654 91.6991L120.485 100.049L135.725 84.8097C136.223 84.2883 136.821 83.8718 137.482 83.5846C138.144 83.2973 138.856 83.1452 139.577 83.1371C140.299 83.1289 141.014 83.265 141.682 83.5373C142.35 83.8096 142.957 84.2125 143.467 84.7226C143.977 85.2326 144.38 85.8394 144.652 86.5073C144.925 87.1753 145.061 87.8909 145.052 88.6121C145.044 89.3333 144.892 90.0457 144.605 90.7073C144.318 91.369 143.901 91.9665 143.38 92.465L123.911 111.934C123.409 112.438 122.813 112.838 122.156 113.11C121.499 113.383 120.795 113.522 120.084 113.52ZM109.463 92.9764C109.057 92.9777 108.659 93.0942 108.316 93.3123C107.972 93.5303 107.698 93.8411 107.524 94.2087C107.35 94.5762 107.284 94.9855 107.333 95.3891C107.382 95.7927 107.545 96.1741 107.802 96.4893L118.421 109.471C118.612 109.703 118.849 109.893 119.117 110.029C119.385 110.164 119.679 110.242 119.979 110.257H120.087C120.369 110.258 120.649 110.202 120.91 110.094C121.171 109.986 121.408 109.827 121.607 109.627L141.076 90.1576C141.288 89.9608 141.459 89.7231 141.577 89.4588C141.696 89.1945 141.759 88.909 141.765 88.6194C141.77 88.3299 141.717 88.0421 141.609 87.7735C141.501 87.5049 141.34 87.2609 141.135 87.0562C140.93 86.8514 140.686 86.69 140.417 86.5818C140.149 86.4736 139.861 86.4206 139.571 86.4262C139.282 86.4318 138.996 86.4957 138.732 86.6142C138.468 86.7327 138.23 86.9032 138.033 87.1157L121.52 103.629C121.359 103.79 121.166 103.915 120.953 103.997C120.741 104.079 120.514 104.115 120.286 104.104C120.059 104.092 119.836 104.034 119.633 103.931C119.43 103.829 119.25 103.685 119.106 103.508L111.133 93.7644C110.955 93.5452 110.735 93.3634 110.486 93.2297C110.237 93.096 109.964 93.013 109.683 92.9855C109.605 92.9797 109.532 92.9764 109.463 92.9764Z" fill="#2BA3FF"/>
<path d="M151.954 69.2954H97.0605C96.628 69.2954 96.2132 69.4672 95.9074 69.7731C95.6015 70.0789 95.4297 70.4937 95.4297 70.9263V125.82C95.4297 126.252 95.6015 126.667 95.9074 126.973C96.2132 127.279 96.628 127.451 97.0605 127.451H151.954C152.386 127.451 152.801 127.279 153.107 126.973C153.413 126.667 153.585 126.252 153.585 125.82V70.9263C153.585 70.4937 153.413 70.0789 153.107 69.7731C152.801 69.4672 152.386 69.2954 151.954 69.2954ZM150.323 124.189H98.6914V72.5571H150.323V124.189Z" fill="#FAFAFA"/>
<path d="M69.9383 69.2954H15.0449C14.6124 69.2954 14.1976 69.4672 13.8917 69.7731C13.5859 70.0789 13.4141 70.4937 13.4141 70.9263V125.82C13.4141 126.252 13.5859 126.667 13.8917 126.973C14.1976 127.279 14.6124 127.451 15.0449 127.451H69.9383C70.3709 127.451 70.7857 127.279 71.0915 126.973C71.3974 126.667 71.5692 126.252 71.5692 125.82V70.9263C71.5692 70.4937 71.3974 70.0789 71.0915 69.7731C70.7857 69.4672 70.3709 69.2954 69.9383 69.2954ZM68.3075 124.189H16.6758V72.5571H68.3075V124.189Z" fill="#FAFAFA"/>
<path d="M24.4277 88.0015H32.2839C32.7164 88.0015 33.1313 87.8296 33.4371 87.5238C33.743 87.218 33.9148 86.8031 33.9148 86.3706C33.9148 85.9381 33.743 85.5233 33.4371 85.2174C33.1313 84.9116 32.7164 84.7397 32.2839 84.7397H24.4277C23.9952 84.7397 23.5804 84.9116 23.2745 85.2174C22.9687 85.5233 22.7969 85.9381 22.7969 86.3706C22.7969 86.8031 22.9687 87.218 23.2745 87.5238C23.5804 87.8296 23.9952 88.0015 24.4277 88.0015Z" fill="#2BA3FF"/>
<path d="M24.4277 101.439H60.3412C60.7737 101.439 61.1886 101.268 61.4944 100.962C61.8003 100.656 61.9721 100.241 61.9721 99.8086C61.9721 99.3761 61.8003 98.9613 61.4944 98.6554C61.1886 98.3496 60.7737 98.1777 60.3412 98.1777H24.4277C23.9952 98.1777 23.5804 98.3496 23.2745 98.6554C22.9687 98.9613 22.7969 99.3761 22.7969 99.8086C22.7969 100.241 22.9687 100.656 23.2745 100.962C23.5804 101.268 23.9952 101.439 24.4277 101.439Z" fill="#2BA3FF"/>
<path d="M24.4277 114.878H53.4949C53.9274 114.878 54.3422 114.706 54.6481 114.4C54.9539 114.094 55.1257 113.68 55.1257 113.247C55.1257 112.815 54.9539 112.4 54.6481 112.094C54.3422 111.788 53.9274 111.616 53.4949 111.616H24.4277C23.9952 111.616 23.5804 111.788 23.2745 112.094C22.9687 112.4 22.7969 112.815 22.7969 113.247C22.7969 113.68 22.9687 114.094 23.2745 114.4C23.5804 114.706 23.9952 114.878 24.4277 114.878Z" fill="#2BA3FF"/>
<path d="M38.8066 88.0015H56.0755C56.508 88.0015 56.9228 87.8296 57.2287 87.5238C57.5345 87.218 57.7063 86.8031 57.7063 86.3706C57.7063 85.9381 57.5345 85.5233 57.2287 85.2174C56.9228 84.9116 56.508 84.7397 56.0755 84.7397H38.8066C38.3741 84.7397 37.9593 84.9116 37.6534 85.2174C37.3476 85.5233 37.1758 85.9381 37.1758 86.3706C37.1758 86.8031 37.3476 87.218 37.6534 87.5238C37.9593 87.8296 38.3741 88.0015 38.8066 88.0015Z" fill="#2BA3FF"/>
</svg>
