<svg width="33" height="33" viewBox="0 0 33 33" fill="none" xmlns="http://www.w3.org/2000/svg">
<path d="M21.0695 20.4345L12.9887 15.696C12.7458 15.5323 12.4279 15.5323 12.1848 15.696C11.946 15.8532 11.8152 16.131 11.8463 16.4153V25.8923C11.8152 26.1765 11.9459 26.4544 12.1848 26.6115L12.5656 26.7384C12.7165 26.7415 12.8645 26.6971 12.9886 26.6115L21.0694 21.8731C21.4666 21.6749 21.6279 21.1921 21.4296 20.7948C21.3519 20.6387 21.2254 20.5123 21.0695 20.4345ZM13.5387 24.4114V17.896L19.0811 21.1538L13.5387 24.4114Z" fill="white"/>
<path d="M29.1923 9.09619H3.80766C1.7047 9.09619 0 10.801 0 12.9039V28.9808C0 31.0838 1.70478 32.7885 3.80766 32.7885H29.1923C31.2953 32.7885 33 31.0837 33 28.9808V12.9039C33 10.8009 31.2952 9.09619 29.1923 9.09619ZM31.3077 28.9808C31.3077 30.1491 30.3606 31.0962 29.1923 31.0962H3.80766C2.63937 31.0962 1.69231 30.1491 1.69231 28.9808V12.9039C1.69231 11.7356 2.63937 10.7885 3.80766 10.7885H29.1923C30.3606 10.7885 31.3077 11.7356 31.3077 12.9039V28.9808Z" fill="white"/>
<path d="M4.35787 6.55755H28.6848C29.1521 6.55755 29.531 6.17872 29.531 5.71139C29.531 5.24406 29.1521 4.86523 28.6848 4.86523H4.35787C3.89054 4.86523 3.51172 5.24406 3.51172 5.71139C3.51172 6.17872 3.89054 6.55755 4.35787 6.55755Z" fill="white"/>
<path d="M7.95407 1.90374H25.0464C25.5138 1.90374 25.8926 1.52491 25.8926 1.05758C25.8926 0.590248 25.5138 0.211426 25.0464 0.211426H7.95407C7.48673 0.211426 7.10791 0.590248 7.10791 1.05758C7.10791 1.52491 7.48681 1.90374 7.95407 1.90374Z" fill="white"/>
</svg>
