<svg width="162" height="162" viewBox="0 0 162 162" fill="none" xmlns="http://www.w3.org/2000/svg">
<path d="M15.1875 125.37V11.9067C15.1876 11.0077 15.3648 10.1175 15.7089 9.28697C16.0531 8.45645 16.5575 7.70186 17.1933 7.06629C17.8291 6.43073 18.5839 5.92665 19.4146 5.58283C20.2453 5.23902 21.1355 5.06221 22.0345 5.0625H12.5423C11.6433 5.06221 10.7531 5.23902 9.92241 5.58283C9.09175 5.92665 8.33695 6.43073 7.70112 7.06629C7.06529 7.70186 6.5609 8.45645 6.21674 9.28697C5.87258 10.1175 5.6954 11.0077 5.69531 11.9067V125.37C5.69548 127.186 6.41692 128.927 7.70095 130.211C8.98498 131.495 10.7264 132.217 12.5423 132.217H22.0345C20.2186 132.217 18.4772 131.495 17.1931 130.211C15.9091 128.927 15.1877 127.186 15.1875 125.37Z" fill="#009EFD"/>
<path d="M34.4213 53.8839C34.9248 53.8839 35.4077 53.6839 35.7637 53.3279C36.1197 52.9719 36.3197 52.489 36.3197 51.9855C36.3197 51.482 36.1197 50.9991 35.7637 50.6431C35.4077 50.2871 34.9248 50.0871 34.4213 50.0871H25.3367C24.6033 50.0877 23.9002 50.3793 23.3816 50.8977C22.863 51.4161 22.5712 52.1191 22.5703 52.8524V70.9983C22.5713 71.7316 22.8631 72.4346 23.3817 72.953C23.9003 73.4714 24.6034 73.763 25.3367 73.7637H43.5063C44.2396 73.763 44.9426 73.4714 45.4612 72.953C45.9798 72.4346 46.2716 71.7316 46.2726 70.9983V64.8556C46.2726 64.3521 46.0726 63.8693 45.7166 63.5132C45.3606 63.1572 44.8777 62.9572 44.3742 62.9572C43.8707 62.9572 43.3878 63.1572 43.0318 63.5132C42.6758 63.8693 42.4757 64.3521 42.4757 64.8556V69.9669H26.3672V53.8839H34.4213Z" fill="#0635C9" fill-opacity="0.76"/>
<path d="M47.8409 49.0217C47.6493 48.8622 47.4281 48.7421 47.1901 48.6681C46.952 48.5941 46.7017 48.5677 46.4534 48.5904C46.2051 48.6132 45.9638 48.6846 45.7431 48.8006C45.5224 48.9166 45.3268 49.075 45.1673 49.2666L36.1111 60.1488L33.2052 57.7976C33.0118 57.6373 32.7884 57.517 32.5482 57.4437C32.3079 57.3704 32.0555 57.3455 31.8055 57.3705C31.5555 57.3954 31.313 57.4698 31.092 57.5891C30.8709 57.7085 30.6758 57.8706 30.5178 58.0659C30.3599 58.2613 30.2423 58.4861 30.1719 58.7272C30.1014 58.9683 30.0795 59.221 30.1075 59.4707C30.1354 59.7204 30.2126 59.962 30.3347 60.1816C30.4567 60.4012 30.621 60.5944 30.8183 60.75L34.3114 63.5761C34.8854 64.0482 35.6138 64.2913 36.3563 64.2585C37.0988 64.2256 37.8028 63.9192 38.3329 63.3983L38.4092 63.3252L48.0861 51.696C48.2457 51.5043 48.3659 51.2831 48.44 51.0449C48.514 50.8068 48.5404 50.5564 48.5176 50.308C48.4948 50.0597 48.4233 49.8183 48.3072 49.5976C48.1911 49.3769 48.0327 49.1812 47.8409 49.0217Z" fill="#0635C9" fill-opacity="0.76"/>
<path d="M22.5703 111.235C22.5712 111.968 22.863 112.671 23.3816 113.19C23.9002 113.708 24.6033 114 25.3367 114.001H43.5063C44.2396 114 44.9427 113.708 45.4613 113.19C45.9799 112.671 46.2717 111.968 46.2726 111.235V105.092C46.2726 104.589 46.0726 104.106 45.7166 103.75C45.3606 103.394 44.8777 103.194 44.3742 103.194C43.8707 103.194 43.3878 103.394 43.0318 103.75C42.6758 104.106 42.4757 104.589 42.4757 105.092V110.204H26.3672V94.1207H34.4213C34.9248 94.1207 35.4077 93.9207 35.7637 93.5646C36.1197 93.2086 36.3197 92.7257 36.3197 92.2222C36.3197 91.7187 36.1197 91.2359 35.7637 90.8799C35.4077 90.5238 34.9248 90.3238 34.4213 90.3238H25.3367C24.6034 90.3246 23.9003 90.6161 23.3817 91.1345C22.8631 91.653 22.5713 92.3559 22.5703 93.0892V111.235Z" fill="#0635C9" fill-opacity="0.76"/>
<path d="M47.8406 89.2582C47.6489 89.0987 47.4277 88.9786 47.1896 88.9046C46.9516 88.8306 46.7012 88.8043 46.453 88.8271C46.2047 88.8498 45.9633 88.9213 45.7427 89.0373C45.522 89.1534 45.3264 89.3118 45.1669 89.5034L36.1117 100.385L33.2058 98.0344C33.0124 97.8744 32.7892 97.7544 32.549 97.6813C32.3089 97.6082 32.0567 97.5835 31.8069 97.6085C31.5572 97.6335 31.3149 97.7077 31.094 97.827C30.8732 97.9463 30.6782 98.1081 30.5203 98.3033C30.3624 98.4984 30.2448 98.7229 30.1742 98.9637C30.1037 99.2046 30.0816 99.4571 30.1092 99.7066C30.1369 99.956 30.2137 100.198 30.3353 100.417C30.4569 100.637 30.6208 100.83 30.8176 100.986L34.3107 103.812C34.8847 104.284 35.613 104.527 36.3555 104.494C37.098 104.462 37.8021 104.155 38.3322 103.634L38.4085 103.561L48.0855 91.9318C48.2449 91.7402 48.3651 91.519 48.4391 91.281C48.5131 91.0429 48.5395 90.7926 48.5168 90.5443C48.494 90.296 48.4226 90.0547 48.3066 89.834C48.1905 89.6133 48.0322 89.4177 47.8406 89.2582Z" fill="#0635C9" fill-opacity="0.76"/>
<path d="M149.459 3.16406H12.5411C10.2229 3.16649 8.00042 4.08836 6.36112 5.72741C4.72183 7.36647 3.79964 9.58886 3.79688 11.907V125.37C3.79896 127.686 4.71912 129.907 6.3557 131.546C7.99227 133.185 10.2118 134.108 12.5278 134.113L86.3982 134.635L86.4251 130.838L12.5411 130.316C11.2298 130.314 9.97263 129.793 9.04518 128.866C8.11773 127.939 7.59576 126.682 7.59375 125.371V34.9252H154.406V125.371C154.405 126.683 153.883 127.94 152.955 128.867C152.028 129.794 150.77 130.316 149.459 130.317C149.424 130.317 149.39 130.317 149.355 130.32L139.779 130.843L139.986 134.633L149.514 134.114C151.822 134.097 154.031 133.169 155.658 131.531C157.286 129.894 158.2 127.68 158.203 125.371V11.907C158.2 9.58886 157.278 7.36647 155.639 5.72741C154 4.08836 151.777 3.16649 149.459 3.16406ZM7.59375 31.1284V11.907C7.59534 10.5955 8.11713 9.33817 9.04462 8.41092C9.97212 7.48366 11.2296 6.96219 12.5411 6.96094H149.459C150.77 6.96219 152.028 7.48366 152.955 8.41092C153.883 9.33817 154.405 10.5955 154.406 11.907V31.1284H7.59375Z" fill="#0635C9" fill-opacity="0.76"/>
<path d="M19.6797 11.5295C18.2404 11.5295 16.8334 11.9563 15.6366 12.7559C14.4399 13.5556 13.5071 14.6922 12.9563 16.0219C12.4055 17.3517 12.2614 18.8149 12.5422 20.2266C12.823 21.6382 13.5161 22.9349 14.5338 23.9527C15.5516 24.9705 16.8483 25.6636 18.26 25.9444C19.6716 26.2252 21.1348 26.081 22.4646 25.5302C23.7944 24.9794 24.9309 24.0467 25.7306 22.8499C26.5302 21.6532 26.957 20.2462 26.957 18.8068C26.955 16.8774 26.1877 15.0275 24.8233 13.6632C23.459 12.2989 21.6091 11.5315 19.6797 11.5295ZM19.6797 22.2848C18.9913 22.2848 18.3184 22.0807 17.746 21.6982C17.1737 21.3158 16.7276 20.7722 16.4642 20.1362C16.2007 19.5003 16.1318 18.8004 16.2661 18.1253C16.4004 17.4502 16.7319 16.83 17.2186 16.3432C17.7054 15.8565 18.3255 15.525 19.0007 15.3907C19.6758 15.2564 20.3756 15.3253 21.0116 15.5888C21.6476 15.8522 22.1912 16.2983 22.5736 16.8707C22.956 17.443 23.1602 18.1159 23.1602 18.8043C23.1592 19.7271 22.7923 20.6118 22.1397 21.2644C21.4872 21.9169 20.6025 22.2839 19.6797 22.2848Z" fill="#0635C9" fill-opacity="0.76"/>
<path d="M38.8652 11.5295C37.4259 11.5295 36.0189 11.9563 34.8222 12.7559C33.6254 13.5556 32.6927 14.6922 32.1418 16.0219C31.591 17.3517 31.4469 18.8149 31.7277 20.2266C32.0085 21.6382 32.7016 22.9349 33.7194 23.9527C34.7371 24.9705 36.0338 25.6636 37.4455 25.9444C38.8572 26.2252 40.3204 26.081 41.6502 25.5302C42.9799 24.9794 44.1165 24.0467 44.9161 22.8499C45.7158 21.6532 46.1426 20.2462 46.1426 18.8068C46.1406 16.8774 45.3732 15.0275 44.0089 13.6632C42.6445 12.2989 40.7947 11.5315 38.8652 11.5295ZM38.8652 22.2848C38.1769 22.2848 37.5039 22.0807 36.9316 21.6982C36.3592 21.3158 35.9131 20.7722 35.6497 20.1362C35.3863 19.5003 35.3173 18.8004 35.4516 18.1253C35.5859 17.4502 35.9174 16.83 36.4042 16.3432C36.8909 15.8565 37.5111 15.525 38.1862 15.3907C38.8614 15.2564 39.5612 15.3253 40.1972 15.5888C40.8331 15.8522 41.3767 16.2983 41.7591 16.8707C42.1416 17.443 42.3457 18.1159 42.3457 18.8043C42.3448 19.7271 41.9778 20.6118 41.3253 21.2644C40.6728 21.9169 39.788 22.2839 38.8652 22.2848Z" fill="#0635C9" fill-opacity="0.76"/>
<path d="M58.0508 11.5295C56.6115 11.5295 55.2045 11.9563 54.0077 12.7559C52.811 13.5556 51.8782 14.6922 51.3274 16.0219C50.7766 17.3517 50.6325 18.8149 50.9133 20.2266C51.1941 21.6382 51.8872 22.9349 52.9049 23.9527C53.9227 24.9705 55.2194 25.6636 56.631 25.9444C58.0427 26.2252 59.5059 26.081 60.8357 25.5302C62.1655 24.9794 63.302 24.0467 64.1017 22.8499C64.9013 21.6532 65.3281 20.2462 65.3281 18.8068C65.3261 16.8774 64.5588 15.0275 63.1944 13.6632C61.8301 12.2989 59.9802 11.5315 58.0508 11.5295ZM58.0508 22.2848C57.3624 22.2848 56.6895 22.0807 56.1171 21.6982C55.5448 21.3158 55.0987 20.7722 54.8352 20.1362C54.5718 19.5003 54.5029 18.8004 54.6372 18.1253C54.7715 17.4502 55.103 16.83 55.5897 16.3432C56.0765 15.8565 56.6966 15.525 57.3718 15.3907C58.0469 15.2564 58.7467 15.3253 59.3827 15.5888C60.0187 15.8522 60.5622 16.2983 60.9447 16.8707C61.3271 17.443 61.5312 18.1159 61.5312 18.8043C61.5304 19.7271 61.1635 20.6119 60.5109 21.2644C59.8584 21.917 58.9736 22.2839 58.0508 22.2848Z" fill="#0635C9" fill-opacity="0.76"/>
<path d="M148.057 16.548H86.3789C85.8754 16.548 85.3925 16.748 85.0365 17.104C84.6805 17.4601 84.4805 17.9429 84.4805 18.4464C84.4805 18.9499 84.6805 19.4328 85.0365 19.7888C85.3925 20.1449 85.8754 20.3449 86.3789 20.3449H148.057C148.56 20.3449 149.043 20.1449 149.399 19.7888C149.755 19.4328 149.955 18.9499 149.955 18.4464C149.955 17.9429 149.755 17.4601 149.399 17.104C149.043 16.748 148.56 16.548 148.057 16.548Z" fill="#0635C9" fill-opacity="0.76"/>
<path d="M65.8047 55.2072H139.883C140.387 55.2072 140.87 55.0072 141.226 54.6511C141.582 54.2951 141.782 53.8122 141.782 53.3087C141.782 52.8052 141.582 52.3224 141.226 51.9664C140.87 51.6103 140.387 51.4103 139.883 51.4103H65.8047C65.3012 51.4103 64.8183 51.6103 64.4623 51.9664C64.1063 52.3224 63.9062 52.8052 63.9062 53.3087C63.9062 53.8122 64.1063 54.2951 64.4623 54.6511C64.8183 55.0072 65.3012 55.2072 65.8047 55.2072Z" fill="#1AE5BE" fill-opacity="0.68"/>
<path d="M65.8047 70.9361H139.883C140.387 70.9361 140.87 70.7361 141.226 70.3801C141.582 70.024 141.782 69.5412 141.782 69.0377C141.782 68.5342 141.582 68.0513 141.226 67.6953C140.87 67.3392 140.387 67.1392 139.883 67.1392H65.8047C65.3012 67.1392 64.8183 67.3392 64.4623 67.6953C64.1063 68.0513 63.9062 68.5342 63.9062 69.0377C63.9062 69.5412 64.1063 70.024 64.4623 70.3801C64.8183 70.7361 65.3012 70.9361 65.8047 70.9361Z" fill="#1AE5BE" fill-opacity="0.68"/>
<path d="M139.883 91.6471H124.459C123.955 91.6471 123.473 91.8471 123.117 92.2031C122.761 92.5592 122.561 93.042 122.561 93.5455C122.561 94.049 122.761 94.5319 123.117 94.8879C123.473 95.244 123.955 95.444 124.459 95.444H139.883C140.387 95.444 140.87 95.244 141.226 94.8879C141.582 94.5319 141.782 94.049 141.782 93.5455C141.782 93.042 141.582 92.5592 141.226 92.2031C140.87 91.8471 140.387 91.6471 139.883 91.6471Z" fill="#1AE5BE" fill-opacity="0.68"/>
<path d="M65.8047 95.444H89.8639C90.3674 95.444 90.8503 95.244 91.2063 94.8879C91.5623 94.5319 91.7623 94.049 91.7623 93.5455C91.7623 93.042 91.5623 92.5592 91.2063 92.2031C90.8503 91.8471 90.3674 91.6471 89.8639 91.6471H65.8047C65.3012 91.6471 64.8183 91.8471 64.4623 92.2031C64.1063 92.5592 63.9062 93.042 63.9062 93.5455C63.9062 94.049 64.1063 94.5319 64.4623 94.8879C64.8183 95.244 65.3012 95.444 65.8047 95.444Z" fill="#1AE5BE" fill-opacity="0.68"/>
<path d="M65.8047 111.173H72.2888C72.7923 111.173 73.2752 110.973 73.6312 110.617C73.9872 110.261 74.1872 109.778 74.1872 109.275C74.1872 108.771 73.9872 108.288 73.6312 107.932C73.2752 107.576 72.7923 107.376 72.2888 107.376H65.8047C65.3012 107.376 64.8183 107.576 64.4623 107.932C64.1063 108.288 63.9062 108.771 63.9062 109.275C63.9062 109.778 64.1063 110.261 64.4623 110.617C64.8183 110.973 65.3012 111.173 65.8047 111.173Z" fill="#1AE5BE" fill-opacity="0.68"/>
</svg>
