<svg width="116" height="116" viewBox="0 0 116 116" fill="none" xmlns="http://www.w3.org/2000/svg">
<g clip-path="url(#clip0)">
<path d="M112.139 98.9193H3.86121C1.72863 98.9193 0 97.1906 0 95.058V20.9452C0 18.8126 1.72863 17.084 3.86121 17.084H112.139C114.271 17.084 116 18.8126 116 20.9452V95.058C116 97.1906 114.271 98.9193 112.139 98.9193Z" fill="url(#paint0_linear)"/>
<path d="M112.139 17.0827L3.86212 17.082C1.72863 17.082 0 18.8107 0 20.9441V39.536H98.3007C102.993 39.536 106.797 43.3399 106.797 48.0322V95.057C106.797 97.1896 105.068 98.9182 102.936 98.9182H112.139C114.271 98.9182 116 97.1896 116 95.057V20.9439C116 18.8113 114.271 17.0827 112.139 17.0827Z" fill="url(#paint1_linear)"/>
<path d="M112.139 17.084H3.86121C1.72863 17.084 0 18.8126 0 20.9452V33.8819H116V20.9452C116 18.8126 114.271 17.084 112.139 17.084Z" fill="url(#paint2_linear)"/>
<path d="M11.2345 31.2161C14.4016 31.2161 16.969 28.6486 16.969 25.4816C16.969 22.3145 14.4016 19.7471 11.2345 19.7471C8.06742 19.7471 5.5 22.3145 5.5 25.4816C5.5 28.6486 8.06742 31.2161 11.2345 31.2161Z" fill="url(#paint3_linear)"/>
<path d="M27.7775 31.2161C30.9445 31.2161 33.512 28.6486 33.512 25.4816C33.512 22.3145 30.9445 19.7471 27.7775 19.7471C24.6104 19.7471 22.043 22.3145 22.043 25.4816C22.043 28.6486 24.6104 31.2161 27.7775 31.2161Z" fill="url(#paint4_linear)"/>
<path d="M44.3165 31.2161C47.4836 31.2161 50.051 28.6486 50.051 25.4816C50.051 22.3145 47.4836 19.7471 44.3165 19.7471C41.1495 19.7471 38.582 22.3145 38.582 25.4816C38.582 28.6486 41.1495 31.2161 44.3165 31.2161Z" fill="url(#paint5_linear)"/>
<path d="M116.002 33.8805V20.9437C116.002 18.8111 114.273 17.0825 112.14 17.0825H102.938C105.07 17.0825 106.799 18.8111 106.799 20.9437V33.8805H116.002Z" fill="url(#paint6_linear)"/>
<path d="M96.6889 59.9349H52.3439V49.857C52.3439 47.2081 50.1965 45.0605 47.5474 45.0605H10.3746C7.72572 45.0605 5.57812 47.2079 5.57812 49.857V94.122C5.57812 96.7709 7.72549 98.9184 10.3746 98.9184H96.6891C99.1478 98.9184 101.141 96.9253 101.141 94.4665V64.3866C101.141 61.9281 99.1476 59.9349 96.6889 59.9349Z" fill="url(#paint7_linear)"/>
<path d="M102.343 93.4825H55.5886C53.1299 93.4825 51.1367 91.4894 51.1367 89.0306V58.9509C51.1367 56.4922 53.1299 54.499 55.5886 54.499H102.343C104.802 54.499 106.795 56.4922 106.795 58.9509V89.0306C106.795 91.4894 104.802 93.4825 102.343 93.4825Z" fill="url(#paint8_linear)"/>
<path d="M62.9212 64.0271C61.811 62.9169 60.0107 62.9166 58.9003 64.0271C57.7901 65.1373 57.7901 66.9375 58.9003 68.0479L64.3191 73.4665H51.1367V79.1528H64.3191L58.9005 84.5713C57.7903 85.6815 57.7903 87.4818 58.9005 88.5922C60.0109 89.7026 61.811 89.7024 62.9214 88.5922L73.1935 78.3201C74.304 77.2097 74.304 75.4096 73.1935 74.2992L62.9212 64.0271Z" fill="url(#paint9_linear)"/>
<path d="M102.345 54.499H93.1484C95.6072 54.499 97.6003 56.4922 97.6003 58.9509V89.0306C97.6003 91.4894 95.6072 93.4825 93.1484 93.4825H102.345C104.803 93.4825 106.797 91.4894 106.797 89.0306V58.9509C106.796 56.4922 104.803 54.499 102.345 54.499Z" fill="url(#paint10_linear)"/>
<path d="M53.2036 93.4824H16.0309C13.3817 93.4824 11.2344 91.335 11.2344 88.6859V44.421C11.2344 41.7719 13.3817 39.6245 16.0309 39.6245H53.2036C55.8528 39.6245 58.0001 41.7719 58.0001 44.421V88.6859C58.0001 91.335 55.8528 93.4824 53.2036 93.4824Z" fill="url(#paint11_linear)"/>
<path d="M53.2029 39.6245H44.0066C46.6555 39.6245 48.8031 41.7719 48.8031 44.421V73.4667H46.2616C44.6962 73.4667 43.3534 74.6915 43.3247 76.2566C43.2956 77.8513 44.5796 79.153 46.1674 79.153C47.6231 79.153 48.8031 80.333 48.8031 81.7887V88.6859C48.8031 91.3348 46.6557 93.4824 44.0066 93.4824H53.2029C55.852 93.4824 57.9994 91.335 57.9994 88.6859V44.421C57.9994 41.7719 55.852 39.6245 53.2029 39.6245Z" fill="url(#paint12_linear)"/>
<path d="M62.8858 61.7083C61.7756 62.8185 61.7756 64.6188 62.8858 65.7292L68.3044 71.1477H50.1517C48.5814 71.1477 47.3086 72.4206 47.3086 73.9909C47.3086 75.5612 48.5816 76.834 50.1517 76.834H68.3044L62.8858 82.2526C61.7756 83.3628 61.7756 85.163 62.8858 86.2735C63.9962 87.3839 65.7963 87.3836 66.9067 86.2735L77.1788 76.0013C78.2893 74.8909 78.2893 73.0909 77.1788 71.9804L66.9067 61.7083C65.7963 60.5979 63.9962 60.5979 62.8858 61.7083Z" fill="url(#paint13_linear)"/>
</g>
<defs>
<linearGradient id="paint0_linear" x1="0" y1="58.0017" x2="116" y2="58.0017" gradientUnits="userSpaceOnUse">
<stop stop-color="#F8F6F7"/>
<stop offset="0.1788" stop-color="#F8F6F7"/>
<stop offset="1" stop-color="#E7E6F5"/>
</linearGradient>
<linearGradient id="paint1_linear" x1="-47.9542" y1="58" x2="112.738" y2="58" gradientUnits="userSpaceOnUse">
<stop stop-color="#F8F6F7"/>
<stop offset="1" stop-color="#D1CEEB"/>
</linearGradient>
<linearGradient id="paint2_linear" x1="0" y1="25.4828" x2="127.376" y2="25.4828" gradientUnits="userSpaceOnUse">
<stop stop-color="#B5ADB6"/>
<stop offset="0.5106" stop-color="#918291"/>
<stop offset="1" stop-color="#554E56"/>
</linearGradient>
<linearGradient id="paint3_linear" x1="6.82376" y1="25.4816" x2="26.6448" y2="25.4816" gradientUnits="userSpaceOnUse">
<stop stop-color="#FE646F"/>
<stop offset="0.1209" stop-color="#FE556D"/>
<stop offset="0.3524" stop-color="#FE2E69"/>
<stop offset="0.5725" stop-color="#FE0364"/>
<stop offset="1" stop-color="#D2024E"/>
</linearGradient>
<linearGradient id="paint4_linear" x1="21.2676" y1="25.4816" x2="36.898" y2="25.4816" gradientUnits="userSpaceOnUse">
<stop stop-color="#FFF3BE"/>
<stop offset="0.5725" stop-color="#FFD15B"/>
<stop offset="1" stop-color="#ECA026"/>
</linearGradient>
<linearGradient id="paint5_linear" x1="36.3899" y1="25.4816" x2="55.4487" y2="25.4816" gradientUnits="userSpaceOnUse">
<stop stop-color="#FFF3BE"/>
<stop offset="0.5725" stop-color="#BBEC6C"/>
<stop offset="1" stop-color="#81B823"/>
</linearGradient>
<linearGradient id="paint6_linear" x1="73.4683" y1="25.4814" x2="108.499" y2="25.4814" gradientUnits="userSpaceOnUse">
<stop stop-color="#B5ADB6"/>
<stop offset="0.5106" stop-color="#918291"/>
<stop offset="1" stop-color="#554E56"/>
</linearGradient>
<linearGradient id="paint7_linear" x1="-72.1028" y1="71.9894" x2="131.446" y2="71.9894" gradientUnits="userSpaceOnUse">
<stop stop-color="#F8F6F7"/>
<stop offset="1" stop-color="#D1CEEB"/>
</linearGradient>
<linearGradient id="paint8_linear" x1="47.8917" y1="73.9909" x2="112.129" y2="73.9909" gradientUnits="userSpaceOnUse">
<stop stop-color="#FFF3BE"/>
<stop offset="0.5725" stop-color="#FFD15B"/>
<stop offset="1" stop-color="#ECA026"/>
</linearGradient>
<linearGradient id="paint9_linear" x1="36.5041" y1="76.3096" x2="78.0599" y2="76.3096" gradientUnits="userSpaceOnUse">
<stop stop-color="#FFF3BE"/>
<stop offset="0.5725" stop-color="#FFD15B"/>
<stop offset="1" stop-color="#ECA026"/>
</linearGradient>
<linearGradient id="paint10_linear" x1="63.0034" y1="73.9909" x2="104.633" y2="73.9909" gradientUnits="userSpaceOnUse">
<stop stop-color="#FFF3BE"/>
<stop offset="0.5725" stop-color="#FFD15B"/>
<stop offset="1" stop-color="#ECA026"/>
</linearGradient>
<linearGradient id="paint11_linear" x1="-162.258" y1="66.5536" x2="117.661" y2="66.5536" gradientUnits="userSpaceOnUse">
<stop stop-color="#FE93BB"/>
<stop offset="0.5595" stop-color="#925CB4"/>
<stop offset="1" stop-color="#5B3374"/>
</linearGradient>
<linearGradient id="paint12_linear" x1="-23.1051" y1="66.5536" x2="62.3548" y2="66.5536" gradientUnits="userSpaceOnUse">
<stop stop-color="#FE93BB"/>
<stop offset="0.5595" stop-color="#925CB4"/>
<stop offset="1" stop-color="#5B3374"/>
</linearGradient>
<linearGradient id="paint13_linear" x1="27.4292" y1="109.216" x2="72.8862" y2="63.7588" gradientUnits="userSpaceOnUse">
<stop stop-color="#F8F6F7"/>
<stop offset="0.1788" stop-color="#F8F6F7"/>
<stop offset="1" stop-color="#E7E6F5"/>
</linearGradient>
<clipPath id="clip0">
<rect width="116" height="116" fill="white"/>
</clipPath>
</defs>
</svg>
