<svg width="11" height="13" viewBox="0 0 11 13" fill="none" xmlns="http://www.w3.org/2000/svg">
<path d="M10.1715 10.528C10.3422 10.7307 10.4275 10.9333 10.4275 11.136C10.4275 11.392 10.3262 11.616 10.1235 11.808C9.9315 12 9.7075 12.096 9.4515 12.096C9.18483 12.096 8.95017 11.9787 8.7475 11.744L5.4995 7.712L2.2355 11.744C2.0435 11.968 1.81417 12.08 1.5475 12.08C1.2915 12.08 1.06217 11.9893 0.8595 11.808C0.6675 11.616 0.5715 11.392 0.5715 11.136C0.5715 10.9227 0.6515 10.72 0.8115 10.528L4.2995 6.272L0.9555 2.192C0.7955 2.02133 0.7155 1.81867 0.7155 1.584C0.7155 1.328 0.8115 1.10933 1.0035 0.927999C1.1955 0.735999 1.4195 0.639999 1.6755 0.639999C1.94217 0.639999 2.17683 0.757333 2.3795 0.992L5.4995 4.848L8.6195 0.992C8.8115 0.757333 9.04083 0.639999 9.3075 0.639999C9.5635 0.639999 9.7875 0.735999 9.9795 0.927999C10.1822 1.10933 10.2835 1.328 10.2835 1.584C10.2835 1.81867 10.2035 2.02133 10.0435 2.192L6.6995 6.272L10.1715 10.528Z" fill="white"/>
</svg>
